<!-- Generated by IcoMoon.io -->
<svg version="1.1" xmlns="http://www.w3.org/2000/svg" width="32" height="32" viewBox="0 0 32 32">
<title>arrow</title>
<path d="M2.32 2.347c-0.587 0.613-0.987 1.28-0.987 1.653 0 0.987 13.707 14.667 14.667 14.667 0.987 0 14.667-13.707 14.667-14.693 0-0.88-1.787-2.64-2.667-2.64-0.48 0-2.080 1.44-6.32 5.653l-5.68 5.653-5.68-5.653c-4.347-4.32-5.84-5.653-6.347-5.653-0.427 0-1.040 0.373-1.653 1.013z"></path>
<path d="M2.32 13.813c-0.587 0.613-0.987 1.28-0.987 1.653 0 0.987 13.707 14.667 14.667 14.667 0.987 0 14.667-13.707 14.667-14.693 0-0.88-1.787-2.64-2.667-2.64-0.48 0-2.080 1.44-6.32 5.653l-5.68 5.653-5.68-5.653c-4.347-4.32-5.84-5.653-6.347-5.653-0.427 0-1.040 0.373-1.653 1.013z"></path>
</svg>
