<!-- Generated by IcoMoon.io -->
<svg version="1.1" xmlns="http://www.w3.org/2000/svg" width="32" height="32" viewBox="0 0 32 32">
<title>camera</title>
<path d="M10.557 3.446c-0.41 0.328-0.875 1.094-1.067 1.832l-0.383 1.285-3.938 0.164c-2.161 0.082-3.966 0.191-3.993 0.191-0.027 0.027-0.301 0.328-0.629 0.656-0.52 0.574-0.547 0.903-0.547 9.956 0 9.026 0.027 9.354 0.574 10.065l0.547 0.711h29.757l0.547-0.711c0.547-0.711 0.574-1.039 0.574-10.010 0-5.525-0.109-9.491-0.273-9.791-0.438-0.821-1.805-1.094-5.361-1.094h-3.337l-0.465-1.368c-0.766-2.352-1.094-2.462-6.564-2.462-4.349 0-4.759 0.055-5.443 0.574zM19.747 9.764c1.832 0.848 3.255 2.243 4.239 4.13 0.602 1.176 0.738 1.778 0.738 3.61 0.027 2.598-0.547 4.075-2.243 5.935-4.267 4.622-12.034 3.309-14.632-2.489-0.821-1.805-0.821-4.896 0.027-6.728 2.079-4.54 7.357-6.509 11.87-4.458zM30.359 11.897v0.821h-4.103v-1.641h4.103v0.821z"></path>
<path d="M13.265 11.87c-4.896 2.27-4.896 9.135-0.027 11.405 3.364 1.559 7.412 0.027 8.834-3.364 0.52-1.258 0.438-3.583-0.164-4.868-0.629-1.34-2.024-2.708-3.364-3.255-1.395-0.602-3.911-0.547-5.279 0.082z"></path>
</svg>
