<!-- Generated by IcoMoon.io -->
<svg version="1.1" xmlns="http://www.w3.org/2000/svg" width="32" height="32" viewBox="0 0 32 32">
<title>circle</title>
<path fill="#ffe600" d="M11.731 4.269c0 2.358 1.911 4.269 4.269 4.269s4.269-1.911 4.269-4.269c0-2.358-1.911-4.269-4.269-4.269v0c-2.358 0-4.269 1.912-4.269 4.269v0zM20.792 8.023c0 2.358 1.911 4.269 4.269 4.269s4.269-1.911 4.269-4.269c0-2.358-1.911-4.269-4.269-4.269v0c-0.001 0-0.003 0-0.004 0-2.356 0-4.265 1.91-4.265 4.265 0 0.001 0 0.003 0 0.004v-0zM26.677 17.077c0 0.001 0 0.003 0 0.004 0 1.179 0.956 2.135 2.135 2.135s2.135-0.956 2.135-2.135c0-1.179-0.956-2.135-2.135-2.135-0.001 0-0.003 0-0.004 0h0c-1.176 0.003-2.128 0.955-2.131 2.13v0zM22.923 26.139c0.002 1.177 0.957 2.131 2.135 2.131 1.179 0 2.135-0.956 2.135-2.135 0-1.178-0.953-2.132-2.131-2.135h-0c-0.001 0-0.002 0-0.003 0-1.179 0-2.135 0.956-2.135 2.135 0 0.001 0 0.002 0 0.003v-0zM13.869 29.885c0 0.001 0 0.003 0 0.004 0 1.179 0.956 2.135 2.135 2.135s2.135-0.956 2.135-2.135c0-1.179-0.956-2.135-2.135-2.135-0.001 0-0.003 0-0.004 0h0c-1.176 0.003-2.128 0.955-2.131 2.13v0zM4.808 26.139c0.002 1.177 0.957 2.131 2.135 2.131 1.179 0 2.135-0.956 2.135-2.135 0-1.178-0.953-2.132-2.13-2.135h-0c-0.001 0-0.002 0-0.003 0-1.179 0-2.135 0.956-2.135 2.135 0 0.001 0 0.002 0 0.003v-0zM3.739 8.023c0 0.001 0 0.003 0 0.004 0 1.769 1.434 3.204 3.204 3.204s3.204-1.434 3.204-3.204c0-1.768-1.432-3.202-3.2-3.204h-0c-0 0-0.001 0-0.002 0-1.769 0-3.203 1.432-3.206 3.2v0zM0.788 17.077c0 0.002 0 0.005 0 0.008 0 1.328 1.076 2.404 2.404 2.404s2.404-1.076 2.404-2.404c0-1.328-1.076-2.404-2.404-2.404v0c-1.325 0-2.399 1.072-2.404 2.396v0z"></path>
</svg>
