<!-- Generated by IcoMoon.io -->
<svg version="1.1" xmlns="http://www.w3.org/2000/svg" width="32" height="32" viewBox="0 0 32 32">
<title>clock</title>
<path fill="#fff" d="M15.823 3.956c-0.001 0-0.002 0-0.003 0-7.672 0-13.891 6.219-13.891 13.891s6.219 13.891 13.891 13.891c7.67 0 13.888-6.216 13.891-13.886v-0c0-0 0-0.001 0-0.001 0-7.671-6.217-13.891-13.888-13.895h-0zM15.823 29.013c-0 0-0.001 0-0.001 0-6.164 0-11.161-4.997-11.161-11.161s4.997-11.161 11.161-11.161c6.164 0 11.161 4.997 11.161 11.161v0c-0.003 6.163-4.998 11.158-11.16 11.161h-0zM28.929 8.892c0.492-0.842 0.783-1.854 0.783-2.933 0-0.005 0-0.010-0-0.016v0.001c0-0.003 0-0.006 0-0.009 0-3.286-2.664-5.95-5.95-5.95-1.915 0-3.618 0.904-4.706 2.309l-0.010 0.014c4.126 0.878 7.584 3.259 9.846 6.531l0.035 0.053zM12.593 2.308c-1.099-1.413-2.799-2.313-4.71-2.313-3.287 0-5.952 2.665-5.952 5.952 0 1.083 0.289 2.099 0.795 2.974l-0.015-0.029c2.297-3.325 5.755-5.707 9.778-6.566l0.104-0.019zM13.836 10.133h2.115l0.043 9.697h-2.158v-9.697zM15.775 17.852h5.996v1.978h-5.952z"></path>
</svg>
