<!-- Generated by IcoMoon.io -->
<svg version="1.1" xmlns="http://www.w3.org/2000/svg" width="32" height="32" viewBox="0 0 32 32">
<title>develope</title>
<path d="M12.651 3.572c-0.298 1.96-0.372 2.109-1.091 2.456-0.744 0.347-0.794 0.347-2.58-0.893l-1.811-1.24-2.009 1.984-1.984 1.984 1.24 1.712c1.166 1.612 1.215 1.736 0.943 2.456-0.273 0.67-0.471 0.769-2.158 1.067-1.017 0.198-1.984 0.372-2.158 0.447-0.223 0.074-0.298 0.769-0.248 2.878l0.074 2.803 1.24 0.174c2.828 0.447 2.853 0.447 3.25 1.215 0.372 0.744 0.372 0.769-0.918 2.481l-1.29 1.761 2.009 2.009 2.009 1.985 1.811-1.24c1.736-1.191 1.836-1.215 2.58-0.918 0.719 0.298 0.769 0.422 1.067 2.431l0.322 2.133h2.828c2.059 0 2.878-0.074 2.952-0.322 0.050-0.149 0.223-1.116 0.372-2.109 0.273-1.687 0.347-1.836 1.067-2.133 0.769-0.298 0.868-0.273 2.605 0.943l1.811 1.24 3.969-3.969-1.067-1.488c-0.595-0.794-1.166-1.588-1.265-1.736-0.223-0.372 0.298-1.836 0.645-1.86 0.174 0 1.191-0.149 2.282-0.298l1.985-0.298 0.074-2.778 0.074-2.753-2.332-0.422c-2.208-0.397-2.332-0.447-2.605-1.191-0.273-0.719-0.223-0.868 0.645-2.084 0.496-0.744 1.067-1.538 1.215-1.761 0.273-0.397 0.074-0.695-1.662-2.406l-1.985-1.96-1.786 1.24c-1.736 1.215-1.836 1.24-2.605 0.943-0.719-0.298-0.794-0.447-1.067-2.133-0.149-0.992-0.322-1.96-0.372-2.133-0.074-0.223-0.893-0.298-2.952-0.298h-2.828l-0.298 2.084zM17.513 13.048c2.629 1.24 2.729 5.036 0.198 6.474-2.53 1.464-5.557-0.248-5.557-3.15 0-2.753 2.828-4.515 5.358-3.324z"></path>
</svg>
