<!-- Generated by IcoMoon.io -->
<svg version="1.1" xmlns="http://www.w3.org/2000/svg" width="32" height="32" viewBox="0 0 32 32">
<title>file</title>
<path fill="#ffe600" d="M28.108-0.007l2.102 17.855-2.359 0.276-1.879-15.942h-19.903l-1.879 15.942-2.359-0.276 2.103-17.855h24.175zM8.409 3.6h15.251l0.031 2.211-15.281 0.058v-2.269zM8.427 7.993h15.284l-0.023 2.204-15.284-0.029zM8.427 12.349h15.261v2.204l-15.284 0.022zM8.381 15.985h15.307l0.023 2.225-15.307-0.022zM30.854 20.393l-29.841-0.044c-0.377 0.052-0.664 0.372-0.664 0.759 0 0.135 0.035 0.262 0.096 0.372l-0.002-0.004 3.256 9.549c0.212 0.541 0.716 0.923 1.314 0.953l0.003 0h22.012c0.601-0.030 1.106-0.412 1.314-0.943l0.003-0.010 3.302-9.644c0.030-0.079 0.048-0.171 0.048-0.267 0-0.423-0.343-0.766-0.766-0.766-0.003 0-0.007 0-0.010 0h0zM20.045 23.978h-8.029l0.023-2.182h7.985z"></path>
</svg>
