<!-- Generated by IcoMoon.io -->
<svg version="1.1" xmlns="http://www.w3.org/2000/svg" width="32" height="32" viewBox="0 0 32 32">
<title>hammer</title>
<path fill="#ffe600" d="M31.623 25.098l-9.444-9.447c-0.273-0.27-0.648-0.436-1.063-0.436s-0.79 0.167-1.063 0.436l0-0-0.708 0.713-5.762-5.76 9.725-9.876h-9.991l-4.744 4.865-0.418-0.56-2.238 0.029 0.023 2.145 0.509 0.509-6.452 6.451 5.010 5.011 6.452-6.451 5.762 5.76-0.708 0.705c-0.271 0.273-0.439 0.65-0.439 1.065s0.168 0.792 0.439 1.066l9.441 9.44c0.273 0.27 0.648 0.436 1.063 0.436s0.79-0.167 1.063-0.436l3.542-3.542c0.272-0.272 0.44-0.647 0.44-1.062s-0.168-0.79-0.44-1.062v0z"></path>
</svg>
