<!-- Generated by IcoMoon.io -->
<svg version="1.1" xmlns="http://www.w3.org/2000/svg" width="32" height="32" viewBox="0 0 32 32">
<title>hands</title>
<path fill="#fff" d="M28.843 17.707c2.24 0 0.983 5.899-0.983 5.899 0.983 0 0 4.917-1.967 4.917 0 1.973-1.927 3.147-3.893 3.147-8.307 0-5.5-2.315-13.882-3.179l-0.077-15.701c7.403-2.219 14.902-7.787 14.902-12.779 1.629 0 5.822 1.547-0.077 11.371h5.937c2.95 0 2.006 6.325 0.039 6.325zM5.959 12.789v15.659h2.24v1.056h-3.934c-1.458-0.226-2.569-1.448-2.621-2.939l-0-0.005-0.038-11.765c0-1.621 1.501-3.445 2.582-3.445h4.011v1.44h-2.24z"></path>
</svg>
