<!-- Generated by IcoMoon.io -->
<svg version="1.1" xmlns="http://www.w3.org/2000/svg" width="117" height="32" viewBox="0 0 117 32">
<title>logo-rocket</title>
<path fill="#707070" d="M114.067 20.672c-0.010 0-0.022 0-0.034 0-1.837 0-3.326-1.489-3.326-3.326s1.489-3.326 3.326-3.326c1.837 0 3.326 1.489 3.326 3.326 0 0.001 0 0.003 0 0.004v-0c0 0.002 0 0.005 0 0.008 0 1.823-1.471 3.302-3.291 3.314h-0.001zM114.067 14.448c-0.008-0-0.018-0-0.027-0-1.601 0-2.898 1.298-2.898 2.898s1.298 2.898 2.898 2.898c1.599 0 2.896-1.295 2.898-2.894v-0c0-0.004 0-0.009 0-0.014 0-1.589-1.283-2.878-2.87-2.888h-0.001zM112.9 15.584c0.305-0.050 0.658-0.078 1.016-0.078 0.026 0 0.051 0 0.077 0l-0.004-0c0.053-0.005 0.114-0.009 0.176-0.009 0.369 0 0.712 0.111 0.998 0.301l-0.007-0.004c0.205 0.172 0.334 0.428 0.334 0.714 0 0.017-0 0.034-0.001 0.051l0-0.002c-0.005 0.413-0.267 0.764-0.633 0.9l-0.007 0.002v0.016c0.259 0.135 0.442 0.385 0.484 0.68l0.001 0.005c0.097 0.421 0.199 0.764 0.316 1.1l-0.022-0.073h-0.836c-0.102-0.241-0.189-0.525-0.247-0.819l-0.005-0.029c0.001-0.009 0.001-0.021 0.001-0.032 0-0.309-0.251-0.56-0.56-0.56-0.009 0-0.019 0-0.028 0.001l0.001-0h-0.246v1.439h-0.808v-3.602zM113.709 17.155h0.321c0.029 0.005 0.062 0.008 0.095 0.008 0.3 0 0.545-0.238 0.554-0.536l0-0.001c0-0.003 0-0.005 0-0.008 0-0.28-0.227-0.506-0.507-0.506-0.034 0-0.067 0.003-0.099 0.010l0.003-0.001c-0.008-0-0.017-0-0.027-0-0.121 0-0.239 0.009-0.356 0.025l0.013-0.002v1.011zM28.796 31.992s-1.271-0.545-2.276-0.887c-0.293-0.078-0.545-0.23-0.741-0.435l-0.001-0.001c-0.368-1.541-1.733-2.669-3.361-2.669-1.262 0-2.366 0.677-2.968 1.688l-0.009 0.016-0.145-0.023c0.357-0.976 1.080-1.745 1.999-2.153l0.024-0.009c-0.218-1.727-1.671-3.051-3.436-3.065h-0.002c-0.33 0.007-0.646 0.058-0.945 0.146l0.026-0.006c0.371 0.596 0.599 1.316 0.618 2.088l0 0.005c-0.011 1.009-0.399 1.926-1.029 2.617l0.003-0.003c0.331-0.626 0.525-1.368 0.525-2.156 0-2.589-2.099-4.688-4.688-4.688s-4.688 2.099-4.688 4.688c0 0.834 0.218 1.617 0.6 2.296l-0.012-0.024c-0.699-0.701-1.137-1.663-1.155-2.727l-0-0.003c0.011-0.503 0.107-0.98 0.273-1.422l-0.010 0.030c-0.536-0.34-1.19-0.542-1.89-0.542-1.969 0-3.565 1.596-3.565 3.565 0 0.944 0.367 1.803 0.967 2.441l-0.002-0.002c-0.178 0.145-0.387 0.259-0.615 0.331l-0.013 0.004c-1.011 0.335-2.279 0.879-2.279 0.879h9.33l-0.018 0.023h19.484zM15.358 15.716l0.024-0.014c-0.623 0.378-1.329 0.634-2.111 0.737h-0.011l-0.047-0.008c-0.737-0.143-1.436-0.394-2.039-0.716l-2.858 1.128c0.178-2.389 1.384-3.836 2.412-5.68-0.759-8.932 2.371-11.157 2.371-11.157s3.464 2.225 2.704 11.157c1.026 1.844 2.231 3.291 2.412 5.68zM18.215 16.844c-0.18-2.389-1.386-3.836-2.412-5.68 0.759-8.932-2.704-11.157-2.704-11.157s-3.131 2.225-2.371 11.157c-1.028 1.844-2.234 3.291-2.412 5.68l2.858-1.128c0.603 0.322 1.301 0.573 2.039 0.716l0.047 0.008h0.011c0.782-0.103 1.488-0.359 2.111-0.737l-0.024 0.014zM15.111 19.225l-0.725-2.124c-0.266 0.22-0.58 0.393-0.923 0.5l-0.020 0.005c-0.366-0.113-0.683-0.286-0.957-0.51l0.005 0.004-0.727 2.124 0.821-0.895-0.514 3.275 0.863-0.825c0.072-0.008 0.179 0.459 0.252 0.459 0.053 0 0.15 0.498 0.206 0.506 0.054-0.008 0.244-0.506 0.296-0.506 0.073 0 0.181-0.467 0.252-0.459v0l0.863 0.825-0.514-3.275zM35.729 31.728h-2.49l2.83-13.81h3.7c0.591 0 1.099 0.023 1.524 0.062 0.418 0.042 0.798 0.116 1.165 0.221l-0.046-0.011c0.801 0.196 1.48 0.634 1.973 1.231l0.005 0.006c0.393 0.532 0.629 1.201 0.629 1.926 0 0.023-0 0.046-0.001 0.069l0-0.003c0 0.009 0 0.020 0 0.031 0 0.55-0.085 1.080-0.244 1.578l0.010-0.037c-0.162 0.507-0.409 0.945-0.727 1.32l0.005-0.005c-0.353 0.412-0.773 0.755-1.245 1.015l-0.023 0.012c-0.535 0.294-1.154 0.528-1.809 0.669l-0.045 0.008v0.047l3.034 5.672h-2.758l-2.739-5.345h-1.66zM37.261 24.266h0.96c0.457 0 0.864-0.016 1.227-0.047 0.356-0.027 0.687-0.087 1.004-0.18l-0.034 0.009c0.605-0.149 1.124-0.454 1.53-0.871l0.001-0.001c0.35-0.385 0.565-0.899 0.565-1.463 0-0.035-0.001-0.070-0.002-0.105l0 0.005c0-0.011 0-0.023 0-0.036 0-0.305-0.083-0.591-0.229-0.835l0.004 0.008c-0.171-0.261-0.427-0.454-0.728-0.542l-0.009-0.002c-0.184-0.061-0.398-0.106-0.62-0.124l-0.010-0.001c-0.267-0.030-0.576-0.047-0.889-0.047-0.029 0-0.058 0-0.087 0l0.004-0h-1.818zM53.491 17.661c0.019-0 0.041-0 0.064-0 0.753 0 1.477 0.123 2.154 0.349l-0.048-0.014c1.279 0.426 2.276 1.393 2.733 2.623l0.010 0.030c0.24 0.644 0.378 1.389 0.378 2.166 0 0.040-0 0.080-0.001 0.12l0-0.006c-0.006 0.634-0.067 1.249-0.179 1.847l0.010-0.065c-0.133 0.754-0.322 1.42-0.57 2.057l0.025-0.073c-0.285 0.755-0.614 1.404-1.004 2.010l0.025-0.042c-0.413 0.649-0.899 1.205-1.455 1.68l-0.010 0.009c-1.193 1.022-2.755 1.643-4.462 1.643-0.052 0-0.105-0.001-0.157-0.002l0.008 0c-0.022 0-0.048 0-0.074 0-0.751 0-1.472-0.125-2.145-0.357l0.046 0.014c-0.65-0.216-1.208-0.557-1.67-0.997l0.002 0.002c-0.466-0.454-0.831-1.007-1.064-1.626l-0.010-0.031c-0.24-0.639-0.379-1.378-0.379-2.15 0-0.043 0-0.086 0.001-0.129l-0 0.006c0.007-0.637 0.068-1.256 0.177-1.857l-0.010 0.067c0.136-0.756 0.325-1.423 0.571-2.060l-0.026 0.076c0.29-0.753 0.62-1.399 1.007-2.005l-0.026 0.044c0.415-0.651 0.9-1.209 1.456-1.688l0.010-0.008c1.197-1.017 2.761-1.635 4.469-1.635 0.049 0 0.098 0 0.147 0.002l-0.007-0zM53.318 19.801c-0.016-0-0.034-0-0.052-0-0.53 0-1.035 0.106-1.496 0.298l0.026-0.009c-0.484 0.207-0.9 0.471-1.267 0.791l0.006-0.005c-0.381 0.342-0.712 0.728-0.988 1.153l-0.014 0.022c-0.271 0.411-0.515 0.883-0.708 1.38l-0.018 0.051c-0.176 0.449-0.328 0.981-0.43 1.532l-0.009 0.056c-0.093 0.481-0.147 1.035-0.149 1.602v0.001c-0.001 0.025-0.001 0.054-0.001 0.084 0 0.462 0.075 0.907 0.214 1.323l-0.009-0.029c0.13 0.389 0.33 0.724 0.588 1.006l-0.002-0.002c0.254 0.262 0.567 0.467 0.917 0.594l0.017 0.005c0.356 0.128 0.768 0.203 1.197 0.203 0.014 0 0.028-0 0.042-0l-0.002 0c0.008 0 0.017 0 0.026 0 0.539 0 1.053-0.106 1.523-0.298l-0.027 0.010c0.485-0.206 0.902-0.473 1.266-0.798l-0.005 0.004c0.381-0.34 0.712-0.723 0.988-1.145l0.013-0.022c0.27-0.413 0.514-0.887 0.707-1.387l0.018-0.053c0.177-0.447 0.329-0.977 0.43-1.525l0.008-0.054c0.093-0.483 0.147-1.040 0.149-1.609v-0.002c0.005-0.070 0.008-0.152 0.008-0.234 0-0.82-0.303-1.57-0.803-2.143l0.003 0.004c-0.521-0.499-1.229-0.806-2.009-0.806-0.058 0-0.115 0.002-0.172 0.005l0.008-0zM68.489 19.801c-0.012-0-0.026-0-0.041-0-0.573 0-1.125 0.094-1.64 0.267l0.036-0.011c-0.525 0.177-0.98 0.418-1.388 0.718l0.014-0.010c-0.406 0.311-0.756 0.668-1.052 1.067l-0.010 0.014c-0.29 0.389-0.545 0.832-0.745 1.304l-0.016 0.042c-0.19 0.436-0.349 0.947-0.451 1.478l-0.008 0.047c-0.098 0.484-0.155 1.040-0.156 1.61v0c-0.002 0.045-0.003 0.098-0.003 0.151 0 0.566 0.104 1.108 0.294 1.607l-0.010-0.031c0.17 0.432 0.434 0.795 0.767 1.078l0.004 0.003c0.321 0.26 0.707 0.452 1.129 0.549l0.019 0.004c0.412 0.104 0.884 0.163 1.371 0.163 0.012 0 0.024-0 0.035-0h-0.002c0.017 0 0.037 0 0.057 0 0.574 0 1.135-0.054 1.679-0.157l-0.056 0.009c0.679-0.132 1.26-0.291 1.824-0.487l-0.092 0.028-0.45 2.225c-0.514 0.184-1.115 0.326-1.737 0.401l-0.040 0.004c-0.511 0.070-1.107 0.112-1.711 0.117l-0.006 0c-0.021 0-0.046 0-0.071 0-0.782 0-1.536-0.117-2.247-0.334l0.054 0.014c-0.681-0.206-1.27-0.54-1.765-0.977l0.005 0.004c-0.5-0.458-0.891-1.026-1.135-1.666l-0.010-0.030c-0.261-0.686-0.412-1.478-0.412-2.306 0-0.053 0.001-0.107 0.002-0.16l-0 0.008c0.003-0.731 0.075-1.443 0.211-2.133l-0.012 0.071c0.15-0.774 0.362-1.457 0.64-2.105l-0.025 0.067c0.301-0.711 0.65-1.322 1.059-1.887l-0.019 0.027c0.428-0.583 0.922-1.083 1.479-1.504l0.018-0.013c0.576-0.43 1.244-0.78 1.965-1.013l0.049-0.014c0.715-0.242 1.538-0.382 2.394-0.382 0.027 0 0.054 0 0.081 0l-0.004-0c0.591 0.007 1.166 0.057 1.726 0.149l-0.066-0.009c0.656 0.088 1.245 0.227 1.81 0.417l-0.068-0.020-0.419 2.070c-0.388-0.127-0.873-0.248-1.369-0.339l-0.073-0.011c-0.417-0.074-0.898-0.117-1.388-0.117-0.010 0-0.021 0-0.031 0h0.002zM71.902 31.728h2.494l1.306-6.38h0.038l3.954 6.38h2.869l-4.341-6.862 6.528-6.948h-3.086l-5.658 6.146h-0.042l1.257-6.146h-2.49l-2.83 13.81zM87.794 25.721h5.213l0.429-2.116h-5.208l0.737-3.571h6.069l0.44-2.116h-8.57l-2.829 13.81h8.939l0.429-2.116h-6.444zM104.178 20.034h4.291l0.43-2.116h-11.084l-0.42 2.116h4.292l-2.402 11.694h2.49z"></path>
</svg>
