<!-- Generated by IcoMoon.io -->
<svg version="1.1" xmlns="http://www.w3.org/2000/svg" width="131" height="32" viewBox="0 0 131 32">
<title>logo-mars</title>
<path fill="#707070" d="M64.669 28.033l-4.112-0.027-5.142 0.036c0-0.407-0.018-1.184-0.009-1.59s0.036-0.759 0.045-1.139l2.024-0.009c0.010 0.001 0.022 0.001 0.035 0.001 0.304 0 0.554-0.228 0.589-0.522l0-0.003 0.054-0.759c-0.036-3.732-0.045-7.193-0.027-11.576l-0.009-0.714-0.705 0.036h-0.56l-0.090 0.244c-2.151 6.172-3.967 10.293-5.639 14.197-0.226 0.009-0.515 0.009-0.849 0.018-0.578 0.009-1.283-0.009-1.907-0.009-1.871-4.473-3.118-7.437-5.097-13.42l-0.361-1.039h-0.687l-0.371-0.036-0.036 0.425c-0.054 3.344 0.063 5.251 0.027 6.85-0.036 1.97 0.036 3.922 0 5.892l0.054 0.416 0.551 0.018 2.142 0.045c0 0.777-0.054 1.862-0.081 2.657l-4.817 0.027h-4.166l0.027-2.684 2.368-0.063 0.072-0.036c0.188-0.082 0.316-0.266 0.316-0.48 0-0.003-0-0.006-0-0.008v0c0.036-5.016-0.145-10.917-0.063-16.52l0.027-1.039-0.443 0.045-1.41-0.045c0-0.434 0.036-1.292 0.045-1.753 0-0.443-0.018-1.356-0.018-1.771l8.983-0.036c1.093 2.973 3.091 10.013 4.717 14.812l0.271 0.804 0.090 0.253h0.822l0.090-0.253c0.705-1.988 1.455-4.13 2.196-6.254 1.112-3.163 2.666-6.841 3.579-9.389l8.142 0.027c0 0.416 0.018 1.455 0.018 1.889-0.009 0.461-0.018 1.202-0.027 1.645h-2.268l-0.063 0.036c-0.264 0.161-0.437 0.447-0.437 0.774 0 0.027 0.001 0.053 0.003 0.079l-0-0.003c0.027 2.783 0.063 5.214 0.072 8.314 0.009 2.892-0.009 4.446 0.009 7.175l0.027 1.744 0.497-0.009h2.187c0 0.777 0 1.907-0.018 2.702zM89.674 28.006l-3.904 0.036h-5.955c0-0.822-0.027-1.871-0.009-2.684l1.78-0.090c0.153-0.010 0.286-0.089 0.37-0.206l0.001-0.002c0.062-0.084 0.1-0.19 0.1-0.304 0-0.059-0.010-0.116-0.029-0.17l0.001 0.004c-0.072-0.199-0.154-0.47-0.244-0.768-0.172-0.569-0.361-1.202-0.515-1.581-0.047-0.304-0.296-0.537-0.603-0.56l-0.002-0-6.904 0.018-0.298 0.199-0.063 0.289c-0.072 0.325-0.163 0.687-0.253 1.057-0.145 0.56-0.289 1.139-0.38 1.618l-0.081 0.416 0.425 0.027 2.16 0.054c0 0.795-0.036 1.871-0.054 2.684h-8.974c0.009-0.813 0.099-1.889 0.136-2.684l1.663-0.054c0.259-0.025 0.472-0.201 0.55-0.438l0.001-0.005c2.386-6.362 5.648-15.553 7.718-21.192 0.75-0.054 2.323-0.027 4.573-0.027 1.202 3.488 2.621 8.052 3.994 12.173 1.112 3.317 2.178 6.543 3.091 9.2l0.072 0.235 0.244 0.018 1.491 0.117c0 0.795-0.018 1.319-0.036 2.124zM76.995 10.185l-0.081 0.262c-0.515 1.681-1.057 3.434-1.563 5.124l-0.714 1.645c-0.13 0.531-0.204 1.141-0.204 1.768 0 0.103 0.002 0.205 0.006 0.307l-0-0.015 0.027-0.271h5.287l0.615 0.027-0.605-1.844c-0.533-1.681-0.488-1.853-1.084-3.859-0.289-0.958-0.578-1.925-0.868-2.883l-0.081-0.262h-0.732zM105.299 26.659c-0.849-1.554-1.654-3.57-2.485-5.558l-0.334-0.777c-0.515-1.238-1.003-2.268-2.079-2.268-0.171-0.013-0.37-0.021-0.572-0.021-0.241 0-0.48 0.011-0.715 0.032l0.030-0.002-0.244 0.596-0.117 0.262-0.045 5.928 0.117 0.47 0.352 0.018 2.268-0.018c-0.018 0.804-0.018 1.898-0.018 2.702l-5.504 0.027-4.356-0.054c0.018-0.804-0.009-1.871-0.009-2.675l1.428 0.018c0.257-0.009 0.461-0.22 0.461-0.478 0-0 0-0.001 0-0.001v0l-0.163-15.833 0.027-1.771-0.271-0.018-1.491-0.027c0-0.84-0.018-2.756 0-3.57 3.253-0.045 5.91-0.009 8.206-0.009 2.088 0 3.235 0.506 5.404 1.021 3.118 0.687 5.296 3.506 5.296 5.711 0 2.765-1.853 4.988-4.645 6.154l-0.235 0.099v0.705l0.208 0.099c1.383 0.66 2.223 2.422 3.606 5.323l0.443 0.922c0.371 0.84 0.705 1.5 1.419 1.563l0.976 0.154c0 0.389 0.072 0.849 0.063 1.247s-0.018 0.958-0.018 1.365c-0.289 0-0.253-0.018-0.596-0.018-0.515 0.009-0.723 0.027-1.075 0.027-0.434 0-1.545 0.009-2.567 0.018-0.786 0.009-1.581-0.045-2.006-0.036zM100.528 6.434c-0.069-0.004-0.149-0.006-0.229-0.006-0.381 0-0.75 0.048-1.102 0.139l0.031-0.007-0.253 0.081-0.262 0.298 0.072 8.721 0.108 0.407 0.289 0.208c0.241 0.040 0.519 0.062 0.802 0.062 0.103 0 0.205-0.003 0.306-0.009l-0.014 0.001c2.63 0 4.284-1.997 4.284-4.762 0-2.874-1.762-5.133-4.031-5.133v0zM120.617 27.97c-0.347 0.021-0.753 0.033-1.161 0.033-1.522 0-3.006-0.167-4.433-0.483l0.136 0.025c-0.262-2.024-0.488-4.021-0.714-5.983l-0.244-0.425c1.103-0.235 2.449-0.434 3.443-0.569l0.958 3.416c0.054 0.236 0.194 0.432 0.385 0.558l0.003 0.002c0.719 0.493 1.608 0.787 2.566 0.787 0.032 0 0.064-0 0.096-0.001l-0.005 0c0.033 0.001 0.071 0.001 0.11 0.001 1.023 0 1.969-0.326 2.742-0.879l-0.014 0.010c0.638-0.522 1.042-1.308 1.042-2.19 0-0.040-0.001-0.081-0.003-0.121l0 0.006c0-2.169-1.202-2.612-4.085-3.696-4.275-1.609-6.443-3.985-6.443-7.040 0.015-2.112 0.942-4.005 2.406-5.307l0.007-0.006c1.636-1.491 4.365-2.476 7.7-2.476 0.013-0 0.028-0 0.043-0 1.636 0 3.209 0.268 4.679 0.762l-0.103-0.030c0.199 2.069 0.569 4.211 0.714 6.317-0.94 0.145-2.196 0.235-3.226 0.352l-0.145 0.018-0.777-3.172c-0.046-0.173-0.131-0.322-0.245-0.443l0.001 0.001c-0.561-0.545-1.297-0.913-2.115-1.010l-0.017-0.002c-0.952 0.083-1.8 0.47-2.462 1.061l0.004-0.004c-0.707 0.561-1.157 1.421-1.157 2.385 0 0.019 0 0.039 0.001 0.058l-0-0.003c0 2.133 1.012 2.585 4.509 3.805 4.211 1.455 6.010 3.452 6.010 6.696 0.001 0.050 0.002 0.109 0.002 0.168 0 2.226-1.012 4.216-2.602 5.533l-0.012 0.010c-1.771 1.41-4.031 1.834-7.474 1.834h-0.117zM13.673 6.877c-0.021 3.763-3.075 6.805-6.841 6.805-3.778 0-6.841-3.063-6.841-6.841s3.063-6.841 6.841-6.841v0c3.781 0.013 6.841 3.081 6.841 6.864 0 0.005 0 0.010 0 0.014v-0.001zM13.673 25.123c-0.026 3.759-3.079 6.796-6.841 6.796-3.778 0-6.841-3.063-6.841-6.841s3.063-6.841 6.841-6.841v0c3.782 0.015 6.841 3.084 6.841 6.868 0 0.006 0 0.013-0 0.019v-0.001zM28.566 16.005c-0.023 3.763-3.079 6.805-6.845 6.805-3.781 0-6.846-3.065-6.846-6.846 0-3.779 3.062-6.843 6.841-6.846h0c3.785 0.010 6.85 3.081 6.85 6.868 0 0.006 0 0.013-0 0.019v-0.001z"></path>
</svg>
