<!-- Generated by IcoMoon.io -->
<svg version="1.1" xmlns="http://www.w3.org/2000/svg" width="62" height="32" viewBox="0 0 62 32">
<title>logo-half</title>
<path fill="#707070" d="M42.871 18.137l5.645 0.025v-17.523l-5.645 0.019v17.479zM58.315 5.158c0.297-0.098 0.638-0.155 0.992-0.155 0.116 0 0.231 0.006 0.343 0.018l-0.014-0.001c0.357 0 0.655-0.044 0.978-0.019 0.335 0.031 0.707-0.050 1.030-0.013l0.627 0.025v-4.613l-0.36-0.157c-0.379-0.080-0.84-0.144-1.309-0.179l-0.037-0.002c-0.475-0.044-1.023-0.063-1.634-0.063-2.167 0-3.814 0.595-4.893 1.761-1.059 1.147-1.141 2.338-1.141 4.631l-0.020 1.122-3.116-0.019 0.020 4.393 3.118 0.019v6.292l5.009-0.019v-6.273l3.765-0.019v-4.374h-3.765v-0.928c-0.003-1.097 0.281-1.272 0.407-1.429zM37.16 8.787c-0.814-0.551-1.767-0.969-2.792-1.199l-0.056-0.010c-1.043-0.34-2.254-0.581-3.507-0.674l-0.052-0.003c-7.234 0-8.94 3.911-9.127 6.906l-0.091 0.602 5.659-0.019v-0.627c-0.001-0.022-0.002-0.047-0.002-0.073 0-0.598 0.312-1.123 0.782-1.421l0.007-0.004c0.655-0.378 1.44-0.6 2.277-0.6 0.113 0 0.225 0.004 0.336 0.012l-0.015-0.001c1.472 0 2.15 0.32 2.488 0.614 0.327 0.257 0.896 0.495 1.003 0.978 0.020 0.202 0.032 0.437 0.032 0.674 0 0.098-0.002 0.196-0.006 0.293l0-0.014c0.006 0.201 0.013 0.595 0.021 0.821h-1.065c-3.962 0-6.87 0.414-8.892 1.579-0.863 0.501-0.802 0.834-1.322 1.542h16.892l-0.019-3.767c0.005-0.099 0.008-0.215 0.008-0.331 0-1.044-0.234-2.034-0.652-2.919l0.018 0.042c-0.4-0.994-1.064-1.812-1.907-2.389l-0.018-0.012zM11.696 6.9c-1.755 0-3.612 1.097-5.114 2.256 0-0.169-0.034-0.52-0.030-0.696 0.009-0.796-0.018-2.156-0.018-2.989l0.036-5.446h-5.689l0.007 18.137 5.64-0.013 0.004-3.729c0.637-0.659 1.377-1.213 2.195-1.638l0.047-0.022c0.585-0.319 1.279-0.51 2.017-0.52l0.003-0c0.033-0.001 0.073-0.002 0.112-0.002 0.372 0 0.731 0.058 1.068 0.165l-0.025-0.007c0.237 0.082 0.435 0.226 0.583 0.411l0.002 0.003c0.126 0.198 0.205 0.436 0.217 0.692l0 0.003c0.037 0.321 0.058 0.693 0.058 1.070 0 0.219-0.007 0.436-0.021 0.651l0.002-0.029v2.964l5.613 0.019v-3.485c0.002-5.051-2.025-7.796-6.708-7.796zM4.396 31.962c-0.031 0.001-0.067 0.001-0.103 0.001-0.642 0-1.261-0.094-1.846-0.269l0.045 0.012c-0.522-0.16-0.974-0.407-1.365-0.726l0.007 0.006c-0.349-0.3-0.628-0.67-0.817-1.090l-0.008-0.020c-0.18-0.415-0.291-0.898-0.304-1.405l-0-0.005h1.31c0.029 0.378 0.142 0.723 0.319 1.026l-0.006-0.011c0.173 0.283 0.395 0.519 0.655 0.703l0.007 0.005c0.264 0.184 0.574 0.327 0.906 0.41l0.019 0.004c0.332 0.088 0.714 0.138 1.107 0.138 0.003 0 0.006 0 0.008 0h-0c0.010 0 0.022 0 0.034 0 0.361 0 0.711-0.046 1.045-0.132l-0.029 0.006c0.306-0.074 0.576-0.195 0.815-0.357l-0.009 0.006c0.213-0.14 0.386-0.323 0.512-0.538l0.004-0.008c0.115-0.207 0.183-0.454 0.183-0.717 0-0.008-0-0.016-0-0.024v0.001c0-0.013 0.001-0.028 0.001-0.043 0-0.246-0.061-0.477-0.17-0.679l0.004 0.008c-0.134-0.218-0.318-0.392-0.538-0.51l-0.008-0.004c-0.286-0.164-0.616-0.299-0.965-0.389l-0.028-0.006c-0.409-0.119-0.912-0.238-1.504-0.363-0.581-0.126-1.081-0.279-1.562-0.468l0.068 0.023c-0.395-0.153-0.736-0.351-1.039-0.595l0.008 0.006c-0.251-0.211-0.453-0.473-0.591-0.77l-0.006-0.014c-0.123-0.284-0.194-0.614-0.194-0.961 0-0.017 0-0.034 0.001-0.050l-0 0.003c-0-0.008-0-0.017-0-0.027 0-0.411 0.098-0.798 0.273-1.141l-0.007 0.014c0.187-0.359 0.439-0.66 0.743-0.898l0.006-0.005c0.33-0.253 0.714-0.456 1.131-0.588l0.026-0.007c0.436-0.135 0.937-0.213 1.456-0.213 0.014 0 0.027 0 0.041 0h-0.002c0.012-0 0.027-0 0.042-0 0.548 0 1.077 0.078 1.578 0.223l-0.040-0.010c0.469 0.137 0.878 0.347 1.236 0.621l-0.009-0.007c0.338 0.259 0.612 0.584 0.807 0.956l0.008 0.016c0.196 0.377 0.313 0.823 0.32 1.295l0 0.002h-1.324q-0.203-1.861-2.556-1.861c-0.055-0.003-0.12-0.006-0.185-0.006-0.584 0-1.13 0.16-1.598 0.44l0.014-0.008c-0.375 0.237-0.62 0.649-0.62 1.119 0 0.010 0 0.020 0 0.030l-0-0.001c-0 0.012-0.001 0.027-0.001 0.041 0 0.188 0.042 0.365 0.118 0.524l-0.003-0.007c0.090 0.172 0.222 0.31 0.383 0.405l0.005 0.003c0.21 0.13 0.452 0.239 0.708 0.314l0.021 0.005q0.457 0.141 1.134 0.282c0.313 0.069 0.627 0.138 0.951 0.213 0.377 0.083 0.693 0.175 1.001 0.287l-0.055-0.017c0.338 0.116 0.626 0.245 0.9 0.397l-0.028-0.014c0.276 0.151 0.513 0.333 0.719 0.545l0.001 0.001c0.204 0.213 0.368 0.464 0.482 0.742l0.006 0.016c0.113 0.285 0.178 0.615 0.178 0.961 0 0.021-0 0.043-0.001 0.064l0-0.003c0 0.009 0 0.020 0 0.031 0 0.441-0.105 0.858-0.291 1.226l0.007-0.016c-0.197 0.389-0.464 0.715-0.788 0.973l-0.006 0.005c-0.345 0.274-0.747 0.493-1.183 0.638l-0.027 0.008c-0.44 0.147-0.947 0.232-1.473 0.232-0.022 0-0.044-0-0.066-0l0.003 0zM18.455 22.537l-3.154 0.019-0.019 9.382-1.243 0.056v-9.438l-3.112 0.019-0.018-1.266h7.528zM26.727 31.962c-0.039 0.001-0.084 0.001-0.13 0.001-0.533 0-1.050-0.071-1.54-0.205l0.041 0.009c-0.426-0.115-0.799-0.296-1.128-0.533l0.010 0.007c-0.287-0.206-0.525-0.463-0.702-0.759l-0.006-0.011c-0.121-0.161-0.21-0.352-0.253-0.561l-0.002-0.009c-0.090-0.368-0.157-0.803-0.187-1.248l-0.001-0.024c-0.024-0.357-0.016-0.846-0.016-1.191v-6.104l1.226-0.025v6.104c-0.001 0.047-0.002 0.103-0.002 0.159 0 0.542 0.066 1.068 0.191 1.572l-0.009-0.045c0.095 0.393 0.276 0.735 0.523 1.018l-0.002-0.003c0.219 0.239 0.505 0.413 0.828 0.493l0.012 0.002c0.341 0.084 0.732 0.132 1.135 0.132 0.412 0 0.812-0.050 1.195-0.145l-0.034 0.007c0.334-0.084 0.619-0.26 0.835-0.5l0.001-0.002c0.223-0.244 0.844-0.583 0.959-1.015 0.054-0.334 0.084-0.719 0.084-1.111 0-0.198-0.008-0.394-0.023-0.588l0.002 0.026-0.023-6.123 1.257 0.019v6.129c0.014 0.199 0.021 0.432 0.021 0.666 0 0.466-0.030 0.924-0.090 1.374l0.006-0.053c-0.224 0.529-0.546 0.977-0.949 1.338l-0.003 0.003c-0.322 0.396-0.741 0.701-1.22 0.883l-0.020 0.007c-0.54 0.196-1.162 0.31-1.812 0.31-0.060 0-0.12-0.001-0.18-0.003l0.009 0zM43.442 26.579c0 3.466-1.727 5.358-5.23 5.358l-3.498 0.019 0.020-10.667 3.596 0.019c3.505 0 5.115 1.874 5.115 5.271zM42.036 26.579c0-0.022 0-0.049 0-0.075 0-0.547-0.065-1.078-0.188-1.588l0.009 0.046c-0.113-0.472-0.328-0.884-0.621-1.226l0.003 0.004c-0.316-0.342-0.714-0.603-1.163-0.753l-0.020-0.006c-0.502-0.252-1.090-0.413-1.712-0.445l-0.011-0-2.377 0.019v8.141h2.22c0.733-0.022 1.427-0.163 2.072-0.403l-0.045 0.015c0.424-0.17 0.774-0.449 1.026-0.802l0.005-0.007c0.293-0.345 0.51-0.765 0.617-1.227l0.004-0.020c0.115-0.483 0.181-1.038 0.181-1.608 0-0.023-0-0.046-0-0.069l0 0.003zM49.149 31.919l-1.265 0.019 0.020-10.604 1.205-0.025zM57.411 21.302c0.014-0 0.032-0 0.049-0 0.695 0 1.358 0.143 1.958 0.401l-0.032-0.012c0.609 0.26 1.126 0.624 1.553 1.076l0.002 0.002c0.437 0.469 0.786 1.028 1.014 1.645l0.011 0.034c0.233 0.647 0.368 1.393 0.368 2.172s-0.135 1.525-0.383 2.218l0.014-0.046c-0.239 0.652-0.584 1.213-1.018 1.69l0.004-0.004c-0.427 0.46-0.945 0.829-1.527 1.079l-0.029 0.011c-0.57 0.25-1.234 0.395-1.933 0.395-0.019 0-0.038-0-0.058-0l0.003 0c-0.015 0-0.032 0-0.050 0-0.698 0-1.363-0.143-1.967-0.401l0.033 0.012c-0.612-0.261-1.132-0.63-1.559-1.088l-0.002-0.003c-0.436-0.469-0.783-1.028-1.009-1.646l-0.011-0.034c-0.232-0.651-0.366-1.402-0.366-2.184s0.134-1.533 0.38-2.231l-0.014 0.047c0.242-0.649 0.591-1.206 1.032-1.676l-0.002 0.003c0.431-0.454 0.95-0.818 1.531-1.067l0.030-0.011c0.572-0.242 1.238-0.382 1.936-0.382 0.015 0 0.030 0 0.046 0l-0.002-0zM57.404 30.79c0.012 0 0.025 0 0.039 0 0.497 0 0.97-0.104 1.397-0.291l-0.022 0.009c0.441-0.192 0.814-0.469 1.112-0.811l0.003-0.004c0.317-0.37 0.567-0.809 0.723-1.289l0.008-0.027c0.167-0.525 0.263-1.129 0.263-1.755s-0.096-1.23-0.275-1.797l0.011 0.042c-0.164-0.501-0.413-0.933-0.734-1.302l0.004 0.004c-0.298-0.345-0.668-0.619-1.087-0.801l-0.020-0.008c-0.401-0.178-0.868-0.282-1.36-0.282-0.012 0-0.023 0-0.035 0h0.002c-0.010-0-0.023-0-0.035-0-0.5 0-0.975 0.104-1.406 0.291l0.023-0.009c-0.442 0.195-0.816 0.471-1.118 0.811l-0.003 0.003c-0.318 0.366-0.569 0.801-0.728 1.277l-0.008 0.027c-0.165 0.494-0.261 1.063-0.261 1.654 0 0.031 0 0.062 0.001 0.093l-0-0.005c-0 0.025-0.001 0.054-0.001 0.084 0 0.597 0.094 1.172 0.268 1.711l-0.011-0.039c0.163 0.507 0.412 0.946 0.732 1.321l-0.004-0.005c0.301 0.345 0.671 0.621 1.091 0.807l0.020 0.008c0.405 0.178 0.876 0.282 1.373 0.282 0.015 0 0.029-0 0.044-0l-0.002 0z"></path>
</svg>
