<!-- Generated by IcoMoon.io -->
<svg version="1.1" xmlns="http://www.w3.org/2000/svg" width="134" height="32" viewBox="0 0 134 32">
<title>logo-moonpic</title>
<path fill="#707070" d="M49.248 7.836c-0.619-0.388-1.344-0.674-2.12-0.815l-0.037-0.006c-0.737 0.126-1.397 0.375-1.987 0.728l0.026-0.014c-1.049 0.377-1.93 1.004-2.601 1.812l-0.008 0.010c-0.406-0.539-0.896-0.99-1.454-1.341l-0.022-0.013c-0.775-0.612-1.727-1.034-2.768-1.178l-0.030-0.003c-1.36 0.096-2.572 0.663-3.489 1.537l0.002-0.002v-0.312l0.049-0.394-0.73 0.025-1.813-0.025-0.681 0.098 0.049 0.599-0.025 13.161 0.049 0.894 0.451 0.033 2.018-0.049 0.738-0.025v-0.985l0.049-7.967c-0.014-0.109-0.022-0.236-0.022-0.364 0-0.762 0.285-1.458 0.755-1.986l-0.003 0.003c0.521-0.499 1.23-0.806 2.010-0.806 0.038 0 0.075 0.001 0.112 0.002l-0.005-0c0.029-0.001 0.064-0.002 0.099-0.002 0.719 0 1.367 0.307 1.82 0.796l0.002 0.002c0.58 0.585 0.945 1.384 0.968 2.268l0 0.004 0.049 8.025v1.009l0.377 0.049 2.018-0.025h0.804v-1.058l-0.148-7.943c-0.004-0.055-0.006-0.12-0.006-0.185 0-0.836 0.341-1.592 0.892-2.137l0-0c0.521-0.499 1.23-0.806 2.010-0.806 0.038 0 0.075 0.001 0.112 0.002l-0.005-0c0.026-0.001 0.058-0.002 0.089-0.002 0.722 0 1.373 0.306 1.83 0.796l0.001 0.002c0.586 0.593 0.959 1.399 0.993 2.291l0 0.006-0.025 7.975v0.96l0.041 0.049 2.478 0.049 0.837 0.049-0.057-1.469-0.049-7.819c-0.015-1.674-0.717-3.181-1.836-4.257l-0.002-0.002c-0.501-0.52-1.101-0.941-1.77-1.233l-0.036-0.014zM60.817 6.991c-4.020 0.572-7.076 3.99-7.076 8.123 0 1.915 0.656 3.676 1.756 5.072l-0.013-0.017c1.315 1.488 3.227 2.421 5.358 2.421s4.043-0.933 5.351-2.414l0.007-0.008c1.288-1.395 1.485-3.225 1.485-5.342s-0.197-3.84-1.485-5.235c-1.319-1.526-3.227-2.512-5.368-2.601l-0.015-0zM63.804 18.043c-0.75 0.779-1.801 1.264-2.966 1.264s-2.217-0.484-2.965-1.262l-0.001-0.001c-0.714-0.837-1.625-1.822-1.625-3.11s0.911-2.38 1.633-3.216c0.687-0.88 1.746-1.441 2.937-1.444h0.001c1.208 0.004 2.283 0.567 2.981 1.444l0.006 0.008c0.832 0.822 1.377 1.931 1.476 3.166l0.001 0.018c-0.104 1.236-0.649 2.329-1.476 3.133l-0.001 0.001zM76.284 6.991c-2.15 0.089-4.053 1.075-5.358 2.591l-0.008 0.010c-1.288 1.395-1.559 3.167-1.559 5.284s0.271 3.897 1.567 5.292c1.314 1.475 3.214 2.404 5.33 2.421l0.003 0c2.135-0.018 4.049-0.946 5.377-2.414l0.006-0.006c1.288-1.395 1.633-3.143 1.633-5.259s-0.345-3.922-1.633-5.317c-1.31-1.526-3.21-2.512-5.343-2.601l-0.015-0zM79.246 18.043c-0.75 0.779-1.801 1.264-2.966 1.264s-2.217-0.484-2.965-1.262l-0.001-0.001c-0.842-0.814-1.401-1.916-1.516-3.147l-0.002-0.020c0.116-1.25 0.679-2.351 1.524-3.157l0.002-0.002c0.701-0.869 1.766-1.42 2.959-1.42 1.197 0 2.264 0.554 2.96 1.42l0.006 0.007c0.714 0.829 1.6 1.854 1.6 3.151s-0.886 2.33-1.6 3.167zM93.982 7.811c-0.734-0.402-1.591-0.684-2.502-0.793l-0.034-0.003c-1.050 0.13-1.986 0.542-2.751 1.157l0.011-0.008c-0.188 0.174-0.36 0.359-0.517 0.556l-0.008 0.010 0.057-1.698-0.082-0.033-0.755 0.025h-1.666l-0.73 0.049-0.049 1.698 0.025 12.956-0.049 0.829 0.96 0.025 1.428-0.025h0.812l0.049-1.058 0.025-7.606c0-1.017 0.025-1.854 0.681-2.494 0.622-0.652 1.486-1.067 2.447-1.099l0.006-0c0.899 0.023 1.7 0.423 2.254 1.047l0.003 0.003c0.687 0.623 1.134 1.502 1.189 2.485l0 0.010v7.787l0.025 0.927 0.008 0.025 2.486-0.074 0.779 0.025 0.025-1.395-0.025-7.811c0-1.936-0.96-3.061-2.174-4.242-0.529-0.547-1.172-0.979-1.892-1.259l-0.036-0.012zM106.479 7.015c-1.658 0.101-3.144 0.762-4.289 1.794l0.006-0.006-0.057-0.673 0.033-1.083-0.509-0.025h-2.773v20.537l0.779-0.025 2.125-0.049 0.32 0.025 0.025-0.927-0.025-5.62c1.136 0.973 2.61 1.579 4.224 1.624l0.009 0c0.003 0 0.006 0 0.009 0 2.114 0 4.009-0.938 5.292-2.42l0.007-0.009c1.238-1.402 1.994-3.255 1.994-5.285 0-2.025-0.753-3.875-1.993-5.284l0.008 0.009c-1.245-1.518-3.093-2.502-5.172-2.584l-0.014-0zM103.246 18.043c-0.661-0.869-1.058-1.97-1.058-3.163s0.398-2.294 1.068-3.176l-0.009 0.013c0.7-0.879 1.769-1.439 2.969-1.444h0.001c1.218 0.023 2.3 0.584 3.022 1.454l0.005 0.007c0.69 0.853 1.108 1.951 1.108 3.147s-0.418 2.294-1.115 3.156l0.007-0.009c-0.71 0.789-1.734 1.283-2.874 1.283-0.054 0-0.108-0.001-0.161-0.003l0.008 0c-0.059 0.003-0.128 0.005-0.197 0.005-1.106 0-2.097-0.49-2.769-1.264l-0.004-0.005zM115.939 7.844l-0.599-0.025-0.025 2.059 0.025 11.257-0.025 0.599 0.599 0.049 1.378 0.025 0.451-0.049v-13.867l-0.139-0.074zM115.808 2.905h-0.476v3.282l0.451-0.025 1.362 0.074 0.656-0.025-0.082-1.034 0.033-1.805v-0.369l-0.049-0.025zM131.086 16.886l-0.615 0.025v0.213c-0.257 0.652-0.685 1.191-1.228 1.576l-0.011 0.007c-0.513 0.375-1.157 0.6-1.853 0.6-0.024 0-0.047-0-0.071-0.001l0.004 0c-0.074 0.005-0.161 0.008-0.249 0.008-1.178 0-2.24-0.494-2.991-1.286l-0.002-0.002c-0.853-0.783-1.385-1.902-1.385-3.147s0.533-2.364 1.382-3.144l0.003-0.003c0.358-0.396 0.796-0.713 1.289-0.926l0.024-0.009c0.528-0.219 1.142-0.347 1.785-0.347 0.050 0 0.1 0.001 0.15 0.002l-0.007-0c0.023-0.001 0.051-0.001 0.078-0.001 0.692 0 1.332 0.225 1.85 0.606l-0.009-0.006c0.554 0.393 0.982 0.931 1.231 1.56l0.008 0.023 0.082 0.164 0.476-0.025h2.207l0.829-0.025-0.222-0.525c-0.453-1.438-1.33-2.634-2.483-3.474l-0.019-0.013c-1.239-0.994-2.8-1.634-4.505-1.746l-0.024-0.001c-2.101 0.095-3.954 1.082-5.201 2.589l-0.010 0.012c-1.358 1.35-2.199 3.219-2.199 5.284 0 2.070 0.844 3.942 2.207 5.292l0.001 0.001c1.297 1.464 3.178 2.385 5.274 2.396h0.002c1.688-0.038 3.235-0.615 4.482-1.564l-0.019 0.014c1.169-0.852 2.043-2.044 2.481-3.431l0.013-0.048 0.328-0.648-0.935-0.057zM107.874 30.318c-0.218 0.276-0.551 0.454-0.926 0.459h-0.001c-0.007 0-0.016 0-0.025 0-0.2 0-0.388-0.046-0.557-0.127l0.008 0.003c-0.167-0.082-0.307-0.195-0.417-0.334l-0.002-0.003c-0.118-0.145-0.209-0.318-0.26-0.507l-0.002-0.010c-0.052-0.19-0.082-0.408-0.082-0.634 0-0.014 0-0.027 0-0.041l-0 0.002c-0-0.012-0-0.026-0-0.040 0-0.241 0.039-0.473 0.111-0.689l-0.004 0.015c0.061-0.206 0.159-0.384 0.289-0.535l-0.002 0.002c0.119-0.142 0.263-0.258 0.427-0.341l0.008-0.004c0.157-0.073 0.342-0.115 0.536-0.115 0.002 0 0.004 0 0.006 0h-0c0.007-0 0.015-0 0.023-0 0.166 0 0.324 0.030 0.47 0.085l-0.009-0.003c0.158 0.059 0.294 0.139 0.412 0.24l-0.002-0.002v-1.46h0.574v4.414h-0.574v-0.377zM107.874 29.776v-1.518c-0.214-0.235-0.52-0.383-0.861-0.386h-0.001c-0.006-0-0.013-0-0.020-0-0.239 0-0.448 0.123-0.569 0.309l-0.002 0.003c-0.142 0.237-0.226 0.523-0.226 0.829 0 0.040 0.001 0.081 0.004 0.12l-0-0.005c-0.002 0.029-0.003 0.062-0.003 0.096 0 0.294 0.080 0.57 0.22 0.805l-0.004-0.007c0.117 0.184 0.32 0.304 0.551 0.304 0.008 0 0.016-0 0.024-0l-0.001 0c0.004 0 0.010 0 0.015 0 0.166 0 0.32-0.052 0.447-0.141l-0.002 0.002c0.169-0.11 0.311-0.247 0.423-0.405l0.003-0.005zM113.166 30.777c-0.003 0-0.007 0-0.011 0-0.229 0-0.448-0.042-0.649-0.119l0.013 0.004c-0.195-0.078-0.362-0.189-0.501-0.328l0 0c-0.135-0.148-0.243-0.322-0.316-0.514l-0.004-0.011c-0.073-0.206-0.115-0.444-0.115-0.691 0-0.008 0-0.016 0-0.024v0.001c-0-0.005-0-0.011-0-0.017 0-0.244 0.042-0.478 0.119-0.695l-0.004 0.014c0.072-0.203 0.178-0.378 0.313-0.526l-0.001 0.001c0.129-0.143 0.288-0.257 0.467-0.333l0.009-0.003c0.181-0.073 0.39-0.115 0.61-0.115 0.002 0 0.004 0 0.006 0h-0c0.005-0 0.011-0 0.017-0 0.221 0 0.432 0.042 0.626 0.119l-0.011-0.004c0.19 0.076 0.352 0.188 0.483 0.328l0.001 0.001c0.13 0.148 0.233 0.323 0.3 0.514l0.003 0.011c0.068 0.197 0.107 0.424 0.107 0.661 0 0.016-0 0.032-0.001 0.047l0-0.002v0.14h-2.437c0.004 0.175 0.040 0.341 0.102 0.494l-0.003-0.009c0.050 0.13 0.119 0.242 0.206 0.337l-0.001-0.001c0.085 0.085 0.185 0.155 0.297 0.203l0.006 0.002c0.11 0.041 0.237 0.065 0.369 0.066h0c0.103-0.002 0.201-0.017 0.295-0.043l-0.008 0.002c0.096-0.024 0.181-0.061 0.258-0.109l-0.004 0.002c0.070-0.050 0.13-0.11 0.179-0.178l0.002-0.002c0.046-0.071 0.074-0.157 0.074-0.25 0-0.002 0-0.003-0-0.005v0h0.607c-0.022 0.166-0.078 0.316-0.159 0.448l0.003-0.005c-0.086 0.124-0.186 0.229-0.3 0.318l-0.003 0.002c-0.122 0.086-0.264 0.153-0.417 0.195l-0.009 0.002c-0.152 0.047-0.327 0.074-0.509 0.074-0.003 0-0.006 0-0.009-0h0zM114.019 28.784c-0.028-0.267-0.145-0.503-0.32-0.681l0 0c-0.159-0.143-0.37-0.23-0.602-0.23-0.114 0-0.223 0.021-0.323 0.060l0.006-0.002c-0.106 0.033-0.197 0.090-0.271 0.164l-0 0c-0.082 0.082-0.15 0.176-0.202 0.281l-0.003 0.006c-0.050 0.116-0.090 0.251-0.113 0.392l-0.001 0.010h1.83zM118.54 30.777c-0.878 0-1.337-0.345-1.387-1.034h0.574c0 0.386 0.271 0.583 0.804 0.583 0.002 0 0.005 0 0.007 0 0.111 0 0.219-0.015 0.321-0.043l-0.008 0.002c0.088-0.020 0.165-0.057 0.231-0.108l-0.001 0.001c0.057-0.042 0.103-0.094 0.138-0.154l0.001-0.002c0.031-0.059 0.049-0.129 0.049-0.203 0-0.001 0-0.001 0-0.002v0c0-0 0-0.001 0-0.001 0-0.064-0.012-0.126-0.034-0.183l0.001 0.003c-0.034-0.056-0.085-0.1-0.146-0.122l-0.002-0.001c-0.080-0.044-0.173-0.081-0.271-0.105l-0.008-0.002c-0.123-0.041-0.287-0.082-0.484-0.131s-0.353-0.098-0.492-0.14c-0.131-0.044-0.246-0.103-0.349-0.175l0.004 0.003c-0.086-0.062-0.154-0.145-0.195-0.242l-0.001-0.004c-0.042-0.104-0.066-0.224-0.066-0.349 0-0.007 0-0.014 0-0.021l-0 0.001c-0-0.004-0-0.009-0-0.014 0-0.129 0.030-0.252 0.084-0.36l-0.002 0.005c0.060-0.118 0.143-0.217 0.244-0.294l0.002-0.002c0.107-0.083 0.233-0.148 0.37-0.187l0.008-0.002c0.146-0.047 0.313-0.074 0.487-0.074 0.005 0 0.010 0 0.014 0h-0.001c0.853 0 1.288 0.304 1.296 0.894h-0.566c-0.025-0.295-0.246-0.443-0.681-0.443-0.003-0-0.007-0-0.011-0-0.092 0-0.182 0.009-0.269 0.026l0.009-0.001c-0.084 0.019-0.158 0.047-0.226 0.084l0.005-0.002c-0.056 0.033-0.103 0.078-0.139 0.13l-0.001 0.002c-0.031 0.051-0.049 0.113-0.049 0.179 0 0 0 0.001 0 0.001v-0c-0 0.005-0 0.010-0 0.015 0 0.050 0.009 0.099 0.026 0.144l-0.001-0.003c0.023 0.052 0.063 0.092 0.113 0.114l0.001 0.001c0.075 0.039 0.162 0.073 0.254 0.096l0.009 0.002c0.115 0.033 0.279 0.074 0.484 0.123s0.361 0.098 0.509 0.148c0.138 0.047 0.257 0.108 0.366 0.184l-0.005-0.003c0.092 0.067 0.165 0.155 0.212 0.259l0.002 0.004c0.042 0.101 0.067 0.218 0.067 0.341 0 0.016-0 0.032-0.001 0.047l0-0.002c0 0.006 0 0.013 0 0.020 0 0.138-0.030 0.27-0.085 0.388l0.002-0.006c-0.069 0.125-0.157 0.231-0.261 0.319l-0.002 0.001c-0.116 0.093-0.253 0.166-0.402 0.211l-0.009 0.002c-0.151 0.052-0.325 0.082-0.507 0.082-0.012 0-0.025-0-0.037-0l0.002 0zM123.012 26.896h-0.566v-0.615h0.566v0.615zM123.012 30.695h-0.566v-3.192h0.566v3.192zM128.706 30.449c0.014 0.073 0.023 0.157 0.023 0.244 0 0.725-0.588 1.313-1.313 1.313-0.043 0-0.085-0.002-0.127-0.006l0.005 0c-0.007 0-0.016 0-0.025 0-0.187 0-0.367-0.027-0.538-0.077l0.013 0.003c-0.159-0.039-0.299-0.104-0.422-0.191l0.004 0.003c-0.11-0.079-0.199-0.181-0.26-0.299l-0.002-0.005c-0.057-0.12-0.090-0.26-0.090-0.408 0-0.001 0-0.001 0-0.002v0h0.599c0 0.353 0.23 0.533 0.706 0.533 0.129-0.001 0.253-0.022 0.37-0.060l-0.009 0.002c0.109-0.030 0.202-0.090 0.27-0.172l0.001-0.001c0.076-0.092 0.133-0.202 0.163-0.323l0.001-0.006c0.037-0.14 0.058-0.301 0.058-0.467 0-0.020-0-0.041-0.001-0.061l0 0.003v-0.156c-0.218 0.276-0.551 0.454-0.926 0.459h-0.001c-0.009 0-0.020 0-0.030 0-0.198 0-0.385-0.046-0.552-0.127l0.007 0.003c-0.167-0.082-0.307-0.195-0.417-0.334l-0.002-0.003c-0.118-0.145-0.209-0.318-0.26-0.507l-0.002-0.010c-0.052-0.19-0.082-0.408-0.082-0.634 0-0.014 0-0.027 0-0.041l-0 0.002c-0-0.012-0-0.026-0-0.040 0-0.241 0.039-0.473 0.111-0.689l-0.004 0.015c0.061-0.206 0.159-0.384 0.289-0.535l-0.002 0.002c0.119-0.142 0.263-0.258 0.427-0.341l0.008-0.004c0.157-0.073 0.342-0.115 0.536-0.115 0.002 0 0.004 0 0.006 0h-0c0.007-0 0.015-0 0.023-0 0.166 0 0.324 0.030 0.47 0.085l-0.009-0.003c0.157 0.061 0.293 0.141 0.413 0.24l-0.003-0.002v-0.238h0.574v2.946zM128.132 29.776v-1.518c-0.215-0.234-0.521-0.381-0.861-0.386h-0.001c-0.006-0-0.013-0-0.020-0-0.239 0-0.448 0.123-0.569 0.309l-0.002 0.003c-0.137 0.235-0.218 0.517-0.218 0.818 0 0.044 0.002 0.088 0.005 0.132l-0-0.006c-0.002 0.032-0.004 0.070-0.004 0.108 0 0.289 0.078 0.561 0.213 0.794l-0.004-0.008c0.117 0.184 0.32 0.304 0.551 0.304 0.008 0 0.016-0 0.024-0l-0.001 0c0.003 0 0.006 0 0.010 0 0.171 0 0.329-0.052 0.461-0.141l-0.003 0.002c0.165-0.112 0.303-0.249 0.415-0.405l0.003-0.005zM131.989 27.906c0.121-0.151 0.272-0.272 0.444-0.358l0.008-0.003c0.148-0.077 0.323-0.122 0.508-0.123h0c0.032-0.004 0.070-0.006 0.108-0.006 0.556 0 1.008 0.451 1.008 1.008 0 0.064-0.006 0.126-0.017 0.186l0.001-0.006v2.092h-0.583v-2.059c0-0.011 0-0.023 0-0.036 0-0.109-0.012-0.216-0.035-0.318l0.002 0.010c-0.022-0.088-0.059-0.164-0.108-0.232l0.001 0.002c-0.047-0.056-0.108-0.099-0.178-0.122l-0.003-0.001c-0.083-0.026-0.178-0.041-0.276-0.041-0.001 0-0.002 0-0.003 0h0c-0.364 0.034-0.678 0.225-0.875 0.505l-0.003 0.004v2.289h-0.574v-3.192h0.574v0.402zM7.41 23.902c0.302 0.040 0.652 0.063 1.007 0.063 3.443 0 6.381-2.157 7.539-5.193l0.019-0.055c0.017-0.041 0.033-0.090 0.049-0.14-0.003-0-0.007-0-0.011-0-0.019 0-0.037 0.003-0.054 0.009l0.001-0c-0.434 0.154-0.935 0.244-1.457 0.244-2.474 0-4.479-2.005-4.479-4.479 0-0.471 0.073-0.925 0.207-1.351l-0.009 0.032c0.069-4.144 2.985-7.589 6.874-8.465l0.059-0.011c1.168-0.279 2.509-0.44 3.887-0.443h0.002c1.484 0.001 2.923 0.19 4.296 0.543l-0.119-0.026c-2.665-2.851-6.448-4.628-10.647-4.628-7.968 0-14.441 6.4-14.559 14.34l-0 0.011c0 0.002 0 0.005 0 0.007 0 3.092 0.992 5.952 2.674 8.281l-0.029-0.042c0.37 0.164 0.748 0.32 1.132 0.459 1.046 0.384 2.27 0.68 3.537 0.837l0.082 0.008zM24.079 12.702c-1.496-1.9-3.797-3.109-6.38-3.109-0.853 0-1.675 0.132-2.447 0.376l0.057-0.016c1.162 0.201 2.151 0.822 2.827 1.696l0.008 0.010c0.159 0.123 0.323 0.246 0.473 0.377 1.766 1.607 2.869 3.914 2.869 6.479 0 1.611-0.436 3.121-1.196 4.418l0.022-0.041c-0.691 1.18-1.456 2.202-2.322 3.128l0.009-0.010c-0.937 1.006-1.983 1.892-3.124 2.643l-0.064 0.040c5.441-0.086 10.147-3.149 12.569-7.628l0.038-0.077c-0.2-1.9-0.7-3.639-1.453-5.235l0.042 0.098c-0.563-1.202-1.207-2.236-1.958-3.184l0.025 0.033zM26.204 5.793c-1.539-0.525-3.313-0.829-5.157-0.829-0.001 0-0.003 0-0.004 0h0c-1.311 0.003-2.584 0.155-3.806 0.441l0.114-0.022c-2.958 0.67-5.263 2.91-6.016 5.778l-0.012 0.056c0.361-0.362 0.784-0.662 1.252-0.883l0.027-0.012c0.396-0.277 0.849-0.537 1.324-0.757l0.055-0.023c1.091-0.508 2.369-0.804 3.715-0.804 2.864 0 5.415 1.34 7.061 3.427l0.015 0.019c0.753 0.96 1.428 2.046 1.981 3.201l0.046 0.106c0.556 1.168 1.002 2.526 1.271 3.947l0.017 0.106c0.623-1.529 0.985-3.304 0.985-5.162 0-0.011 0-0.022-0-0.033v0.002c0-0.001 0-0.002 0-0.002 0-3.229-1.079-6.206-2.896-8.59l0.025 0.035zM17.366 25.436c0.812-0.87 1.538-1.841 2.15-2.885l0.042-0.077c0.672-1.134 1.068-2.499 1.068-3.957 0-1.8-0.605-3.459-1.623-4.784l0.014 0.019c0.028 0.179 0.045 0.386 0.046 0.598v0.001c-0.002 1.457-0.71 2.749-1.8 3.552l-0.012 0.009c-0.058 0.057-0.121 0.107-0.184 0.164-0.093 0.38-0.191 0.692-0.305 0.996l0.020-0.061c-1.302 3.42-4.554 5.805-8.362 5.805-0.392 0-0.779-0.025-1.158-0.074l0.045 0.005c-1.335-0.161-2.545-0.449-3.699-0.857l0.12 0.037c2.396 2.628 5.724 4.371 9.457 4.706l0.056 0.004c1.588-0.878 2.946-1.943 4.112-3.191l0.009-0.009z"></path>
</svg>
