<!-- Generated by IcoMoon.io -->
<svg version="1.1" xmlns="http://www.w3.org/2000/svg" width="106" height="32" viewBox="0 0 106 32">
<title>logo-jupiter</title>
<path fill="#707070" d="M35.139 0.008h-5.041l-0.098 0.488-2.621 13.023c-0.129 0.711-0.322 1.343-0.579 1.941l0.022-0.058c-0.2 0.454-0.465 0.843-0.789 1.175l0.001-0.001c-0.288 0.278-0.637 0.495-1.025 0.627l-0.019 0.006c-0.417 0.131-0.897 0.206-1.395 0.206-0.027 0-0.053-0-0.080-0.001l0.004 0c-0.026 0.001-0.057 0.001-0.087 0.001-0.38 0-0.748-0.050-1.098-0.145l0.029 0.007c-0.241-0.062-0.449-0.179-0.619-0.336l0.001 0.001c-0.148-0.153-0.262-0.339-0.329-0.547l-0.003-0.010c-0.078-0.261-0.123-0.561-0.123-0.871 0-0.021 0-0.042 0.001-0.062l-0 0.003c0.010-0.559 0.071-1.098 0.179-1.619l-0.010 0.056 2.622-13.152 0.145-0.732h-5.025l-0.097 0.488-2.605 13.053c-0.167 0.696-0.267 1.497-0.275 2.32l-0 0.005c-0 0.026-0.001 0.057-0.001 0.087 0 0.817 0.134 1.602 0.38 2.336l-0.015-0.052c0.261 0.763 0.694 1.41 1.254 1.918l0.004 0.003c0.61 0.534 1.342 0.945 2.147 1.186l0.041 0.011c0.852 0.252 1.831 0.398 2.844 0.398 0.057 0 0.115-0 0.172-0.001l-0.009 0c0.033 0 0.072 0.001 0.112 0.001 1.169 0 2.298-0.17 3.365-0.487l-0.083 0.021c1.063-0.323 1.984-0.83 2.772-1.489l-0.012 0.010c0.808-0.692 1.472-1.524 1.961-2.463l0.022-0.046c0.52-1.013 0.929-2.188 1.168-3.424l0.013-0.084 2.633-13.061zM17.298 0.008h-12.352l-0.098 0.488-0.631 3.134-0.145 0.732h7.288l-1.934 9.614c-0.118 0.622-0.318 1.177-0.59 1.686l0.015-0.031c-0.211 0.39-0.478 0.721-0.796 0.995l-0.004 0.004c-0.262 0.223-0.569 0.402-0.906 0.52l-0.020 0.006c-0.266 0.098-0.573 0.158-0.892 0.168l-0.004 0c-0.009 0-0.020 0-0.031 0-0.314 0-0.619-0.039-0.91-0.112l0.026 0.005c-0.54-0.145-1.012-0.387-1.417-0.708l0.008 0.006c-0.202-0.159-0.383-0.324-0.551-0.501l-0.002-0.002-0.483-0.503-0.434 0.549-2.11 2.684-0.321 0.412 0.353 0.381c0.329 0.347 0.695 0.653 1.093 0.916l0.023 0.014c0.385 0.245 0.828 0.473 1.293 0.659l0.055 0.019c0.426 0.17 0.931 0.316 1.452 0.412l0.050 0.008c0.488 0.096 1.050 0.152 1.624 0.152h0.001c0.038 0.001 0.082 0.001 0.127 0.001 1.079 0 2.116-0.185 3.079-0.524l-0.065 0.020c0.943-0.332 1.758-0.798 2.471-1.384l-0.014 0.011c0.693-0.583 1.276-1.268 1.733-2.037l0.020-0.037c0.442-0.742 0.782-1.605 0.972-2.523l0.009-0.054 2.864-14.448zM50.761 5.749c0-0.003 0-0.006 0-0.009 0-0.769-0.152-1.502-0.427-2.171l0.014 0.038c-0.312-0.75-0.778-1.381-1.362-1.877l-0.007-0.006c-0.674-0.555-1.473-0.986-2.346-1.246l-0.048-0.012c-0.98-0.292-2.105-0.46-3.27-0.46-0.077 0-0.154 0.001-0.231 0.002l0.011-0h-6.215l-0.098 0.488-4.187 20.906h5.032l0.098-0.488 1.184-5.993h1.627c0.074 0.002 0.161 0.003 0.249 0.003 1.52 0 2.975-0.278 4.317-0.785l-0.084 0.028c1.247-0.475 2.314-1.166 3.204-2.037l-0.002 0.002c0.818-0.814 1.466-1.798 1.887-2.894l0.019-0.056c0.396-1.012 0.625-2.184 0.625-3.409 0-0.008 0-0.015-0-0.023v0.001zM45.211 7.983c-0.217 0.521-0.517 0.967-0.887 1.342l0-0.001c-0.388 0.378-0.851 0.683-1.363 0.89l-0.028 0.010c-0.534 0.213-1.153 0.336-1.8 0.336-0.025 0-0.050-0-0.074-0.001l0.004 0h-1.296l1.25-6.183h1.619c0.047-0.001 0.103-0.002 0.159-0.002 0.502 0 0.989 0.068 1.451 0.194l-0.038-0.009c0.323 0.095 0.603 0.247 0.843 0.445l-0.004-0.003c0.165 0.147 0.291 0.335 0.363 0.548l0.003 0.009c0.074 0.228 0.117 0.49 0.117 0.762 0 0.003 0 0.005 0 0.008v-0c0 0.004 0 0.008 0 0.013 0 0.592-0.119 1.156-0.335 1.67l0.011-0.028zM104.388 9.599c0.502-0.594 0.906-1.29 1.174-2.051l0.014-0.046c0.256-0.729 0.404-1.569 0.404-2.443 0-0.015-0-0.030-0-0.045v0.002c0.001-0.037 0.002-0.081 0.002-0.125 0-0.802-0.192-1.559-0.534-2.228l0.013 0.028c-0.358-0.657-0.863-1.192-1.474-1.576l-0.018-0.010c-0.634-0.389-1.373-0.683-2.162-0.839l-0.043-0.007c-0.786-0.16-1.69-0.252-2.615-0.252-0.039 0-0.078 0-0.117 0.001l0.006-0h-6.275l-0.097 0.488-4.187 20.906h5.028l0.097-0.488 1.553-7.861h0.088c0.012-0 0.026-0 0.041-0 0.284 0 0.559 0.039 0.819 0.112l-0.021-0.005c0.22 0.077 0.407 0.2 0.557 0.358l0.001 0.001c0.217 0.237 0.395 0.515 0.518 0.82l0.007 0.018c0.188 0.438 0.354 0.958 0.473 1.495l0.011 0.060 1.234 5.032 0.113 0.457h5.541l-1.603-5.779c-0.198-0.679-0.393-1.273-0.576-1.777-0.191-0.526-0.391-0.966-0.619-1.389l0.027 0.054c-0.171-0.307-0.353-0.571-0.557-0.817l0.007 0.009c0.495-0.159 0.92-0.348 1.321-0.575l-0.035 0.018c0.733-0.412 1.356-0.929 1.871-1.538l0.008-0.010zM100.492 7.129c-0.184 0.372-0.444 0.681-0.761 0.918l-0.007 0.005c-0.368 0.273-0.801 0.481-1.271 0.597l-0.025 0.005c-0.527 0.141-1.132 0.221-1.756 0.221-0.024 0-0.048-0-0.072-0l0.004 0h-0.602l0.895-4.483h1.339c0.102-0.010 0.221-0.016 0.34-0.016 0.623 0 1.211 0.152 1.727 0.422l-0.021-0.010c0.294 0.201 0.485 0.536 0.485 0.915 0 0.048-0.003 0.096-0.009 0.143l0.001-0.006c0 0.013 0 0.029 0 0.044 0 0.452-0.102 0.879-0.283 1.262l0.008-0.018zM52.801 4.346l-2.563 12.725-0.903 4.331h5.108l0.884-4.331 2.546-12.725 0.939-4.338h-5.152zM89.142 8.959l0.139-0.717h-5.261l-0.137 0.717-0.601 3.134-0.095 0.496h5.261l0.095-0.496zM80.55 12.588l0.846-4.346 0.772-3.805h8.258l0.1-0.488 0.661-3.21 0.153-0.732h-31.177l-0.101 0.488-0.663 3.164-0.125 0.679h5.506l-3.24 16.339-0.143 0.724h5.118l3.375-17.010h7.215l-3.259 16.286-0.146 0.732h13.35l0.096-0.496 0.632-3.21 0.143-0.724h-8.257zM16.439 31.939l0.922-4.567h1.153c0.046-0.004 0.099-0.006 0.152-0.006 0.444 0 0.854 0.142 1.189 0.383l-0.006-0.004c0.28 0.263 0.455 0.635 0.455 1.048 0 0.042-0.002 0.083-0.005 0.124l0-0.005q0 0.137-0.016 0.343c-0.016 0.169-0.041 0.32-0.073 0.467l0.005-0.025c-0.041 0.198-0.088 0.366-0.147 0.53l0.008-0.027c-0.068 0.197-0.147 0.365-0.241 0.524l0.007-0.014c-0.105 0.179-0.222 0.334-0.354 0.474l0.001-0.001c-0.141 0.15-0.302 0.279-0.479 0.383l-0.010 0.005c-0.187 0.114-0.403 0.205-0.633 0.263l-0.016 0.003c-0.234 0.063-0.502 0.1-0.779 0.1-0.019 0-0.038-0-0.057-0l0.003 0h-1.080zM19.651 28.943c0-0.009 0-0.020 0-0.032 0-0.161-0.028-0.315-0.080-0.458l0.003 0.009c-0.048-0.131-0.127-0.242-0.228-0.327l-0.001-0.001c-0.107-0.086-0.235-0.149-0.375-0.182l-0.006-0.001c-0.154-0.039-0.33-0.061-0.512-0.061-0.006 0-0.013 0-0.019 0h-0.558l-0.707 3.515h0.425c0.006 0 0.012 0 0.019 0 0.212 0 0.418-0.031 0.612-0.088l-0.015 0.004c0.183-0.055 0.343-0.13 0.488-0.225l-0.007 0.004c0.138-0.091 0.256-0.197 0.357-0.318l0.002-0.003c0.095-0.111 0.181-0.236 0.252-0.37l0.006-0.011c0.063-0.116 0.122-0.252 0.169-0.394l0.005-0.018c0.036-0.106 0.072-0.241 0.1-0.38l0.004-0.024c0.020-0.1 0.037-0.225 0.049-0.352l0.001-0.014c0.005-0.107 0.008-0.198 0.008-0.274zM26.393 31.939h-2.614l0.919-4.567h2.617l-0.109 0.518h-1.993l-0.29 1.418h1.906l-0.101 0.526h-1.906l-0.316 1.578h1.987zM33.972 27.372l-2.486 4.567h-0.839l-0.61-4.567h0.676l0.381 3.080 0.089 0.9 0.479-0.9 1.61-3.080h0.7zM38.456 31.939h-2.614l0.92-4.567h2.615l-0.108 0.518h-1.996l-0.289 1.418h1.906l-0.101 0.526h-1.906l-0.316 1.578h1.986zM44.75 31.939h-2.644l0.922-4.567h0.633l-0.816 4.041h2.011zM49.24 32.008c-0.029 0.002-0.062 0.003-0.096 0.003-0.376 0-0.716-0.156-0.957-0.407l-0-0c-0.222-0.28-0.356-0.639-0.356-1.029 0-0.038 0.001-0.075 0.004-0.112l-0 0.005c0.001-0.256 0.024-0.507 0.067-0.75l-0.004 0.026c0.045-0.274 0.111-0.518 0.2-0.75l-0.009 0.026c0.092-0.254 0.201-0.473 0.33-0.678l-0.008 0.014c0.128-0.207 0.278-0.385 0.45-0.539l0.002-0.002c0.166-0.153 0.359-0.279 0.572-0.369l0.013-0.005c0.207-0.087 0.447-0.137 0.699-0.137 0.008 0 0.016 0 0.023 0h-0.001c0.028-0.002 0.061-0.003 0.094-0.003 0.376 0 0.715 0.156 0.956 0.407l0 0c0.221 0.281 0.355 0.639 0.355 1.029 0 0.038-0.001 0.075-0.004 0.112l0-0.005c-0.001 0.259-0.024 0.513-0.066 0.759l0.004-0.027c-0.049 0.277-0.116 0.521-0.202 0.754l0.010-0.030c-0.097 0.256-0.204 0.475-0.33 0.681l0.010-0.018c-0.13 0.206-0.28 0.384-0.45 0.54l-0.002 0.002c-0.167 0.147-0.36 0.27-0.571 0.361l-0.014 0.005c-0.206 0.087-0.446 0.137-0.698 0.137-0.010 0-0.020-0-0.030-0l0.002 0zM50.931 28.889c0-0.006 0-0.013 0-0.020 0-0.144-0.017-0.285-0.048-0.419l0.002 0.012c-0.031-0.125-0.084-0.235-0.154-0.33l0.002 0.003c-0.068-0.090-0.154-0.162-0.254-0.212l-0.004-0.002c-0.109-0.048-0.236-0.076-0.369-0.076-0.004 0-0.008 0-0.013 0h0.001c-0.002 0-0.004-0-0.006-0-0.188 0-0.364 0.048-0.517 0.132l0.006-0.003c-0.158 0.095-0.294 0.209-0.409 0.341l-0.002 0.002c-0.119 0.142-0.223 0.302-0.307 0.474l-0.006 0.014c-0.075 0.152-0.148 0.333-0.207 0.521l-0.007 0.028c-0.048 0.155-0.092 0.346-0.121 0.541l-0.003 0.023c-0.024 0.149-0.039 0.323-0.041 0.501l-0 0.003c-0 0.006-0 0.012-0 0.019 0 0.145 0.017 0.286 0.050 0.42l-0.002-0.012c0.031 0.125 0.084 0.235 0.154 0.33l-0.002-0.003c0.067 0.090 0.154 0.163 0.254 0.212l0.004 0.002c0.11 0.048 0.238 0.076 0.373 0.076 0.003 0 0.006 0 0.009-0h-0c0.002 0 0.005 0 0.007 0 0.187 0 0.363-0.048 0.515-0.132l-0.005 0.003c0.162-0.090 0.299-0.205 0.411-0.341l0.002-0.002c0.121-0.139 0.225-0.297 0.306-0.468l0.005-0.013c0.076-0.154 0.148-0.338 0.207-0.529l0.007-0.028c0.048-0.155 0.092-0.346 0.121-0.541l0.003-0.023c0.019-0.138 0.030-0.296 0.030-0.458 0-0.016-0-0.032-0-0.048l0 0.002zM54.936 30.3l-0.335 1.639h-0.63l0.92-4.567h1.263c0 0 0 0 0 0 0.207 0 0.409 0.022 0.603 0.064l-0.019-0.003c0.181 0.044 0.34 0.115 0.482 0.209l-0.005-0.003c0.134 0.086 0.243 0.202 0.318 0.338l0.002 0.005c0.073 0.14 0.116 0.305 0.116 0.481 0 0.011-0 0.021-0 0.032l0-0.002c0 0.155-0.021 0.304-0.062 0.446l0.003-0.012c-0.042 0.159-0.104 0.299-0.184 0.426l0.004-0.006c-0.085 0.143-0.183 0.265-0.296 0.373l-0.001 0.001c-0.118 0.119-0.253 0.221-0.402 0.301l-0.009 0.004c-0.151 0.081-0.326 0.152-0.51 0.202l-0.018 0.004c-0.186 0.044-0.399 0.069-0.618 0.069-0.008 0-0.016-0-0.025-0h-0.603zM56.999 28.554c0.001-0.009 0.001-0.020 0.001-0.030 0-0.187-0.090-0.352-0.228-0.457l-0.001-0.001c-0.172-0.112-0.383-0.178-0.609-0.178-0.027 0-0.054 0.001-0.081 0.003l0.004-0h-0.667l-0.377 1.883h0.556c0.012 0 0.026 0 0.041 0 0.159 0 0.314-0.020 0.462-0.057l-0.013 0.003c0.14-0.038 0.263-0.090 0.377-0.156l-0.007 0.004c0.099-0.064 0.184-0.137 0.259-0.22l0.001-0.001c0.066-0.077 0.122-0.165 0.164-0.26l0.003-0.007c0.039-0.077 0.070-0.166 0.088-0.26l0.001-0.007c0.013-0.073 0.021-0.157 0.021-0.242 0-0.006-0-0.012-0-0.018v0.001zM64.059 31.939h-0.61l0.482-2.852 0.18-1.090-0.345 0.633-1.037 1.822h-0.432l-0.305-1.754-0.072-0.701-0.244 1.144-0.64 2.798h-0.591l1.144-4.567h0.713l0.275 1.715 0.076 0.587 0.319-0.587 0.991-1.715h0.794zM70.44 31.939h-2.614l0.92-4.567h2.609l-0.109 0.518h-1.982l-0.289 1.418h1.906l-0.102 0.526h-1.906l-0.316 1.578h1.987zM75.86 31.939h-0.785l-0.762-2.852-0.212-0.915-0.457 2.303-0.295 1.464h-0.584l0.924-4.567h0.778l0.727 2.699 0.25 1.045 0.491-2.447 0.264-1.296h0.584zM82.963 27.898h-1.359l-0.813 4.041h-0.632l0.81-4.041h-1.36l0.111-0.526h3.355z"></path>
</svg>
