<!-- Generated by IcoMoon.io -->
<svg version="1.1" xmlns="http://www.w3.org/2000/svg" width="32" height="32" viewBox="0 0 32 32">
<title>mail</title>
<path fill="#ffe600" d="M15.844 1c8.748 0 15.841 5.81 15.841 12.98s-7.093 12.98-15.841 12.98c-0.017 0-0.038 0-0.058 0-0.851 0-1.688-0.058-2.508-0.171l0.095 0.011c-3.4 3.44-7.463 4.050-11.391 4.14v-0.84c2.12-1.040 3.96-2.95 3.96-5.13-0-0.318-0.024-0.63-0.070-0.935l0.004 0.035c-3.445-2.123-5.739-5.825-5.873-10.071l-0-0.019c0-7.17 7.092-12.98 15.841-12.98z"></path>
</svg>
