<!-- Generated by IcoMoon.io -->
<svg version="1.1" xmlns="http://www.w3.org/2000/svg" width="32" height="32" viewBox="0 0 32 32">
<title>ok</title>
<path fill="#fff" d="M15.994 0c-8.839 0-16.005 7.166-16.005 16.005s7.166 16.005 16.005 16.005c8.839 0 16.005-7.166 16.005-16.005 0-0.003 0-0.007 0-0.011v0.001c-0.006-8.835-7.169-15.995-16.005-15.995v0zM10 15.995c0.003-3.311 2.688-5.994 5.999-5.994 3.313 0 5.999 2.686 5.999 5.999s-2.686 5.999-5.999 5.999c-0.002 0-0.004 0-0.005 0h0c0 0 0 0 0 0-3.311 0-5.994-2.684-5.994-5.994 0-0.003 0-0.007 0-0.010v0.001zM28.937 21.363v0l-5.547-2.296c0.384-0.907 0.606-1.961 0.606-3.067s-0.223-2.16-0.626-3.12l0.020 0.053 5.537-2.296c0.673 1.579 1.064 3.417 1.064 5.345 0 0.005 0 0.009 0 0.014v-0.001c0 0 0 0.001 0 0.001 0 1.935-0.387 3.78-1.088 5.461l0.035-0.094zM21.352 3.062v0l-2.296 5.547c-0.905-0.383-1.957-0.606-3.062-0.606s-2.157 0.223-3.115 0.626l0.053-0.020-1.074-2.605-1.223-2.943c1.583-0.673 3.425-1.064 5.358-1.064s3.775 0.391 5.45 1.098l-0.092-0.035zM3.061 10.637l5.541 2.296c-0.384 0.907-0.606 1.961-0.606 3.067s0.223 2.16 0.626 3.12l-0.020-0.053-5.539 2.296c-0.672-1.585-1.063-3.429-1.063-5.363s0.391-3.778 1.097-5.456l-0.035 0.092zM10.642 28.938l0.716-1.73 1.581-3.817c0.905 0.384 1.957 0.606 3.062 0.606s2.157-0.223 3.115-0.626l-0.053 0.020 2.296 5.547c-1.583 0.673-3.425 1.064-5.358 1.064s-3.775-0.391-5.45-1.098l0.092 0.035z"></path>
</svg>
