<!-- Generated by IcoMoon.io -->
<svg version="1.1" xmlns="http://www.w3.org/2000/svg" width="31" height="32" viewBox="0 0 31 32">
<title>pen</title>
<path d="M23.2 1.733l-0.907 0.933 3.387 3.413 3.387 3.387 0.987-1.013 1.013-0.987-3.333-3.333c-1.84-1.84-3.387-3.333-3.467-3.333-0.107 0-0.56 0.427-1.067 0.933z"></path>
<path d="M15.333 5.093c-2.64 0.24-4.96 0.48-5.12 0.48-0.187 0.027-0.347 0.373-0.347 0.8s-0.293 1.947-0.667 3.387c-0.987 3.973-4.4 10.613-7.947 15.547l-1.040 1.44 1.653 1.653 4-4c3.76-3.76 4-4.053 4-5.013 0-1.92 1.067-3.093 2.827-3.12 1.333 0 2.347 0.72 2.773 1.973 0.587 1.84-0.88 3.627-2.987 3.627-0.8 0-1.333 0.453-4.96 4.080l-4.080 4.080 0.773 0.72 0.773 0.747 3.307-2.213c5.947-3.973 12.32-6.8 16.32-7.28 0.827-0.107 1.52-0.213 1.547-0.24 0 0 0.24-2.373 0.507-5.227l0.507-5.2-3.387-3.413c-1.867-1.867-3.44-3.36-3.52-3.36-0.080 0.027-2.293 0.267-4.933 0.533z"></path>
</svg>
