<!-- Generated by IcoMoon.io -->
<svg version="1.1" xmlns="http://www.w3.org/2000/svg" width="32" height="32" viewBox="0 0 32 32">
<title>settings</title>
<path fill="#ffe600" d="M28.743 19.065c-0.499-0.871-0.794-1.915-0.794-3.028 0-2.24 1.193-4.201 2.978-5.284l0.027-0.015-3.079-5.447c-0.854 0.518-1.886 0.825-2.99 0.825-0.004 0-0.008 0-0.012 0h0.001c-3.301-0.045-5.96-2.731-5.96-6.039 0-0.029 0-0.059 0.001-0.088l-0 0.004h-6.158c0 0.014 0 0.032 0 0.049 0 1.112-0.296 2.154-0.812 3.053l0.016-0.030c-1.031 1.823-2.956 3.033-5.164 3.033-1.109 0-2.146-0.305-3.033-0.836l0.027 0.015-3.079 5.447c0.922 0.544 1.666 1.3 2.182 2.204l0.015 0.029c0.5 0.872 0.795 1.918 0.795 3.032 0 2.232-1.184 4.188-2.959 5.273l-0.027 0.015 3.079 5.447c0.85-0.514 1.876-0.818 2.974-0.818 0.002 0 0.004 0 0.006 0h-0c3.301 0.044 5.959 2.73 5.959 6.037 0 0.020-0 0.040-0 0.060l0-0.003h6.165c-0-0.014-0-0.031-0-0.047 0-1.102 0.296-2.136 0.812-3.025l-0.015 0.029c1.030-1.821 2.954-3.030 5.161-3.030 1.102 0 2.133 0.302 3.016 0.827l-0.027-0.015 3.086-5.447c-0.918-0.544-1.66-1.297-2.175-2.197l-0.015-0.029zM15.829 22.478c-0.040 0.001-0.086 0.001-0.133 0.001-3.581 0-6.483-2.903-6.483-6.483s2.903-6.483 6.483-6.483c3.579 0 6.481 2.901 6.483 6.479v0c0 0.020 0 0.045 0 0.069 0 3.521-2.835 6.379-6.347 6.417l-0.004 0z"></path>
</svg>
