<!-- Generated by IcoMoon.io -->
<svg version="1.1" xmlns="http://www.w3.org/2000/svg" width="32" height="32" viewBox="0 0 32 32">
<title>talk</title>
<path fill="#fff" d="M13.235 1.939v0c7.311 0 13.236 4.79 13.236 10.705s-5.925 10.715-13.236 10.715c-0.73-0.002-1.448-0.048-2.152-0.135l0.087 0.009c-2.841 2.832-6.128 3.336-9.406 3.413v-0.698c1.773-0.863 3.2-2.434 3.2-4.238-0-0.26-0.021-0.515-0.060-0.765l0.004 0.028c-2.871-1.737-4.789-4.797-4.907-8.313l-0-0.017c0-5.915 5.925-10.705 13.237-10.705zM27.463 25.949c0.071 1.635 1.087 3.017 2.514 3.617l0.027 0.010v0.601c-2.841-0.068-5.45-0.504-7.922-2.928-0.535 0.067-1.154 0.106-1.783 0.107h-0.001c-0.039 0-0.086 0.001-0.133 0.001-2.533 0-4.901-0.707-6.918-1.935l0.059 0.033c0.053 0.001 0.115 0.001 0.178 0.001 3.953 0 7.589-1.359 10.466-3.635l-0.035 0.027c1.378-1.103 2.509-2.451 3.341-3.985l0.034-0.069c0.806-1.49 1.28-3.261 1.28-5.143 0-0.002 0-0.004 0-0.006v0c0-0.014 0-0.030 0-0.047 0-0.284-0.014-0.565-0.042-0.841l0.003 0.035c1.928 1.492 3.175 3.784 3.239 6.37l0 0.010c-0.105 3.038-1.771 5.666-4.217 7.115l-0.040 0.022c-0.029 0.191-0.047 0.413-0.048 0.638v0.002z"></path>
</svg>
