<!-- Generated by IcoMoon.io -->
<svg version="1.1" xmlns="http://www.w3.org/2000/svg" width="32" height="32" viewBox="0 0 32 32">
<title>truck</title>
<path fill="#ffe600" d="M32.007 16.74l-4.238-7.858-5.724 0.021v-3.74c-0.122-1.112-1.057-1.97-2.192-1.97-0.012 0-0.024 0-0.036 0l0.002-0h-17.877c-1.066 0.027-1.921 0.898-1.921 1.968 0 0.015 0 0.031 0.001 0.046l-0-0.002-0.021 15.687 1.856 1.5 2.759 0.021c-0.383 0.698-0.631 1.519-0.689 2.393l-0.001 0.018c0 2.195 1.78 3.975 3.975 3.975s3.975-1.78 3.975-3.975v0c0.003-0.075 0.005-0.163 0.005-0.252 0-0.786-0.156-1.535-0.439-2.219l0.014 0.039 10.994 0.021c-0.371 0.7-0.604 1.524-0.64 2.399l-0 0.011c0 2.193 1.778 3.972 3.972 3.972s3.972-1.778 3.972-3.972v0c-0.017-0.88-0.228-1.707-0.591-2.445l0.015 0.034 2.83-0.021v-5.653zM22.094 15.993l-0.021-4.928 3.563-0.043 2.773 4.971h-6.315z"></path>
</svg>
