<!-- Generated by IcoMoon.io -->
<svg version="1.1" xmlns="http://www.w3.org/2000/svg" width="32" height="32" viewBox="0 0 32 32">
<title>web</title>
<path d="M4.56 3.253c-0.16 0.933-0.373 2-0.453 2.4l-0.16 0.747h21.173l-0.16 0.987c-0.107 0.56-0.32 1.467-0.453 2l-0.267 1.013-10.587 0.053-10.587 0.080-0.293 1.36c-0.16 0.773-0.373 1.813-0.48 2.347l-0.187 0.96h10.693c5.867 0 10.667 0.053 10.667 0.107 0 0.613-1.44 6.187-1.627 6.32-0.133 0.080-2.080 0.72-4.32 1.413l-4.080 1.28-3.627-1.387-3.653-1.387 0.32-2.347h-5.307l-0.48 2.96c-0.267 1.627-0.427 2.987-0.373 3.040s2.773 1.12 6.080 2.373l6.027 2.293 7.040-2.32 7.067-2.347 2.32-11.333c1.253-6.24 2.32-11.547 2.32-11.813 0.027-0.427-0.773-0.453-13.147-0.453h-13.147l-0.32 1.653z"></path>
</svg>
