<svg aria-hidden="true" style="position: absolute; width: 0; height: 0; overflow: hidden;" version="1.1" xmlns="http://www.w3.org/2000/svg" xmlns:xlink="http://www.w3.org/1999/xlink">
<defs>
<symbol id="icon-logo-half" viewBox="0 0 62 32">
<title>logo-half</title>
<path fill="#707070" style="fill: var(--color1, #707070)" d="M42.871 18.137l5.645 0.025v-17.523l-5.645 0.019v17.479zM58.315 5.158c0.297-0.098 0.638-0.155 0.992-0.155 0.116 0 0.231 0.006 0.343 0.018l-0.014-0.001c0.357 0 0.655-0.044 0.978-0.019 0.335 0.031 0.707-0.050 1.030-0.013l0.627 0.025v-4.613l-0.36-0.157c-0.379-0.080-0.84-0.144-1.309-0.179l-0.037-0.002c-0.475-0.044-1.023-0.063-1.634-0.063-2.167 0-3.814 0.595-4.893 1.761-1.059 1.147-1.141 2.338-1.141 4.631l-0.020 1.122-3.116-0.019 0.020 4.393 3.118 0.019v6.292l5.009-0.019v-6.273l3.765-0.019v-4.374h-3.765v-0.928c-0.003-1.097 0.281-1.272 0.407-1.429zM37.16 8.787c-0.814-0.551-1.767-0.969-2.792-1.199l-0.056-0.010c-1.043-0.34-2.254-0.581-3.507-0.674l-0.052-0.003c-7.234 0-8.94 3.911-9.127 6.906l-0.091 0.602 5.659-0.019v-0.627c-0.001-0.022-0.002-0.047-0.002-0.073 0-0.598 0.312-1.123 0.782-1.421l0.007-0.004c0.655-0.378 1.44-0.6 2.277-0.6 0.113 0 0.225 0.004 0.336 0.012l-0.015-0.001c1.472 0 2.15 0.32 2.488 0.614 0.327 0.257 0.896 0.495 1.003 0.978 0.020 0.202 0.032 0.437 0.032 0.674 0 0.098-0.002 0.196-0.006 0.293l0-0.014c0.006 0.201 0.013 0.595 0.021 0.821h-1.065c-3.962 0-6.87 0.414-8.892 1.579-0.863 0.501-0.802 0.834-1.322 1.542h16.892l-0.019-3.767c0.005-0.099 0.008-0.215 0.008-0.331 0-1.044-0.234-2.034-0.652-2.919l0.018 0.042c-0.4-0.994-1.064-1.812-1.907-2.389l-0.018-0.012zM11.696 6.9c-1.755 0-3.612 1.097-5.114 2.256 0-0.169-0.034-0.52-0.030-0.696 0.009-0.796-0.018-2.156-0.018-2.989l0.036-5.446h-5.689l0.007 18.137 5.64-0.013 0.004-3.729c0.637-0.659 1.377-1.213 2.195-1.638l0.047-0.022c0.585-0.319 1.279-0.51 2.017-0.52l0.003-0c0.033-0.001 0.073-0.002 0.112-0.002 0.372 0 0.731 0.058 1.068 0.165l-0.025-0.007c0.237 0.082 0.435 0.226 0.583 0.411l0.002 0.003c0.126 0.198 0.205 0.436 0.217 0.692l0 0.003c0.037 0.321 0.058 0.693 0.058 1.070 0 0.219-0.007 0.436-0.021 0.651l0.002-0.029v2.964l5.613 0.019v-3.485c0.002-5.051-2.025-7.796-6.708-7.796zM4.396 31.962c-0.031 0.001-0.067 0.001-0.103 0.001-0.642 0-1.261-0.094-1.846-0.269l0.045 0.012c-0.522-0.16-0.974-0.407-1.365-0.726l0.007 0.006c-0.349-0.3-0.628-0.67-0.817-1.090l-0.008-0.020c-0.18-0.415-0.291-0.898-0.304-1.405l-0-0.005h1.31c0.029 0.378 0.142 0.723 0.319 1.026l-0.006-0.011c0.173 0.283 0.395 0.519 0.655 0.703l0.007 0.005c0.264 0.184 0.574 0.327 0.906 0.41l0.019 0.004c0.332 0.088 0.714 0.138 1.107 0.138 0.003 0 0.006 0 0.008 0h-0c0.010 0 0.022 0 0.034 0 0.361 0 0.711-0.046 1.045-0.132l-0.029 0.006c0.306-0.074 0.576-0.195 0.815-0.357l-0.009 0.006c0.213-0.14 0.386-0.323 0.512-0.538l0.004-0.008c0.115-0.207 0.183-0.454 0.183-0.717 0-0.008-0-0.016-0-0.024v0.001c0-0.013 0.001-0.028 0.001-0.043 0-0.246-0.061-0.477-0.17-0.679l0.004 0.008c-0.134-0.218-0.318-0.392-0.538-0.51l-0.008-0.004c-0.286-0.164-0.616-0.299-0.965-0.389l-0.028-0.006c-0.409-0.119-0.912-0.238-1.504-0.363-0.581-0.126-1.081-0.279-1.562-0.468l0.068 0.023c-0.395-0.153-0.736-0.351-1.039-0.595l0.008 0.006c-0.251-0.211-0.453-0.473-0.591-0.77l-0.006-0.014c-0.123-0.284-0.194-0.614-0.194-0.961 0-0.017 0-0.034 0.001-0.050l-0 0.003c-0-0.008-0-0.017-0-0.027 0-0.411 0.098-0.798 0.273-1.141l-0.007 0.014c0.187-0.359 0.439-0.66 0.743-0.898l0.006-0.005c0.33-0.253 0.714-0.456 1.131-0.588l0.026-0.007c0.436-0.135 0.937-0.213 1.456-0.213 0.014 0 0.027 0 0.041 0h-0.002c0.012-0 0.027-0 0.042-0 0.548 0 1.077 0.078 1.578 0.223l-0.040-0.010c0.469 0.137 0.878 0.347 1.236 0.621l-0.009-0.007c0.338 0.259 0.612 0.584 0.807 0.956l0.008 0.016c0.196 0.377 0.313 0.823 0.32 1.295l0 0.002h-1.324q-0.203-1.861-2.556-1.861c-0.055-0.003-0.12-0.006-0.185-0.006-0.584 0-1.13 0.16-1.598 0.44l0.014-0.008c-0.375 0.237-0.62 0.649-0.62 1.119 0 0.010 0 0.020 0 0.030l-0-0.001c-0 0.012-0.001 0.027-0.001 0.041 0 0.188 0.042 0.365 0.118 0.524l-0.003-0.007c0.090 0.172 0.222 0.31 0.383 0.405l0.005 0.003c0.21 0.13 0.452 0.239 0.708 0.314l0.021 0.005q0.457 0.141 1.134 0.282c0.313 0.069 0.627 0.138 0.951 0.213 0.377 0.083 0.693 0.175 1.001 0.287l-0.055-0.017c0.338 0.116 0.626 0.245 0.9 0.397l-0.028-0.014c0.276 0.151 0.513 0.333 0.719 0.545l0.001 0.001c0.204 0.213 0.368 0.464 0.482 0.742l0.006 0.016c0.113 0.285 0.178 0.615 0.178 0.961 0 0.021-0 0.043-0.001 0.064l0-0.003c0 0.009 0 0.020 0 0.031 0 0.441-0.105 0.858-0.291 1.226l0.007-0.016c-0.197 0.389-0.464 0.715-0.788 0.973l-0.006 0.005c-0.345 0.274-0.747 0.493-1.183 0.638l-0.027 0.008c-0.44 0.147-0.947 0.232-1.473 0.232-0.022 0-0.044-0-0.066-0l0.003 0zM18.455 22.537l-3.154 0.019-0.019 9.382-1.243 0.056v-9.438l-3.112 0.019-0.018-1.266h7.528zM26.727 31.962c-0.039 0.001-0.084 0.001-0.13 0.001-0.533 0-1.050-0.071-1.54-0.205l0.041 0.009c-0.426-0.115-0.799-0.296-1.128-0.533l0.010 0.007c-0.287-0.206-0.525-0.463-0.702-0.759l-0.006-0.011c-0.121-0.161-0.21-0.352-0.253-0.561l-0.002-0.009c-0.090-0.368-0.157-0.803-0.187-1.248l-0.001-0.024c-0.024-0.357-0.016-0.846-0.016-1.191v-6.104l1.226-0.025v6.104c-0.001 0.047-0.002 0.103-0.002 0.159 0 0.542 0.066 1.068 0.191 1.572l-0.009-0.045c0.095 0.393 0.276 0.735 0.523 1.018l-0.002-0.003c0.219 0.239 0.505 0.413 0.828 0.493l0.012 0.002c0.341 0.084 0.732 0.132 1.135 0.132 0.412 0 0.812-0.050 1.195-0.145l-0.034 0.007c0.334-0.084 0.619-0.26 0.835-0.5l0.001-0.002c0.223-0.244 0.844-0.583 0.959-1.015 0.054-0.334 0.084-0.719 0.084-1.111 0-0.198-0.008-0.394-0.023-0.588l0.002 0.026-0.023-6.123 1.257 0.019v6.129c0.014 0.199 0.021 0.432 0.021 0.666 0 0.466-0.030 0.924-0.090 1.374l0.006-0.053c-0.224 0.529-0.546 0.977-0.949 1.338l-0.003 0.003c-0.322 0.396-0.741 0.701-1.22 0.883l-0.020 0.007c-0.54 0.196-1.162 0.31-1.812 0.31-0.060 0-0.12-0.001-0.18-0.003l0.009 0zM43.442 26.579c0 3.466-1.727 5.358-5.23 5.358l-3.498 0.019 0.020-10.667 3.596 0.019c3.505 0 5.115 1.874 5.115 5.271zM42.036 26.579c0-0.022 0-0.049 0-0.075 0-0.547-0.065-1.078-0.188-1.588l0.009 0.046c-0.113-0.472-0.328-0.884-0.621-1.226l0.003 0.004c-0.316-0.342-0.714-0.603-1.163-0.753l-0.020-0.006c-0.502-0.252-1.090-0.413-1.712-0.445l-0.011-0-2.377 0.019v8.141h2.22c0.733-0.022 1.427-0.163 2.072-0.403l-0.045 0.015c0.424-0.17 0.774-0.449 1.026-0.802l0.005-0.007c0.293-0.345 0.51-0.765 0.617-1.227l0.004-0.020c0.115-0.483 0.181-1.038 0.181-1.608 0-0.023-0-0.046-0-0.069l0 0.003zM49.149 31.919l-1.265 0.019 0.020-10.604 1.205-0.025zM57.411 21.302c0.014-0 0.032-0 0.049-0 0.695 0 1.358 0.143 1.958 0.401l-0.032-0.012c0.609 0.26 1.126 0.624 1.553 1.076l0.002 0.002c0.437 0.469 0.786 1.028 1.014 1.645l0.011 0.034c0.233 0.647 0.368 1.393 0.368 2.172s-0.135 1.525-0.383 2.218l0.014-0.046c-0.239 0.652-0.584 1.213-1.018 1.69l0.004-0.004c-0.427 0.46-0.945 0.829-1.527 1.079l-0.029 0.011c-0.57 0.25-1.234 0.395-1.933 0.395-0.019 0-0.038-0-0.058-0l0.003 0c-0.015 0-0.032 0-0.050 0-0.698 0-1.363-0.143-1.967-0.401l0.033 0.012c-0.612-0.261-1.132-0.63-1.559-1.088l-0.002-0.003c-0.436-0.469-0.783-1.028-1.009-1.646l-0.011-0.034c-0.232-0.651-0.366-1.402-0.366-2.184s0.134-1.533 0.38-2.231l-0.014 0.047c0.242-0.649 0.591-1.206 1.032-1.676l-0.002 0.003c0.431-0.454 0.95-0.818 1.531-1.067l0.030-0.011c0.572-0.242 1.238-0.382 1.936-0.382 0.015 0 0.030 0 0.046 0l-0.002-0zM57.404 30.79c0.012 0 0.025 0 0.039 0 0.497 0 0.97-0.104 1.397-0.291l-0.022 0.009c0.441-0.192 0.814-0.469 1.112-0.811l0.003-0.004c0.317-0.37 0.567-0.809 0.723-1.289l0.008-0.027c0.167-0.525 0.263-1.129 0.263-1.755s-0.096-1.23-0.275-1.797l0.011 0.042c-0.164-0.501-0.413-0.933-0.734-1.302l0.004 0.004c-0.298-0.345-0.668-0.619-1.087-0.801l-0.020-0.008c-0.401-0.178-0.868-0.282-1.36-0.282-0.012 0-0.023 0-0.035 0h0.002c-0.010-0-0.023-0-0.035-0-0.5 0-0.975 0.104-1.406 0.291l0.023-0.009c-0.442 0.195-0.816 0.471-1.118 0.811l-0.003 0.003c-0.318 0.366-0.569 0.801-0.728 1.277l-0.008 0.027c-0.165 0.494-0.261 1.063-0.261 1.654 0 0.031 0 0.062 0.001 0.093l-0-0.005c-0 0.025-0.001 0.054-0.001 0.084 0 0.597 0.094 1.172 0.268 1.711l-0.011-0.039c0.163 0.507 0.412 0.946 0.732 1.321l-0.004-0.005c0.301 0.345 0.671 0.621 1.091 0.807l0.020 0.008c0.405 0.178 0.876 0.282 1.373 0.282 0.015 0 0.029-0 0.044-0l-0.002 0z"></path>
</symbol>
<symbol id="icon-logo-jupiter" viewBox="0 0 106 32">
<title>logo-jupiter</title>
<path fill="#707070" style="fill: var(--color1, #707070)" d="M35.139 0.008h-5.041l-0.098 0.488-2.621 13.023c-0.129 0.711-0.322 1.343-0.579 1.941l0.022-0.058c-0.2 0.454-0.465 0.843-0.789 1.175l0.001-0.001c-0.288 0.278-0.637 0.495-1.025 0.627l-0.019 0.006c-0.417 0.131-0.897 0.206-1.395 0.206-0.027 0-0.053-0-0.080-0.001l0.004 0c-0.026 0.001-0.057 0.001-0.087 0.001-0.38 0-0.748-0.050-1.098-0.145l0.029 0.007c-0.241-0.062-0.449-0.179-0.619-0.336l0.001 0.001c-0.148-0.153-0.262-0.339-0.329-0.547l-0.003-0.010c-0.078-0.261-0.123-0.561-0.123-0.871 0-0.021 0-0.042 0.001-0.062l-0 0.003c0.010-0.559 0.071-1.098 0.179-1.619l-0.010 0.056 2.622-13.152 0.145-0.732h-5.025l-0.097 0.488-2.605 13.053c-0.167 0.696-0.267 1.497-0.275 2.32l-0 0.005c-0 0.026-0.001 0.057-0.001 0.087 0 0.817 0.134 1.602 0.38 2.336l-0.015-0.052c0.261 0.763 0.694 1.41 1.254 1.918l0.004 0.003c0.61 0.534 1.342 0.945 2.147 1.186l0.041 0.011c0.852 0.252 1.831 0.398 2.844 0.398 0.057 0 0.115-0 0.172-0.001l-0.009 0c0.033 0 0.072 0.001 0.112 0.001 1.169 0 2.298-0.17 3.365-0.487l-0.083 0.021c1.063-0.323 1.984-0.83 2.772-1.489l-0.012 0.010c0.808-0.692 1.472-1.524 1.961-2.463l0.022-0.046c0.52-1.013 0.929-2.188 1.168-3.424l0.013-0.084 2.633-13.061zM17.298 0.008h-12.352l-0.098 0.488-0.631 3.134-0.145 0.732h7.288l-1.934 9.614c-0.118 0.622-0.318 1.177-0.59 1.686l0.015-0.031c-0.211 0.39-0.478 0.721-0.796 0.995l-0.004 0.004c-0.262 0.223-0.569 0.402-0.906 0.52l-0.020 0.006c-0.266 0.098-0.573 0.158-0.892 0.168l-0.004 0c-0.009 0-0.020 0-0.031 0-0.314 0-0.619-0.039-0.91-0.112l0.026 0.005c-0.54-0.145-1.012-0.387-1.417-0.708l0.008 0.006c-0.202-0.159-0.383-0.324-0.551-0.501l-0.002-0.002-0.483-0.503-0.434 0.549-2.11 2.684-0.321 0.412 0.353 0.381c0.329 0.347 0.695 0.653 1.093 0.916l0.023 0.014c0.385 0.245 0.828 0.473 1.293 0.659l0.055 0.019c0.426 0.17 0.931 0.316 1.452 0.412l0.050 0.008c0.488 0.096 1.050 0.152 1.624 0.152h0.001c0.038 0.001 0.082 0.001 0.127 0.001 1.079 0 2.116-0.185 3.079-0.524l-0.065 0.020c0.943-0.332 1.758-0.798 2.471-1.384l-0.014 0.011c0.693-0.583 1.276-1.268 1.733-2.037l0.020-0.037c0.442-0.742 0.782-1.605 0.972-2.523l0.009-0.054 2.864-14.448zM50.761 5.749c0-0.003 0-0.006 0-0.009 0-0.769-0.152-1.502-0.427-2.171l0.014 0.038c-0.312-0.75-0.778-1.381-1.362-1.877l-0.007-0.006c-0.674-0.555-1.473-0.986-2.346-1.246l-0.048-0.012c-0.98-0.292-2.105-0.46-3.27-0.46-0.077 0-0.154 0.001-0.231 0.002l0.011-0h-6.215l-0.098 0.488-4.187 20.906h5.032l0.098-0.488 1.184-5.993h1.627c0.074 0.002 0.161 0.003 0.249 0.003 1.52 0 2.975-0.278 4.317-0.785l-0.084 0.028c1.247-0.475 2.314-1.166 3.204-2.037l-0.002 0.002c0.818-0.814 1.466-1.798 1.887-2.894l0.019-0.056c0.396-1.012 0.625-2.184 0.625-3.409 0-0.008 0-0.015-0-0.023v0.001zM45.211 7.983c-0.217 0.521-0.517 0.967-0.887 1.342l0-0.001c-0.388 0.378-0.851 0.683-1.363 0.89l-0.028 0.010c-0.534 0.213-1.153 0.336-1.8 0.336-0.025 0-0.050-0-0.074-0.001l0.004 0h-1.296l1.25-6.183h1.619c0.047-0.001 0.103-0.002 0.159-0.002 0.502 0 0.989 0.068 1.451 0.194l-0.038-0.009c0.323 0.095 0.603 0.247 0.843 0.445l-0.004-0.003c0.165 0.147 0.291 0.335 0.363 0.548l0.003 0.009c0.074 0.228 0.117 0.49 0.117 0.762 0 0.003 0 0.005 0 0.008v-0c0 0.004 0 0.008 0 0.013 0 0.592-0.119 1.156-0.335 1.67l0.011-0.028zM104.388 9.599c0.502-0.594 0.906-1.29 1.174-2.051l0.014-0.046c0.256-0.729 0.404-1.569 0.404-2.443 0-0.015-0-0.030-0-0.045v0.002c0.001-0.037 0.002-0.081 0.002-0.125 0-0.802-0.192-1.559-0.534-2.228l0.013 0.028c-0.358-0.657-0.863-1.192-1.474-1.576l-0.018-0.010c-0.634-0.389-1.373-0.683-2.162-0.839l-0.043-0.007c-0.786-0.16-1.69-0.252-2.615-0.252-0.039 0-0.078 0-0.117 0.001l0.006-0h-6.275l-0.097 0.488-4.187 20.906h5.028l0.097-0.488 1.553-7.861h0.088c0.012-0 0.026-0 0.041-0 0.284 0 0.559 0.039 0.819 0.112l-0.021-0.005c0.22 0.077 0.407 0.2 0.557 0.358l0.001 0.001c0.217 0.237 0.395 0.515 0.518 0.82l0.007 0.018c0.188 0.438 0.354 0.958 0.473 1.495l0.011 0.060 1.234 5.032 0.113 0.457h5.541l-1.603-5.779c-0.198-0.679-0.393-1.273-0.576-1.777-0.191-0.526-0.391-0.966-0.619-1.389l0.027 0.054c-0.171-0.307-0.353-0.571-0.557-0.817l0.007 0.009c0.495-0.159 0.92-0.348 1.321-0.575l-0.035 0.018c0.733-0.412 1.356-0.929 1.871-1.538l0.008-0.010zM100.492 7.129c-0.184 0.372-0.444 0.681-0.761 0.918l-0.007 0.005c-0.368 0.273-0.801 0.481-1.271 0.597l-0.025 0.005c-0.527 0.141-1.132 0.221-1.756 0.221-0.024 0-0.048-0-0.072-0l0.004 0h-0.602l0.895-4.483h1.339c0.102-0.010 0.221-0.016 0.34-0.016 0.623 0 1.211 0.152 1.727 0.422l-0.021-0.010c0.294 0.201 0.485 0.536 0.485 0.915 0 0.048-0.003 0.096-0.009 0.143l0.001-0.006c0 0.013 0 0.029 0 0.044 0 0.452-0.102 0.879-0.283 1.262l0.008-0.018zM52.801 4.346l-2.563 12.725-0.903 4.331h5.108l0.884-4.331 2.546-12.725 0.939-4.338h-5.152zM89.142 8.959l0.139-0.717h-5.261l-0.137 0.717-0.601 3.134-0.095 0.496h5.261l0.095-0.496zM80.55 12.588l0.846-4.346 0.772-3.805h8.258l0.1-0.488 0.661-3.21 0.153-0.732h-31.177l-0.101 0.488-0.663 3.164-0.125 0.679h5.506l-3.24 16.339-0.143 0.724h5.118l3.375-17.010h7.215l-3.259 16.286-0.146 0.732h13.35l0.096-0.496 0.632-3.21 0.143-0.724h-8.257zM16.439 31.939l0.922-4.567h1.153c0.046-0.004 0.099-0.006 0.152-0.006 0.444 0 0.854 0.142 1.189 0.383l-0.006-0.004c0.28 0.263 0.455 0.635 0.455 1.048 0 0.042-0.002 0.083-0.005 0.124l0-0.005q0 0.137-0.016 0.343c-0.016 0.169-0.041 0.32-0.073 0.467l0.005-0.025c-0.041 0.198-0.088 0.366-0.147 0.53l0.008-0.027c-0.068 0.197-0.147 0.365-0.241 0.524l0.007-0.014c-0.105 0.179-0.222 0.334-0.354 0.474l0.001-0.001c-0.141 0.15-0.302 0.279-0.479 0.383l-0.010 0.005c-0.187 0.114-0.403 0.205-0.633 0.263l-0.016 0.003c-0.234 0.063-0.502 0.1-0.779 0.1-0.019 0-0.038-0-0.057-0l0.003 0h-1.080zM19.651 28.943c0-0.009 0-0.020 0-0.032 0-0.161-0.028-0.315-0.080-0.458l0.003 0.009c-0.048-0.131-0.127-0.242-0.228-0.327l-0.001-0.001c-0.107-0.086-0.235-0.149-0.375-0.182l-0.006-0.001c-0.154-0.039-0.33-0.061-0.512-0.061-0.006 0-0.013 0-0.019 0h-0.558l-0.707 3.515h0.425c0.006 0 0.012 0 0.019 0 0.212 0 0.418-0.031 0.612-0.088l-0.015 0.004c0.183-0.055 0.343-0.13 0.488-0.225l-0.007 0.004c0.138-0.091 0.256-0.197 0.357-0.318l0.002-0.003c0.095-0.111 0.181-0.236 0.252-0.37l0.006-0.011c0.063-0.116 0.122-0.252 0.169-0.394l0.005-0.018c0.036-0.106 0.072-0.241 0.1-0.38l0.004-0.024c0.020-0.1 0.037-0.225 0.049-0.352l0.001-0.014c0.005-0.107 0.008-0.198 0.008-0.274zM26.393 31.939h-2.614l0.919-4.567h2.617l-0.109 0.518h-1.993l-0.29 1.418h1.906l-0.101 0.526h-1.906l-0.316 1.578h1.987zM33.972 27.372l-2.486 4.567h-0.839l-0.61-4.567h0.676l0.381 3.080 0.089 0.9 0.479-0.9 1.61-3.080h0.7zM38.456 31.939h-2.614l0.92-4.567h2.615l-0.108 0.518h-1.996l-0.289 1.418h1.906l-0.101 0.526h-1.906l-0.316 1.578h1.986zM44.75 31.939h-2.644l0.922-4.567h0.633l-0.816 4.041h2.011zM49.24 32.008c-0.029 0.002-0.062 0.003-0.096 0.003-0.376 0-0.716-0.156-0.957-0.407l-0-0c-0.222-0.28-0.356-0.639-0.356-1.029 0-0.038 0.001-0.075 0.004-0.112l-0 0.005c0.001-0.256 0.024-0.507 0.067-0.75l-0.004 0.026c0.045-0.274 0.111-0.518 0.2-0.75l-0.009 0.026c0.092-0.254 0.201-0.473 0.33-0.678l-0.008 0.014c0.128-0.207 0.278-0.385 0.45-0.539l0.002-0.002c0.166-0.153 0.359-0.279 0.572-0.369l0.013-0.005c0.207-0.087 0.447-0.137 0.699-0.137 0.008 0 0.016 0 0.023 0h-0.001c0.028-0.002 0.061-0.003 0.094-0.003 0.376 0 0.715 0.156 0.956 0.407l0 0c0.221 0.281 0.355 0.639 0.355 1.029 0 0.038-0.001 0.075-0.004 0.112l0-0.005c-0.001 0.259-0.024 0.513-0.066 0.759l0.004-0.027c-0.049 0.277-0.116 0.521-0.202 0.754l0.010-0.030c-0.097 0.256-0.204 0.475-0.33 0.681l0.010-0.018c-0.13 0.206-0.28 0.384-0.45 0.54l-0.002 0.002c-0.167 0.147-0.36 0.27-0.571 0.361l-0.014 0.005c-0.206 0.087-0.446 0.137-0.698 0.137-0.010 0-0.020-0-0.030-0l0.002 0zM50.931 28.889c0-0.006 0-0.013 0-0.020 0-0.144-0.017-0.285-0.048-0.419l0.002 0.012c-0.031-0.125-0.084-0.235-0.154-0.33l0.002 0.003c-0.068-0.090-0.154-0.162-0.254-0.212l-0.004-0.002c-0.109-0.048-0.236-0.076-0.369-0.076-0.004 0-0.008 0-0.013 0h0.001c-0.002 0-0.004-0-0.006-0-0.188 0-0.364 0.048-0.517 0.132l0.006-0.003c-0.158 0.095-0.294 0.209-0.409 0.341l-0.002 0.002c-0.119 0.142-0.223 0.302-0.307 0.474l-0.006 0.014c-0.075 0.152-0.148 0.333-0.207 0.521l-0.007 0.028c-0.048 0.155-0.092 0.346-0.121 0.541l-0.003 0.023c-0.024 0.149-0.039 0.323-0.041 0.501l-0 0.003c-0 0.006-0 0.012-0 0.019 0 0.145 0.017 0.286 0.050 0.42l-0.002-0.012c0.031 0.125 0.084 0.235 0.154 0.33l-0.002-0.003c0.067 0.090 0.154 0.163 0.254 0.212l0.004 0.002c0.11 0.048 0.238 0.076 0.373 0.076 0.003 0 0.006 0 0.009-0h-0c0.002 0 0.005 0 0.007 0 0.187 0 0.363-0.048 0.515-0.132l-0.005 0.003c0.162-0.090 0.299-0.205 0.411-0.341l0.002-0.002c0.121-0.139 0.225-0.297 0.306-0.468l0.005-0.013c0.076-0.154 0.148-0.338 0.207-0.529l0.007-0.028c0.048-0.155 0.092-0.346 0.121-0.541l0.003-0.023c0.019-0.138 0.030-0.296 0.030-0.458 0-0.016-0-0.032-0-0.048l0 0.002zM54.936 30.3l-0.335 1.639h-0.63l0.92-4.567h1.263c0 0 0 0 0 0 0.207 0 0.409 0.022 0.603 0.064l-0.019-0.003c0.181 0.044 0.34 0.115 0.482 0.209l-0.005-0.003c0.134 0.086 0.243 0.202 0.318 0.338l0.002 0.005c0.073 0.14 0.116 0.305 0.116 0.481 0 0.011-0 0.021-0 0.032l0-0.002c0 0.155-0.021 0.304-0.062 0.446l0.003-0.012c-0.042 0.159-0.104 0.299-0.184 0.426l0.004-0.006c-0.085 0.143-0.183 0.265-0.296 0.373l-0.001 0.001c-0.118 0.119-0.253 0.221-0.402 0.301l-0.009 0.004c-0.151 0.081-0.326 0.152-0.51 0.202l-0.018 0.004c-0.186 0.044-0.399 0.069-0.618 0.069-0.008 0-0.016-0-0.025-0h-0.603zM56.999 28.554c0.001-0.009 0.001-0.020 0.001-0.030 0-0.187-0.090-0.352-0.228-0.457l-0.001-0.001c-0.172-0.112-0.383-0.178-0.609-0.178-0.027 0-0.054 0.001-0.081 0.003l0.004-0h-0.667l-0.377 1.883h0.556c0.012 0 0.026 0 0.041 0 0.159 0 0.314-0.020 0.462-0.057l-0.013 0.003c0.14-0.038 0.263-0.090 0.377-0.156l-0.007 0.004c0.099-0.064 0.184-0.137 0.259-0.22l0.001-0.001c0.066-0.077 0.122-0.165 0.164-0.26l0.003-0.007c0.039-0.077 0.070-0.166 0.088-0.26l0.001-0.007c0.013-0.073 0.021-0.157 0.021-0.242 0-0.006-0-0.012-0-0.018v0.001zM64.059 31.939h-0.61l0.482-2.852 0.18-1.090-0.345 0.633-1.037 1.822h-0.432l-0.305-1.754-0.072-0.701-0.244 1.144-0.64 2.798h-0.591l1.144-4.567h0.713l0.275 1.715 0.076 0.587 0.319-0.587 0.991-1.715h0.794zM70.44 31.939h-2.614l0.92-4.567h2.609l-0.109 0.518h-1.982l-0.289 1.418h1.906l-0.102 0.526h-1.906l-0.316 1.578h1.987zM75.86 31.939h-0.785l-0.762-2.852-0.212-0.915-0.457 2.303-0.295 1.464h-0.584l0.924-4.567h0.778l0.727 2.699 0.25 1.045 0.491-2.447 0.264-1.296h0.584zM82.963 27.898h-1.359l-0.813 4.041h-0.632l0.81-4.041h-1.36l0.111-0.526h3.355z"></path>
</symbol>
<symbol id="icon-logo-mars" viewBox="0 0 131 32">
<title>logo-mars</title>
<path fill="#707070" style="fill: var(--color1, #707070)" d="M64.669 28.033l-4.112-0.027-5.142 0.036c0-0.407-0.018-1.184-0.009-1.59s0.036-0.759 0.045-1.139l2.024-0.009c0.010 0.001 0.022 0.001 0.035 0.001 0.304 0 0.554-0.228 0.589-0.522l0-0.003 0.054-0.759c-0.036-3.732-0.045-7.193-0.027-11.576l-0.009-0.714-0.705 0.036h-0.56l-0.090 0.244c-2.151 6.172-3.967 10.293-5.639 14.197-0.226 0.009-0.515 0.009-0.849 0.018-0.578 0.009-1.283-0.009-1.907-0.009-1.871-4.473-3.118-7.437-5.097-13.42l-0.361-1.039h-0.687l-0.371-0.036-0.036 0.425c-0.054 3.344 0.063 5.251 0.027 6.85-0.036 1.97 0.036 3.922 0 5.892l0.054 0.416 0.551 0.018 2.142 0.045c0 0.777-0.054 1.862-0.081 2.657l-4.817 0.027h-4.166l0.027-2.684 2.368-0.063 0.072-0.036c0.188-0.082 0.316-0.266 0.316-0.48 0-0.003-0-0.006-0-0.008v0c0.036-5.016-0.145-10.917-0.063-16.52l0.027-1.039-0.443 0.045-1.41-0.045c0-0.434 0.036-1.292 0.045-1.753 0-0.443-0.018-1.356-0.018-1.771l8.983-0.036c1.093 2.973 3.091 10.013 4.717 14.812l0.271 0.804 0.090 0.253h0.822l0.090-0.253c0.705-1.988 1.455-4.13 2.196-6.254 1.112-3.163 2.666-6.841 3.579-9.389l8.142 0.027c0 0.416 0.018 1.455 0.018 1.889-0.009 0.461-0.018 1.202-0.027 1.645h-2.268l-0.063 0.036c-0.264 0.161-0.437 0.447-0.437 0.774 0 0.027 0.001 0.053 0.003 0.079l-0-0.003c0.027 2.783 0.063 5.214 0.072 8.314 0.009 2.892-0.009 4.446 0.009 7.175l0.027 1.744 0.497-0.009h2.187c0 0.777 0 1.907-0.018 2.702zM89.674 28.006l-3.904 0.036h-5.955c0-0.822-0.027-1.871-0.009-2.684l1.78-0.090c0.153-0.010 0.286-0.089 0.37-0.206l0.001-0.002c0.062-0.084 0.1-0.19 0.1-0.304 0-0.059-0.010-0.116-0.029-0.17l0.001 0.004c-0.072-0.199-0.154-0.47-0.244-0.768-0.172-0.569-0.361-1.202-0.515-1.581-0.047-0.304-0.296-0.537-0.603-0.56l-0.002-0-6.904 0.018-0.298 0.199-0.063 0.289c-0.072 0.325-0.163 0.687-0.253 1.057-0.145 0.56-0.289 1.139-0.38 1.618l-0.081 0.416 0.425 0.027 2.16 0.054c0 0.795-0.036 1.871-0.054 2.684h-8.974c0.009-0.813 0.099-1.889 0.136-2.684l1.663-0.054c0.259-0.025 0.472-0.201 0.55-0.438l0.001-0.005c2.386-6.362 5.648-15.553 7.718-21.192 0.75-0.054 2.323-0.027 4.573-0.027 1.202 3.488 2.621 8.052 3.994 12.173 1.112 3.317 2.178 6.543 3.091 9.2l0.072 0.235 0.244 0.018 1.491 0.117c0 0.795-0.018 1.319-0.036 2.124zM76.995 10.185l-0.081 0.262c-0.515 1.681-1.057 3.434-1.563 5.124l-0.714 1.645c-0.13 0.531-0.204 1.141-0.204 1.768 0 0.103 0.002 0.205 0.006 0.307l-0-0.015 0.027-0.271h5.287l0.615 0.027-0.605-1.844c-0.533-1.681-0.488-1.853-1.084-3.859-0.289-0.958-0.578-1.925-0.868-2.883l-0.081-0.262h-0.732zM105.299 26.659c-0.849-1.554-1.654-3.57-2.485-5.558l-0.334-0.777c-0.515-1.238-1.003-2.268-2.079-2.268-0.171-0.013-0.37-0.021-0.572-0.021-0.241 0-0.48 0.011-0.715 0.032l0.030-0.002-0.244 0.596-0.117 0.262-0.045 5.928 0.117 0.47 0.352 0.018 2.268-0.018c-0.018 0.804-0.018 1.898-0.018 2.702l-5.504 0.027-4.356-0.054c0.018-0.804-0.009-1.871-0.009-2.675l1.428 0.018c0.257-0.009 0.461-0.22 0.461-0.478 0-0 0-0.001 0-0.001v0l-0.163-15.833 0.027-1.771-0.271-0.018-1.491-0.027c0-0.84-0.018-2.756 0-3.57 3.253-0.045 5.91-0.009 8.206-0.009 2.088 0 3.235 0.506 5.404 1.021 3.118 0.687 5.296 3.506 5.296 5.711 0 2.765-1.853 4.988-4.645 6.154l-0.235 0.099v0.705l0.208 0.099c1.383 0.66 2.223 2.422 3.606 5.323l0.443 0.922c0.371 0.84 0.705 1.5 1.419 1.563l0.976 0.154c0 0.389 0.072 0.849 0.063 1.247s-0.018 0.958-0.018 1.365c-0.289 0-0.253-0.018-0.596-0.018-0.515 0.009-0.723 0.027-1.075 0.027-0.434 0-1.545 0.009-2.567 0.018-0.786 0.009-1.581-0.045-2.006-0.036zM100.528 6.434c-0.069-0.004-0.149-0.006-0.229-0.006-0.381 0-0.75 0.048-1.102 0.139l0.031-0.007-0.253 0.081-0.262 0.298 0.072 8.721 0.108 0.407 0.289 0.208c0.241 0.040 0.519 0.062 0.802 0.062 0.103 0 0.205-0.003 0.306-0.009l-0.014 0.001c2.63 0 4.284-1.997 4.284-4.762 0-2.874-1.762-5.133-4.031-5.133v0zM120.617 27.97c-0.347 0.021-0.753 0.033-1.161 0.033-1.522 0-3.006-0.167-4.433-0.483l0.136 0.025c-0.262-2.024-0.488-4.021-0.714-5.983l-0.244-0.425c1.103-0.235 2.449-0.434 3.443-0.569l0.958 3.416c0.054 0.236 0.194 0.432 0.385 0.558l0.003 0.002c0.719 0.493 1.608 0.787 2.566 0.787 0.032 0 0.064-0 0.096-0.001l-0.005 0c0.033 0.001 0.071 0.001 0.11 0.001 1.023 0 1.969-0.326 2.742-0.879l-0.014 0.010c0.638-0.522 1.042-1.308 1.042-2.19 0-0.040-0.001-0.081-0.003-0.121l0 0.006c0-2.169-1.202-2.612-4.085-3.696-4.275-1.609-6.443-3.985-6.443-7.040 0.015-2.112 0.942-4.005 2.406-5.307l0.007-0.006c1.636-1.491 4.365-2.476 7.7-2.476 0.013-0 0.028-0 0.043-0 1.636 0 3.209 0.268 4.679 0.762l-0.103-0.030c0.199 2.069 0.569 4.211 0.714 6.317-0.94 0.145-2.196 0.235-3.226 0.352l-0.145 0.018-0.777-3.172c-0.046-0.173-0.131-0.322-0.245-0.443l0.001 0.001c-0.561-0.545-1.297-0.913-2.115-1.010l-0.017-0.002c-0.952 0.083-1.8 0.47-2.462 1.061l0.004-0.004c-0.707 0.561-1.157 1.421-1.157 2.385 0 0.019 0 0.039 0.001 0.058l-0-0.003c0 2.133 1.012 2.585 4.509 3.805 4.211 1.455 6.010 3.452 6.010 6.696 0.001 0.050 0.002 0.109 0.002 0.168 0 2.226-1.012 4.216-2.602 5.533l-0.012 0.010c-1.771 1.41-4.031 1.834-7.474 1.834h-0.117zM13.673 6.877c-0.021 3.763-3.075 6.805-6.841 6.805-3.778 0-6.841-3.063-6.841-6.841s3.063-6.841 6.841-6.841v0c3.781 0.013 6.841 3.081 6.841 6.864 0 0.005 0 0.010 0 0.014v-0.001zM13.673 25.123c-0.026 3.759-3.079 6.796-6.841 6.796-3.778 0-6.841-3.063-6.841-6.841s3.063-6.841 6.841-6.841v0c3.782 0.015 6.841 3.084 6.841 6.868 0 0.006 0 0.013-0 0.019v-0.001zM28.566 16.005c-0.023 3.763-3.079 6.805-6.845 6.805-3.781 0-6.846-3.065-6.846-6.846 0-3.779 3.062-6.843 6.841-6.846h0c3.785 0.010 6.85 3.081 6.85 6.868 0 0.006 0 0.013-0 0.019v-0.001z"></path>
</symbol>
<symbol id="icon-logo-moonpic" viewBox="0 0 134 32">
<title>logo-moonpic</title>
<path fill="#707070" style="fill: var(--color1, #707070)" d="M49.248 7.836c-0.619-0.388-1.344-0.674-2.12-0.815l-0.037-0.006c-0.737 0.126-1.397 0.375-1.987 0.728l0.026-0.014c-1.049 0.377-1.93 1.004-2.601 1.812l-0.008 0.010c-0.406-0.539-0.896-0.99-1.454-1.341l-0.022-0.013c-0.775-0.612-1.727-1.034-2.768-1.178l-0.030-0.003c-1.36 0.096-2.572 0.663-3.489 1.537l0.002-0.002v-0.312l0.049-0.394-0.73 0.025-1.813-0.025-0.681 0.098 0.049 0.599-0.025 13.161 0.049 0.894 0.451 0.033 2.018-0.049 0.738-0.025v-0.985l0.049-7.967c-0.014-0.109-0.022-0.236-0.022-0.364 0-0.762 0.285-1.458 0.755-1.986l-0.003 0.003c0.521-0.499 1.23-0.806 2.010-0.806 0.038 0 0.075 0.001 0.112 0.002l-0.005-0c0.029-0.001 0.064-0.002 0.099-0.002 0.719 0 1.367 0.307 1.82 0.796l0.002 0.002c0.58 0.585 0.945 1.384 0.968 2.268l0 0.004 0.049 8.025v1.009l0.377 0.049 2.018-0.025h0.804v-1.058l-0.148-7.943c-0.004-0.055-0.006-0.12-0.006-0.185 0-0.836 0.341-1.592 0.892-2.137l0-0c0.521-0.499 1.23-0.806 2.010-0.806 0.038 0 0.075 0.001 0.112 0.002l-0.005-0c0.026-0.001 0.058-0.002 0.089-0.002 0.722 0 1.373 0.306 1.83 0.796l0.001 0.002c0.586 0.593 0.959 1.399 0.993 2.291l0 0.006-0.025 7.975v0.96l0.041 0.049 2.478 0.049 0.837 0.049-0.057-1.469-0.049-7.819c-0.015-1.674-0.717-3.181-1.836-4.257l-0.002-0.002c-0.501-0.52-1.101-0.941-1.77-1.233l-0.036-0.014zM60.817 6.991c-4.020 0.572-7.076 3.99-7.076 8.123 0 1.915 0.656 3.676 1.756 5.072l-0.013-0.017c1.315 1.488 3.227 2.421 5.358 2.421s4.043-0.933 5.351-2.414l0.007-0.008c1.288-1.395 1.485-3.225 1.485-5.342s-0.197-3.84-1.485-5.235c-1.319-1.526-3.227-2.512-5.368-2.601l-0.015-0zM63.804 18.043c-0.75 0.779-1.801 1.264-2.966 1.264s-2.217-0.484-2.965-1.262l-0.001-0.001c-0.714-0.837-1.625-1.822-1.625-3.11s0.911-2.38 1.633-3.216c0.687-0.88 1.746-1.441 2.937-1.444h0.001c1.208 0.004 2.283 0.567 2.981 1.444l0.006 0.008c0.832 0.822 1.377 1.931 1.476 3.166l0.001 0.018c-0.104 1.236-0.649 2.329-1.476 3.133l-0.001 0.001zM76.284 6.991c-2.15 0.089-4.053 1.075-5.358 2.591l-0.008 0.010c-1.288 1.395-1.559 3.167-1.559 5.284s0.271 3.897 1.567 5.292c1.314 1.475 3.214 2.404 5.33 2.421l0.003 0c2.135-0.018 4.049-0.946 5.377-2.414l0.006-0.006c1.288-1.395 1.633-3.143 1.633-5.259s-0.345-3.922-1.633-5.317c-1.31-1.526-3.21-2.512-5.343-2.601l-0.015-0zM79.246 18.043c-0.75 0.779-1.801 1.264-2.966 1.264s-2.217-0.484-2.965-1.262l-0.001-0.001c-0.842-0.814-1.401-1.916-1.516-3.147l-0.002-0.020c0.116-1.25 0.679-2.351 1.524-3.157l0.002-0.002c0.701-0.869 1.766-1.42 2.959-1.42 1.197 0 2.264 0.554 2.96 1.42l0.006 0.007c0.714 0.829 1.6 1.854 1.6 3.151s-0.886 2.33-1.6 3.167zM93.982 7.811c-0.734-0.402-1.591-0.684-2.502-0.793l-0.034-0.003c-1.050 0.13-1.986 0.542-2.751 1.157l0.011-0.008c-0.188 0.174-0.36 0.359-0.517 0.556l-0.008 0.010 0.057-1.698-0.082-0.033-0.755 0.025h-1.666l-0.73 0.049-0.049 1.698 0.025 12.956-0.049 0.829 0.96 0.025 1.428-0.025h0.812l0.049-1.058 0.025-7.606c0-1.017 0.025-1.854 0.681-2.494 0.622-0.652 1.486-1.067 2.447-1.099l0.006-0c0.899 0.023 1.7 0.423 2.254 1.047l0.003 0.003c0.687 0.623 1.134 1.502 1.189 2.485l0 0.010v7.787l0.025 0.927 0.008 0.025 2.486-0.074 0.779 0.025 0.025-1.395-0.025-7.811c0-1.936-0.96-3.061-2.174-4.242-0.529-0.547-1.172-0.979-1.892-1.259l-0.036-0.012zM106.479 7.015c-1.658 0.101-3.144 0.762-4.289 1.794l0.006-0.006-0.057-0.673 0.033-1.083-0.509-0.025h-2.773v20.537l0.779-0.025 2.125-0.049 0.32 0.025 0.025-0.927-0.025-5.62c1.136 0.973 2.61 1.579 4.224 1.624l0.009 0c0.003 0 0.006 0 0.009 0 2.114 0 4.009-0.938 5.292-2.42l0.007-0.009c1.238-1.402 1.994-3.255 1.994-5.285 0-2.025-0.753-3.875-1.993-5.284l0.008 0.009c-1.245-1.518-3.093-2.502-5.172-2.584l-0.014-0zM103.246 18.043c-0.661-0.869-1.058-1.97-1.058-3.163s0.398-2.294 1.068-3.176l-0.009 0.013c0.7-0.879 1.769-1.439 2.969-1.444h0.001c1.218 0.023 2.3 0.584 3.022 1.454l0.005 0.007c0.69 0.853 1.108 1.951 1.108 3.147s-0.418 2.294-1.115 3.156l0.007-0.009c-0.71 0.789-1.734 1.283-2.874 1.283-0.054 0-0.108-0.001-0.161-0.003l0.008 0c-0.059 0.003-0.128 0.005-0.197 0.005-1.106 0-2.097-0.49-2.769-1.264l-0.004-0.005zM115.939 7.844l-0.599-0.025-0.025 2.059 0.025 11.257-0.025 0.599 0.599 0.049 1.378 0.025 0.451-0.049v-13.867l-0.139-0.074zM115.808 2.905h-0.476v3.282l0.451-0.025 1.362 0.074 0.656-0.025-0.082-1.034 0.033-1.805v-0.369l-0.049-0.025zM131.086 16.886l-0.615 0.025v0.213c-0.257 0.652-0.685 1.191-1.228 1.576l-0.011 0.007c-0.513 0.375-1.157 0.6-1.853 0.6-0.024 0-0.047-0-0.071-0.001l0.004 0c-0.074 0.005-0.161 0.008-0.249 0.008-1.178 0-2.24-0.494-2.991-1.286l-0.002-0.002c-0.853-0.783-1.385-1.902-1.385-3.147s0.533-2.364 1.382-3.144l0.003-0.003c0.358-0.396 0.796-0.713 1.289-0.926l0.024-0.009c0.528-0.219 1.142-0.347 1.785-0.347 0.050 0 0.1 0.001 0.15 0.002l-0.007-0c0.023-0.001 0.051-0.001 0.078-0.001 0.692 0 1.332 0.225 1.85 0.606l-0.009-0.006c0.554 0.393 0.982 0.931 1.231 1.56l0.008 0.023 0.082 0.164 0.476-0.025h2.207l0.829-0.025-0.222-0.525c-0.453-1.438-1.33-2.634-2.483-3.474l-0.019-0.013c-1.239-0.994-2.8-1.634-4.505-1.746l-0.024-0.001c-2.101 0.095-3.954 1.082-5.201 2.589l-0.010 0.012c-1.358 1.35-2.199 3.219-2.199 5.284 0 2.070 0.844 3.942 2.207 5.292l0.001 0.001c1.297 1.464 3.178 2.385 5.274 2.396h0.002c1.688-0.038 3.235-0.615 4.482-1.564l-0.019 0.014c1.169-0.852 2.043-2.044 2.481-3.431l0.013-0.048 0.328-0.648-0.935-0.057zM107.874 30.318c-0.218 0.276-0.551 0.454-0.926 0.459h-0.001c-0.007 0-0.016 0-0.025 0-0.2 0-0.388-0.046-0.557-0.127l0.008 0.003c-0.167-0.082-0.307-0.195-0.417-0.334l-0.002-0.003c-0.118-0.145-0.209-0.318-0.26-0.507l-0.002-0.010c-0.052-0.19-0.082-0.408-0.082-0.634 0-0.014 0-0.027 0-0.041l-0 0.002c-0-0.012-0-0.026-0-0.040 0-0.241 0.039-0.473 0.111-0.689l-0.004 0.015c0.061-0.206 0.159-0.384 0.289-0.535l-0.002 0.002c0.119-0.142 0.263-0.258 0.427-0.341l0.008-0.004c0.157-0.073 0.342-0.115 0.536-0.115 0.002 0 0.004 0 0.006 0h-0c0.007-0 0.015-0 0.023-0 0.166 0 0.324 0.030 0.47 0.085l-0.009-0.003c0.158 0.059 0.294 0.139 0.412 0.24l-0.002-0.002v-1.46h0.574v4.414h-0.574v-0.377zM107.874 29.776v-1.518c-0.214-0.235-0.52-0.383-0.861-0.386h-0.001c-0.006-0-0.013-0-0.020-0-0.239 0-0.448 0.123-0.569 0.309l-0.002 0.003c-0.142 0.237-0.226 0.523-0.226 0.829 0 0.040 0.001 0.081 0.004 0.12l-0-0.005c-0.002 0.029-0.003 0.062-0.003 0.096 0 0.294 0.080 0.57 0.22 0.805l-0.004-0.007c0.117 0.184 0.32 0.304 0.551 0.304 0.008 0 0.016-0 0.024-0l-0.001 0c0.004 0 0.010 0 0.015 0 0.166 0 0.32-0.052 0.447-0.141l-0.002 0.002c0.169-0.11 0.311-0.247 0.423-0.405l0.003-0.005zM113.166 30.777c-0.003 0-0.007 0-0.011 0-0.229 0-0.448-0.042-0.649-0.119l0.013 0.004c-0.195-0.078-0.362-0.189-0.501-0.328l0 0c-0.135-0.148-0.243-0.322-0.316-0.514l-0.004-0.011c-0.073-0.206-0.115-0.444-0.115-0.691 0-0.008 0-0.016 0-0.024v0.001c-0-0.005-0-0.011-0-0.017 0-0.244 0.042-0.478 0.119-0.695l-0.004 0.014c0.072-0.203 0.178-0.378 0.313-0.526l-0.001 0.001c0.129-0.143 0.288-0.257 0.467-0.333l0.009-0.003c0.181-0.073 0.39-0.115 0.61-0.115 0.002 0 0.004 0 0.006 0h-0c0.005-0 0.011-0 0.017-0 0.221 0 0.432 0.042 0.626 0.119l-0.011-0.004c0.19 0.076 0.352 0.188 0.483 0.328l0.001 0.001c0.13 0.148 0.233 0.323 0.3 0.514l0.003 0.011c0.068 0.197 0.107 0.424 0.107 0.661 0 0.016-0 0.032-0.001 0.047l0-0.002v0.14h-2.437c0.004 0.175 0.040 0.341 0.102 0.494l-0.003-0.009c0.050 0.13 0.119 0.242 0.206 0.337l-0.001-0.001c0.085 0.085 0.185 0.155 0.297 0.203l0.006 0.002c0.11 0.041 0.237 0.065 0.369 0.066h0c0.103-0.002 0.201-0.017 0.295-0.043l-0.008 0.002c0.096-0.024 0.181-0.061 0.258-0.109l-0.004 0.002c0.070-0.050 0.13-0.11 0.179-0.178l0.002-0.002c0.046-0.071 0.074-0.157 0.074-0.25 0-0.002 0-0.003-0-0.005v0h0.607c-0.022 0.166-0.078 0.316-0.159 0.448l0.003-0.005c-0.086 0.124-0.186 0.229-0.3 0.318l-0.003 0.002c-0.122 0.086-0.264 0.153-0.417 0.195l-0.009 0.002c-0.152 0.047-0.327 0.074-0.509 0.074-0.003 0-0.006 0-0.009-0h0zM114.019 28.784c-0.028-0.267-0.145-0.503-0.32-0.681l0 0c-0.159-0.143-0.37-0.23-0.602-0.23-0.114 0-0.223 0.021-0.323 0.060l0.006-0.002c-0.106 0.033-0.197 0.090-0.271 0.164l-0 0c-0.082 0.082-0.15 0.176-0.202 0.281l-0.003 0.006c-0.050 0.116-0.090 0.251-0.113 0.392l-0.001 0.010h1.83zM118.54 30.777c-0.878 0-1.337-0.345-1.387-1.034h0.574c0 0.386 0.271 0.583 0.804 0.583 0.002 0 0.005 0 0.007 0 0.111 0 0.219-0.015 0.321-0.043l-0.008 0.002c0.088-0.020 0.165-0.057 0.231-0.108l-0.001 0.001c0.057-0.042 0.103-0.094 0.138-0.154l0.001-0.002c0.031-0.059 0.049-0.129 0.049-0.203 0-0.001 0-0.001 0-0.002v0c0-0 0-0.001 0-0.001 0-0.064-0.012-0.126-0.034-0.183l0.001 0.003c-0.034-0.056-0.085-0.1-0.146-0.122l-0.002-0.001c-0.080-0.044-0.173-0.081-0.271-0.105l-0.008-0.002c-0.123-0.041-0.287-0.082-0.484-0.131s-0.353-0.098-0.492-0.14c-0.131-0.044-0.246-0.103-0.349-0.175l0.004 0.003c-0.086-0.062-0.154-0.145-0.195-0.242l-0.001-0.004c-0.042-0.104-0.066-0.224-0.066-0.349 0-0.007 0-0.014 0-0.021l-0 0.001c-0-0.004-0-0.009-0-0.014 0-0.129 0.030-0.252 0.084-0.36l-0.002 0.005c0.060-0.118 0.143-0.217 0.244-0.294l0.002-0.002c0.107-0.083 0.233-0.148 0.37-0.187l0.008-0.002c0.146-0.047 0.313-0.074 0.487-0.074 0.005 0 0.010 0 0.014 0h-0.001c0.853 0 1.288 0.304 1.296 0.894h-0.566c-0.025-0.295-0.246-0.443-0.681-0.443-0.003-0-0.007-0-0.011-0-0.092 0-0.182 0.009-0.269 0.026l0.009-0.001c-0.084 0.019-0.158 0.047-0.226 0.084l0.005-0.002c-0.056 0.033-0.103 0.078-0.139 0.13l-0.001 0.002c-0.031 0.051-0.049 0.113-0.049 0.179 0 0 0 0.001 0 0.001v-0c-0 0.005-0 0.010-0 0.015 0 0.050 0.009 0.099 0.026 0.144l-0.001-0.003c0.023 0.052 0.063 0.092 0.113 0.114l0.001 0.001c0.075 0.039 0.162 0.073 0.254 0.096l0.009 0.002c0.115 0.033 0.279 0.074 0.484 0.123s0.361 0.098 0.509 0.148c0.138 0.047 0.257 0.108 0.366 0.184l-0.005-0.003c0.092 0.067 0.165 0.155 0.212 0.259l0.002 0.004c0.042 0.101 0.067 0.218 0.067 0.341 0 0.016-0 0.032-0.001 0.047l0-0.002c0 0.006 0 0.013 0 0.020 0 0.138-0.030 0.27-0.085 0.388l0.002-0.006c-0.069 0.125-0.157 0.231-0.261 0.319l-0.002 0.001c-0.116 0.093-0.253 0.166-0.402 0.211l-0.009 0.002c-0.151 0.052-0.325 0.082-0.507 0.082-0.012 0-0.025-0-0.037-0l0.002 0zM123.012 26.896h-0.566v-0.615h0.566v0.615zM123.012 30.695h-0.566v-3.192h0.566v3.192zM128.706 30.449c0.014 0.073 0.023 0.157 0.023 0.244 0 0.725-0.588 1.313-1.313 1.313-0.043 0-0.085-0.002-0.127-0.006l0.005 0c-0.007 0-0.016 0-0.025 0-0.187 0-0.367-0.027-0.538-0.077l0.013 0.003c-0.159-0.039-0.299-0.104-0.422-0.191l0.004 0.003c-0.11-0.079-0.199-0.181-0.26-0.299l-0.002-0.005c-0.057-0.12-0.090-0.26-0.090-0.408 0-0.001 0-0.001 0-0.002v0h0.599c0 0.353 0.23 0.533 0.706 0.533 0.129-0.001 0.253-0.022 0.37-0.060l-0.009 0.002c0.109-0.030 0.202-0.090 0.27-0.172l0.001-0.001c0.076-0.092 0.133-0.202 0.163-0.323l0.001-0.006c0.037-0.14 0.058-0.301 0.058-0.467 0-0.020-0-0.041-0.001-0.061l0 0.003v-0.156c-0.218 0.276-0.551 0.454-0.926 0.459h-0.001c-0.009 0-0.020 0-0.030 0-0.198 0-0.385-0.046-0.552-0.127l0.007 0.003c-0.167-0.082-0.307-0.195-0.417-0.334l-0.002-0.003c-0.118-0.145-0.209-0.318-0.26-0.507l-0.002-0.010c-0.052-0.19-0.082-0.408-0.082-0.634 0-0.014 0-0.027 0-0.041l-0 0.002c-0-0.012-0-0.026-0-0.040 0-0.241 0.039-0.473 0.111-0.689l-0.004 0.015c0.061-0.206 0.159-0.384 0.289-0.535l-0.002 0.002c0.119-0.142 0.263-0.258 0.427-0.341l0.008-0.004c0.157-0.073 0.342-0.115 0.536-0.115 0.002 0 0.004 0 0.006 0h-0c0.007-0 0.015-0 0.023-0 0.166 0 0.324 0.030 0.47 0.085l-0.009-0.003c0.157 0.061 0.293 0.141 0.413 0.24l-0.003-0.002v-0.238h0.574v2.946zM128.132 29.776v-1.518c-0.215-0.234-0.521-0.381-0.861-0.386h-0.001c-0.006-0-0.013-0-0.020-0-0.239 0-0.448 0.123-0.569 0.309l-0.002 0.003c-0.137 0.235-0.218 0.517-0.218 0.818 0 0.044 0.002 0.088 0.005 0.132l-0-0.006c-0.002 0.032-0.004 0.070-0.004 0.108 0 0.289 0.078 0.561 0.213 0.794l-0.004-0.008c0.117 0.184 0.32 0.304 0.551 0.304 0.008 0 0.016-0 0.024-0l-0.001 0c0.003 0 0.006 0 0.010 0 0.171 0 0.329-0.052 0.461-0.141l-0.003 0.002c0.165-0.112 0.303-0.249 0.415-0.405l0.003-0.005zM131.989 27.906c0.121-0.151 0.272-0.272 0.444-0.358l0.008-0.003c0.148-0.077 0.323-0.122 0.508-0.123h0c0.032-0.004 0.070-0.006 0.108-0.006 0.556 0 1.008 0.451 1.008 1.008 0 0.064-0.006 0.126-0.017 0.186l0.001-0.006v2.092h-0.583v-2.059c0-0.011 0-0.023 0-0.036 0-0.109-0.012-0.216-0.035-0.318l0.002 0.010c-0.022-0.088-0.059-0.164-0.108-0.232l0.001 0.002c-0.047-0.056-0.108-0.099-0.178-0.122l-0.003-0.001c-0.083-0.026-0.178-0.041-0.276-0.041-0.001 0-0.002 0-0.003 0h0c-0.364 0.034-0.678 0.225-0.875 0.505l-0.003 0.004v2.289h-0.574v-3.192h0.574v0.402zM7.41 23.902c0.302 0.040 0.652 0.063 1.007 0.063 3.443 0 6.381-2.157 7.539-5.193l0.019-0.055c0.017-0.041 0.033-0.090 0.049-0.14-0.003-0-0.007-0-0.011-0-0.019 0-0.037 0.003-0.054 0.009l0.001-0c-0.434 0.154-0.935 0.244-1.457 0.244-2.474 0-4.479-2.005-4.479-4.479 0-0.471 0.073-0.925 0.207-1.351l-0.009 0.032c0.069-4.144 2.985-7.589 6.874-8.465l0.059-0.011c1.168-0.279 2.509-0.44 3.887-0.443h0.002c1.484 0.001 2.923 0.19 4.296 0.543l-0.119-0.026c-2.665-2.851-6.448-4.628-10.647-4.628-7.968 0-14.441 6.4-14.559 14.34l-0 0.011c0 0.002 0 0.005 0 0.007 0 3.092 0.992 5.952 2.674 8.281l-0.029-0.042c0.37 0.164 0.748 0.32 1.132 0.459 1.046 0.384 2.27 0.68 3.537 0.837l0.082 0.008zM24.079 12.702c-1.496-1.9-3.797-3.109-6.38-3.109-0.853 0-1.675 0.132-2.447 0.376l0.057-0.016c1.162 0.201 2.151 0.822 2.827 1.696l0.008 0.010c0.159 0.123 0.323 0.246 0.473 0.377 1.766 1.607 2.869 3.914 2.869 6.479 0 1.611-0.436 3.121-1.196 4.418l0.022-0.041c-0.691 1.18-1.456 2.202-2.322 3.128l0.009-0.010c-0.937 1.006-1.983 1.892-3.124 2.643l-0.064 0.040c5.441-0.086 10.147-3.149 12.569-7.628l0.038-0.077c-0.2-1.9-0.7-3.639-1.453-5.235l0.042 0.098c-0.563-1.202-1.207-2.236-1.958-3.184l0.025 0.033zM26.204 5.793c-1.539-0.525-3.313-0.829-5.157-0.829-0.001 0-0.003 0-0.004 0h0c-1.311 0.003-2.584 0.155-3.806 0.441l0.114-0.022c-2.958 0.67-5.263 2.91-6.016 5.778l-0.012 0.056c0.361-0.362 0.784-0.662 1.252-0.883l0.027-0.012c0.396-0.277 0.849-0.537 1.324-0.757l0.055-0.023c1.091-0.508 2.369-0.804 3.715-0.804 2.864 0 5.415 1.34 7.061 3.427l0.015 0.019c0.753 0.96 1.428 2.046 1.981 3.201l0.046 0.106c0.556 1.168 1.002 2.526 1.271 3.947l0.017 0.106c0.623-1.529 0.985-3.304 0.985-5.162 0-0.011 0-0.022-0-0.033v0.002c0-0.001 0-0.002 0-0.002 0-3.229-1.079-6.206-2.896-8.59l0.025 0.035zM17.366 25.436c0.812-0.87 1.538-1.841 2.15-2.885l0.042-0.077c0.672-1.134 1.068-2.499 1.068-3.957 0-1.8-0.605-3.459-1.623-4.784l0.014 0.019c0.028 0.179 0.045 0.386 0.046 0.598v0.001c-0.002 1.457-0.71 2.749-1.8 3.552l-0.012 0.009c-0.058 0.057-0.121 0.107-0.184 0.164-0.093 0.38-0.191 0.692-0.305 0.996l0.020-0.061c-1.302 3.42-4.554 5.805-8.362 5.805-0.392 0-0.779-0.025-1.158-0.074l0.045 0.005c-1.335-0.161-2.545-0.449-3.699-0.857l0.12 0.037c2.396 2.628 5.724 4.371 9.457 4.706l0.056 0.004c1.588-0.878 2.946-1.943 4.112-3.191l0.009-0.009z"></path>
</symbol>
<symbol id="icon-logo-rocket" viewBox="0 0 117 32">
<title>logo-rocket</title>
<path fill="#707070" style="fill: var(--color1, #707070)" d="M114.067 20.672c-0.010 0-0.022 0-0.034 0-1.837 0-3.326-1.489-3.326-3.326s1.489-3.326 3.326-3.326c1.837 0 3.326 1.489 3.326 3.326 0 0.001 0 0.003 0 0.004v-0c0 0.002 0 0.005 0 0.008 0 1.823-1.471 3.302-3.291 3.314h-0.001zM114.067 14.448c-0.008-0-0.018-0-0.027-0-1.601 0-2.898 1.298-2.898 2.898s1.298 2.898 2.898 2.898c1.599 0 2.896-1.295 2.898-2.894v-0c0-0.004 0-0.009 0-0.014 0-1.589-1.283-2.878-2.87-2.888h-0.001zM112.9 15.584c0.305-0.050 0.658-0.078 1.016-0.078 0.026 0 0.051 0 0.077 0l-0.004-0c0.053-0.005 0.114-0.009 0.176-0.009 0.369 0 0.712 0.111 0.998 0.301l-0.007-0.004c0.205 0.172 0.334 0.428 0.334 0.714 0 0.017-0 0.034-0.001 0.051l0-0.002c-0.005 0.413-0.267 0.764-0.633 0.9l-0.007 0.002v0.016c0.259 0.135 0.442 0.385 0.484 0.68l0.001 0.005c0.097 0.421 0.199 0.764 0.316 1.1l-0.022-0.073h-0.836c-0.102-0.241-0.189-0.525-0.247-0.819l-0.005-0.029c0.001-0.009 0.001-0.021 0.001-0.032 0-0.309-0.251-0.56-0.56-0.56-0.009 0-0.019 0-0.028 0.001l0.001-0h-0.246v1.439h-0.808v-3.602zM113.709 17.155h0.321c0.029 0.005 0.062 0.008 0.095 0.008 0.3 0 0.545-0.238 0.554-0.536l0-0.001c0-0.003 0-0.005 0-0.008 0-0.28-0.227-0.506-0.507-0.506-0.034 0-0.067 0.003-0.099 0.010l0.003-0.001c-0.008-0-0.017-0-0.027-0-0.121 0-0.239 0.009-0.356 0.025l0.013-0.002v1.011zM28.796 31.992s-1.271-0.545-2.276-0.887c-0.293-0.078-0.545-0.23-0.741-0.435l-0.001-0.001c-0.368-1.541-1.733-2.669-3.361-2.669-1.262 0-2.366 0.677-2.968 1.688l-0.009 0.016-0.145-0.023c0.357-0.976 1.080-1.745 1.999-2.153l0.024-0.009c-0.218-1.727-1.671-3.051-3.436-3.065h-0.002c-0.33 0.007-0.646 0.058-0.945 0.146l0.026-0.006c0.371 0.596 0.599 1.316 0.618 2.088l0 0.005c-0.011 1.009-0.399 1.926-1.029 2.617l0.003-0.003c0.331-0.626 0.525-1.368 0.525-2.156 0-2.589-2.099-4.688-4.688-4.688s-4.688 2.099-4.688 4.688c0 0.834 0.218 1.617 0.6 2.296l-0.012-0.024c-0.699-0.701-1.137-1.663-1.155-2.727l-0-0.003c0.011-0.503 0.107-0.98 0.273-1.422l-0.010 0.030c-0.536-0.34-1.19-0.542-1.89-0.542-1.969 0-3.565 1.596-3.565 3.565 0 0.944 0.367 1.803 0.967 2.441l-0.002-0.002c-0.178 0.145-0.387 0.259-0.615 0.331l-0.013 0.004c-1.011 0.335-2.279 0.879-2.279 0.879h9.33l-0.018 0.023h19.484zM15.358 15.716l0.024-0.014c-0.623 0.378-1.329 0.634-2.111 0.737h-0.011l-0.047-0.008c-0.737-0.143-1.436-0.394-2.039-0.716l-2.858 1.128c0.178-2.389 1.384-3.836 2.412-5.68-0.759-8.932 2.371-11.157 2.371-11.157s3.464 2.225 2.704 11.157c1.026 1.844 2.231 3.291 2.412 5.68zM18.215 16.844c-0.18-2.389-1.386-3.836-2.412-5.68 0.759-8.932-2.704-11.157-2.704-11.157s-3.131 2.225-2.371 11.157c-1.028 1.844-2.234 3.291-2.412 5.68l2.858-1.128c0.603 0.322 1.301 0.573 2.039 0.716l0.047 0.008h0.011c0.782-0.103 1.488-0.359 2.111-0.737l-0.024 0.014zM15.111 19.225l-0.725-2.124c-0.266 0.22-0.58 0.393-0.923 0.5l-0.020 0.005c-0.366-0.113-0.683-0.286-0.957-0.51l0.005 0.004-0.727 2.124 0.821-0.895-0.514 3.275 0.863-0.825c0.072-0.008 0.179 0.459 0.252 0.459 0.053 0 0.15 0.498 0.206 0.506 0.054-0.008 0.244-0.506 0.296-0.506 0.073 0 0.181-0.467 0.252-0.459v0l0.863 0.825-0.514-3.275zM35.729 31.728h-2.49l2.83-13.81h3.7c0.591 0 1.099 0.023 1.524 0.062 0.418 0.042 0.798 0.116 1.165 0.221l-0.046-0.011c0.801 0.196 1.48 0.634 1.973 1.231l0.005 0.006c0.393 0.532 0.629 1.201 0.629 1.926 0 0.023-0 0.046-0.001 0.069l0-0.003c0 0.009 0 0.020 0 0.031 0 0.55-0.085 1.080-0.244 1.578l0.010-0.037c-0.162 0.507-0.409 0.945-0.727 1.32l0.005-0.005c-0.353 0.412-0.773 0.755-1.245 1.015l-0.023 0.012c-0.535 0.294-1.154 0.528-1.809 0.669l-0.045 0.008v0.047l3.034 5.672h-2.758l-2.739-5.345h-1.66zM37.261 24.266h0.96c0.457 0 0.864-0.016 1.227-0.047 0.356-0.027 0.687-0.087 1.004-0.18l-0.034 0.009c0.605-0.149 1.124-0.454 1.53-0.871l0.001-0.001c0.35-0.385 0.565-0.899 0.565-1.463 0-0.035-0.001-0.070-0.002-0.105l0 0.005c0-0.011 0-0.023 0-0.036 0-0.305-0.083-0.591-0.229-0.835l0.004 0.008c-0.171-0.261-0.427-0.454-0.728-0.542l-0.009-0.002c-0.184-0.061-0.398-0.106-0.62-0.124l-0.010-0.001c-0.267-0.030-0.576-0.047-0.889-0.047-0.029 0-0.058 0-0.087 0l0.004-0h-1.818zM53.491 17.661c0.019-0 0.041-0 0.064-0 0.753 0 1.477 0.123 2.154 0.349l-0.048-0.014c1.279 0.426 2.276 1.393 2.733 2.623l0.010 0.030c0.24 0.644 0.378 1.389 0.378 2.166 0 0.040-0 0.080-0.001 0.12l0-0.006c-0.006 0.634-0.067 1.249-0.179 1.847l0.010-0.065c-0.133 0.754-0.322 1.42-0.57 2.057l0.025-0.073c-0.285 0.755-0.614 1.404-1.004 2.010l0.025-0.042c-0.413 0.649-0.899 1.205-1.455 1.68l-0.010 0.009c-1.193 1.022-2.755 1.643-4.462 1.643-0.052 0-0.105-0.001-0.157-0.002l0.008 0c-0.022 0-0.048 0-0.074 0-0.751 0-1.472-0.125-2.145-0.357l0.046 0.014c-0.65-0.216-1.208-0.557-1.67-0.997l0.002 0.002c-0.466-0.454-0.831-1.007-1.064-1.626l-0.010-0.031c-0.24-0.639-0.379-1.378-0.379-2.15 0-0.043 0-0.086 0.001-0.129l-0 0.006c0.007-0.637 0.068-1.256 0.177-1.857l-0.010 0.067c0.136-0.756 0.325-1.423 0.571-2.060l-0.026 0.076c0.29-0.753 0.62-1.399 1.007-2.005l-0.026 0.044c0.415-0.651 0.9-1.209 1.456-1.688l0.010-0.008c1.197-1.017 2.761-1.635 4.469-1.635 0.049 0 0.098 0 0.147 0.002l-0.007-0zM53.318 19.801c-0.016-0-0.034-0-0.052-0-0.53 0-1.035 0.106-1.496 0.298l0.026-0.009c-0.484 0.207-0.9 0.471-1.267 0.791l0.006-0.005c-0.381 0.342-0.712 0.728-0.988 1.153l-0.014 0.022c-0.271 0.411-0.515 0.883-0.708 1.38l-0.018 0.051c-0.176 0.449-0.328 0.981-0.43 1.532l-0.009 0.056c-0.093 0.481-0.147 1.035-0.149 1.602v0.001c-0.001 0.025-0.001 0.054-0.001 0.084 0 0.462 0.075 0.907 0.214 1.323l-0.009-0.029c0.13 0.389 0.33 0.724 0.588 1.006l-0.002-0.002c0.254 0.262 0.567 0.467 0.917 0.594l0.017 0.005c0.356 0.128 0.768 0.203 1.197 0.203 0.014 0 0.028-0 0.042-0l-0.002 0c0.008 0 0.017 0 0.026 0 0.539 0 1.053-0.106 1.523-0.298l-0.027 0.010c0.485-0.206 0.902-0.473 1.266-0.798l-0.005 0.004c0.381-0.34 0.712-0.723 0.988-1.145l0.013-0.022c0.27-0.413 0.514-0.887 0.707-1.387l0.018-0.053c0.177-0.447 0.329-0.977 0.43-1.525l0.008-0.054c0.093-0.483 0.147-1.040 0.149-1.609v-0.002c0.005-0.070 0.008-0.152 0.008-0.234 0-0.82-0.303-1.57-0.803-2.143l0.003 0.004c-0.521-0.499-1.229-0.806-2.009-0.806-0.058 0-0.115 0.002-0.172 0.005l0.008-0zM68.489 19.801c-0.012-0-0.026-0-0.041-0-0.573 0-1.125 0.094-1.64 0.267l0.036-0.011c-0.525 0.177-0.98 0.418-1.388 0.718l0.014-0.010c-0.406 0.311-0.756 0.668-1.052 1.067l-0.010 0.014c-0.29 0.389-0.545 0.832-0.745 1.304l-0.016 0.042c-0.19 0.436-0.349 0.947-0.451 1.478l-0.008 0.047c-0.098 0.484-0.155 1.040-0.156 1.61v0c-0.002 0.045-0.003 0.098-0.003 0.151 0 0.566 0.104 1.108 0.294 1.607l-0.010-0.031c0.17 0.432 0.434 0.795 0.767 1.078l0.004 0.003c0.321 0.26 0.707 0.452 1.129 0.549l0.019 0.004c0.412 0.104 0.884 0.163 1.371 0.163 0.012 0 0.024-0 0.035-0h-0.002c0.017 0 0.037 0 0.057 0 0.574 0 1.135-0.054 1.679-0.157l-0.056 0.009c0.679-0.132 1.26-0.291 1.824-0.487l-0.092 0.028-0.45 2.225c-0.514 0.184-1.115 0.326-1.737 0.401l-0.040 0.004c-0.511 0.070-1.107 0.112-1.711 0.117l-0.006 0c-0.021 0-0.046 0-0.071 0-0.782 0-1.536-0.117-2.247-0.334l0.054 0.014c-0.681-0.206-1.27-0.54-1.765-0.977l0.005 0.004c-0.5-0.458-0.891-1.026-1.135-1.666l-0.010-0.030c-0.261-0.686-0.412-1.478-0.412-2.306 0-0.053 0.001-0.107 0.002-0.16l-0 0.008c0.003-0.731 0.075-1.443 0.211-2.133l-0.012 0.071c0.15-0.774 0.362-1.457 0.64-2.105l-0.025 0.067c0.301-0.711 0.65-1.322 1.059-1.887l-0.019 0.027c0.428-0.583 0.922-1.083 1.479-1.504l0.018-0.013c0.576-0.43 1.244-0.78 1.965-1.013l0.049-0.014c0.715-0.242 1.538-0.382 2.394-0.382 0.027 0 0.054 0 0.081 0l-0.004-0c0.591 0.007 1.166 0.057 1.726 0.149l-0.066-0.009c0.656 0.088 1.245 0.227 1.81 0.417l-0.068-0.020-0.419 2.070c-0.388-0.127-0.873-0.248-1.369-0.339l-0.073-0.011c-0.417-0.074-0.898-0.117-1.388-0.117-0.010 0-0.021 0-0.031 0h0.002zM71.902 31.728h2.494l1.306-6.38h0.038l3.954 6.38h2.869l-4.341-6.862 6.528-6.948h-3.086l-5.658 6.146h-0.042l1.257-6.146h-2.49l-2.83 13.81zM87.794 25.721h5.213l0.429-2.116h-5.208l0.737-3.571h6.069l0.44-2.116h-8.57l-2.829 13.81h8.939l0.429-2.116h-6.444zM104.178 20.034h4.291l0.43-2.116h-11.084l-0.42 2.116h4.292l-2.402 11.694h2.49z"></path>
</symbol>
<symbol id="icon-arrow" viewBox="0 0 32 32">
<title>arrow</title>
<path d="M2.32 2.347c-0.587 0.613-0.987 1.28-0.987 1.653 0 0.987 13.707 14.667 14.667 14.667 0.987 0 14.667-13.707 14.667-14.693 0-0.88-1.787-2.64-2.667-2.64-0.48 0-2.080 1.44-6.32 5.653l-5.68 5.653-5.68-5.653c-4.347-4.32-5.84-5.653-6.347-5.653-0.427 0-1.040 0.373-1.653 1.013z"></path>
<path d="M2.32 13.813c-0.587 0.613-0.987 1.28-0.987 1.653 0 0.987 13.707 14.667 14.667 14.667 0.987 0 14.667-13.707 14.667-14.693 0-0.88-1.787-2.64-2.667-2.64-0.48 0-2.080 1.44-6.32 5.653l-5.68 5.653-5.68-5.653c-4.347-4.32-5.84-5.653-6.347-5.653-0.427 0-1.040 0.373-1.653 1.013z"></path>
</symbol>
<symbol id="icon-camera" viewBox="0 0 32 32">
<title>camera</title>
<path d="M10.557 3.446c-0.41 0.328-0.875 1.094-1.067 1.832l-0.383 1.285-3.938 0.164c-2.161 0.082-3.966 0.191-3.993 0.191-0.027 0.027-0.301 0.328-0.629 0.656-0.52 0.574-0.547 0.903-0.547 9.956 0 9.026 0.027 9.354 0.574 10.065l0.547 0.711h29.757l0.547-0.711c0.547-0.711 0.574-1.039 0.574-10.010 0-5.525-0.109-9.491-0.273-9.791-0.438-0.821-1.805-1.094-5.361-1.094h-3.337l-0.465-1.368c-0.766-2.352-1.094-2.462-6.564-2.462-4.349 0-4.759 0.055-5.443 0.574zM19.747 9.764c1.832 0.848 3.255 2.243 4.239 4.13 0.602 1.176 0.738 1.778 0.738 3.61 0.027 2.598-0.547 4.075-2.243 5.935-4.267 4.622-12.034 3.309-14.632-2.489-0.821-1.805-0.821-4.896 0.027-6.728 2.079-4.54 7.357-6.509 11.87-4.458zM30.359 11.897v0.821h-4.103v-1.641h4.103v0.821z"></path>
<path d="M13.265 11.87c-4.896 2.27-4.896 9.135-0.027 11.405 3.364 1.559 7.412 0.027 8.834-3.364 0.52-1.258 0.438-3.583-0.164-4.868-0.629-1.34-2.024-2.708-3.364-3.255-1.395-0.602-3.911-0.547-5.279 0.082z"></path>
</symbol>
<symbol id="icon-circle" viewBox="0 0 32 32">
<title>circle</title>
<path fill="#ffe600" style="fill: var(--color2, #ffe600)" d="M11.731 4.269c0 2.358 1.911 4.269 4.269 4.269s4.269-1.911 4.269-4.269c0-2.358-1.911-4.269-4.269-4.269v0c-2.358 0-4.269 1.912-4.269 4.269v0zM20.792 8.023c0 2.358 1.911 4.269 4.269 4.269s4.269-1.911 4.269-4.269c0-2.358-1.911-4.269-4.269-4.269v0c-0.001 0-0.003 0-0.004 0-2.356 0-4.265 1.91-4.265 4.265 0 0.001 0 0.003 0 0.004v-0zM26.677 17.077c0 0.001 0 0.003 0 0.004 0 1.179 0.956 2.135 2.135 2.135s2.135-0.956 2.135-2.135c0-1.179-0.956-2.135-2.135-2.135-0.001 0-0.003 0-0.004 0h0c-1.176 0.003-2.128 0.955-2.131 2.13v0zM22.923 26.139c0.002 1.177 0.957 2.131 2.135 2.131 1.179 0 2.135-0.956 2.135-2.135 0-1.178-0.953-2.132-2.131-2.135h-0c-0.001 0-0.002 0-0.003 0-1.179 0-2.135 0.956-2.135 2.135 0 0.001 0 0.002 0 0.003v-0zM13.869 29.885c0 0.001 0 0.003 0 0.004 0 1.179 0.956 2.135 2.135 2.135s2.135-0.956 2.135-2.135c0-1.179-0.956-2.135-2.135-2.135-0.001 0-0.003 0-0.004 0h0c-1.176 0.003-2.128 0.955-2.131 2.13v0zM4.808 26.139c0.002 1.177 0.957 2.131 2.135 2.131 1.179 0 2.135-0.956 2.135-2.135 0-1.178-0.953-2.132-2.13-2.135h-0c-0.001 0-0.002 0-0.003 0-1.179 0-2.135 0.956-2.135 2.135 0 0.001 0 0.002 0 0.003v-0zM3.739 8.023c0 0.001 0 0.003 0 0.004 0 1.769 1.434 3.204 3.204 3.204s3.204-1.434 3.204-3.204c0-1.768-1.432-3.202-3.2-3.204h-0c-0 0-0.001 0-0.002 0-1.769 0-3.203 1.432-3.206 3.2v0zM0.788 17.077c0 0.002 0 0.005 0 0.008 0 1.328 1.076 2.404 2.404 2.404s2.404-1.076 2.404-2.404c0-1.328-1.076-2.404-2.404-2.404v0c-1.325 0-2.399 1.072-2.404 2.396v0z"></path>
</symbol>
<symbol id="icon-clock" viewBox="0 0 32 32">
<title>clock</title>
<path fill="#fff" style="fill: var(--color3, #fff)" d="M15.823 3.956c-0.001 0-0.002 0-0.003 0-7.672 0-13.891 6.219-13.891 13.891s6.219 13.891 13.891 13.891c7.67 0 13.888-6.216 13.891-13.886v-0c0-0 0-0.001 0-0.001 0-7.671-6.217-13.891-13.888-13.895h-0zM15.823 29.013c-0 0-0.001 0-0.001 0-6.164 0-11.161-4.997-11.161-11.161s4.997-11.161 11.161-11.161c6.164 0 11.161 4.997 11.161 11.161v0c-0.003 6.163-4.998 11.158-11.16 11.161h-0zM28.929 8.892c0.492-0.842 0.783-1.854 0.783-2.933 0-0.005 0-0.010-0-0.016v0.001c0-0.003 0-0.006 0-0.009 0-3.286-2.664-5.95-5.95-5.95-1.915 0-3.618 0.904-4.706 2.309l-0.010 0.014c4.126 0.878 7.584 3.259 9.846 6.531l0.035 0.053zM12.593 2.308c-1.099-1.413-2.799-2.313-4.71-2.313-3.287 0-5.952 2.665-5.952 5.952 0 1.083 0.289 2.099 0.795 2.974l-0.015-0.029c2.297-3.325 5.755-5.707 9.778-6.566l0.104-0.019zM13.836 10.133h2.115l0.043 9.697h-2.158v-9.697zM15.775 17.852h5.996v1.978h-5.952z"></path>
</symbol>
<symbol id="icon-develope" viewBox="0 0 32 32">
<title>develope</title>
<path d="M12.651 3.572c-0.298 1.96-0.372 2.109-1.091 2.456-0.744 0.347-0.794 0.347-2.58-0.893l-1.811-1.24-2.009 1.984-1.984 1.984 1.24 1.712c1.166 1.612 1.215 1.736 0.943 2.456-0.273 0.67-0.471 0.769-2.158 1.067-1.017 0.198-1.984 0.372-2.158 0.447-0.223 0.074-0.298 0.769-0.248 2.878l0.074 2.803 1.24 0.174c2.828 0.447 2.853 0.447 3.25 1.215 0.372 0.744 0.372 0.769-0.918 2.481l-1.29 1.761 2.009 2.009 2.009 1.985 1.811-1.24c1.736-1.191 1.836-1.215 2.58-0.918 0.719 0.298 0.769 0.422 1.067 2.431l0.322 2.133h2.828c2.059 0 2.878-0.074 2.952-0.322 0.050-0.149 0.223-1.116 0.372-2.109 0.273-1.687 0.347-1.836 1.067-2.133 0.769-0.298 0.868-0.273 2.605 0.943l1.811 1.24 3.969-3.969-1.067-1.488c-0.595-0.794-1.166-1.588-1.265-1.736-0.223-0.372 0.298-1.836 0.645-1.86 0.174 0 1.191-0.149 2.282-0.298l1.985-0.298 0.074-2.778 0.074-2.753-2.332-0.422c-2.208-0.397-2.332-0.447-2.605-1.191-0.273-0.719-0.223-0.868 0.645-2.084 0.496-0.744 1.067-1.538 1.215-1.761 0.273-0.397 0.074-0.695-1.662-2.406l-1.985-1.96-1.786 1.24c-1.736 1.215-1.836 1.24-2.605 0.943-0.719-0.298-0.794-0.447-1.067-2.133-0.149-0.992-0.322-1.96-0.372-2.133-0.074-0.223-0.893-0.298-2.952-0.298h-2.828l-0.298 2.084zM17.513 13.048c2.629 1.24 2.729 5.036 0.198 6.474-2.53 1.464-5.557-0.248-5.557-3.15 0-2.753 2.828-4.515 5.358-3.324z"></path>
</symbol>
<symbol id="icon-file" viewBox="0 0 32 32">
<title>file</title>
<path fill="#ffe600" style="fill: var(--color2, #ffe600)" d="M28.108-0.007l2.102 17.855-2.359 0.276-1.879-15.942h-19.903l-1.879 15.942-2.359-0.276 2.103-17.855h24.175zM8.409 3.6h15.251l0.031 2.211-15.281 0.058v-2.269zM8.427 7.993h15.284l-0.023 2.204-15.284-0.029zM8.427 12.349h15.261v2.204l-15.284 0.022zM8.381 15.985h15.307l0.023 2.225-15.307-0.022zM30.854 20.393l-29.841-0.044c-0.377 0.052-0.664 0.372-0.664 0.759 0 0.135 0.035 0.262 0.096 0.372l-0.002-0.004 3.256 9.549c0.212 0.541 0.716 0.923 1.314 0.953l0.003 0h22.012c0.601-0.030 1.106-0.412 1.314-0.943l0.003-0.010 3.302-9.644c0.030-0.079 0.048-0.171 0.048-0.267 0-0.423-0.343-0.766-0.766-0.766-0.003 0-0.007 0-0.010 0h0zM20.045 23.978h-8.029l0.023-2.182h7.985z"></path>
</symbol>
<symbol id="icon-hammer" viewBox="0 0 32 32">
<title>hammer</title>
<path fill="#ffe600" style="fill: var(--color2, #ffe600)" d="M31.623 25.098l-9.444-9.447c-0.273-0.27-0.648-0.436-1.063-0.436s-0.79 0.167-1.063 0.436l0-0-0.708 0.713-5.762-5.76 9.725-9.876h-9.991l-4.744 4.865-0.418-0.56-2.238 0.029 0.023 2.145 0.509 0.509-6.452 6.451 5.010 5.011 6.452-6.451 5.762 5.76-0.708 0.705c-0.271 0.273-0.439 0.65-0.439 1.065s0.168 0.792 0.439 1.066l9.441 9.44c0.273 0.27 0.648 0.436 1.063 0.436s0.79-0.167 1.063-0.436l3.542-3.542c0.272-0.272 0.44-0.647 0.44-1.062s-0.168-0.79-0.44-1.062v0z"></path>
</symbol>
<symbol id="icon-hands" viewBox="0 0 32 32">
<title>hands</title>
<path fill="#fff" style="fill: var(--color3, #fff)" d="M28.843 17.707c2.24 0 0.983 5.899-0.983 5.899 0.983 0 0 4.917-1.967 4.917 0 1.973-1.927 3.147-3.893 3.147-8.307 0-5.5-2.315-13.882-3.179l-0.077-15.701c7.403-2.219 14.902-7.787 14.902-12.779 1.629 0 5.822 1.547-0.077 11.371h5.937c2.95 0 2.006 6.325 0.039 6.325zM5.959 12.789v15.659h2.24v1.056h-3.934c-1.458-0.226-2.569-1.448-2.621-2.939l-0-0.005-0.038-11.765c0-1.621 1.501-3.445 2.582-3.445h4.011v1.44h-2.24z"></path>
</symbol>
<symbol id="icon-home" viewBox="0 0 32 32">
<title>home</title>
<path fill="#ffe600" style="fill: var(--color2, #ffe600)" d="M31.921 18.372l-5.631-5.336v-9.694l-4.686-0.038v5.139l-5.662-6.080-15.951 16.009 0.029 0.913 3.775-0.028-0.030 10.353h10.259v-6.551l3.859-0.028-0.029 6.607 10.318-0.028 0.030-10.353 3.744 0.028z"></path>
</symbol>
<symbol id="icon-lab" viewBox="0 0 32 32">
<title>lab</title>
<path fill="#ffe600" style="fill: var(--color2, #ffe600)" d="M29.795 25.102l-9.304-16.448 0.022-6.656h0.519c0.552 0 0.999-0.447 0.999-0.999s-0.447-0.999-0.999-0.999h-9.862c-0.552 0-0.999 0.447-0.999 0.999s0.447 0.999 0.999 0.999h0.786l0.022 6.656-9.569 16.448c-2.233 3.769-0.509 6.848 3.83 6.848h19.726c4.338 0 6.064-3.079 3.831-6.848zM7.772 19.883l6.334-10.681v-7.076h4.279v7.076l6.003 10.681h-16.615z"></path>
</symbol>
<symbol id="icon-mail" viewBox="0 0 32 32">
<title>mail</title>
<path fill="#ffe600" style="fill: var(--color2, #ffe600)" d="M15.844 1c8.748 0 15.841 5.81 15.841 12.98s-7.093 12.98-15.841 12.98c-0.017 0-0.038 0-0.058 0-0.851 0-1.688-0.058-2.508-0.171l0.095 0.011c-3.4 3.44-7.463 4.050-11.391 4.14v-0.84c2.12-1.040 3.96-2.95 3.96-5.13-0-0.318-0.024-0.63-0.070-0.935l0.004 0.035c-3.445-2.123-5.739-5.825-5.873-10.071l-0-0.019c0-7.17 7.092-12.98 15.841-12.98z"></path>
</symbol>
<symbol id="icon-ok" viewBox="0 0 32 32">
<title>ok</title>
<path fill="#fff" style="fill: var(--color3, #fff)" d="M15.994 0c-8.839 0-16.005 7.166-16.005 16.005s7.166 16.005 16.005 16.005c8.839 0 16.005-7.166 16.005-16.005 0-0.003 0-0.007 0-0.011v0.001c-0.006-8.835-7.169-15.995-16.005-15.995v0zM10 15.995c0.003-3.311 2.688-5.994 5.999-5.994 3.313 0 5.999 2.686 5.999 5.999s-2.686 5.999-5.999 5.999c-0.002 0-0.004 0-0.005 0h0c0 0 0 0 0 0-3.311 0-5.994-2.684-5.994-5.994 0-0.003 0-0.007 0-0.010v0.001zM28.937 21.363v0l-5.547-2.296c0.384-0.907 0.606-1.961 0.606-3.067s-0.223-2.16-0.626-3.12l0.020 0.053 5.537-2.296c0.673 1.579 1.064 3.417 1.064 5.345 0 0.005 0 0.009 0 0.014v-0.001c0 0 0 0.001 0 0.001 0 1.935-0.387 3.78-1.088 5.461l0.035-0.094zM21.352 3.062v0l-2.296 5.547c-0.905-0.383-1.957-0.606-3.062-0.606s-2.157 0.223-3.115 0.626l0.053-0.020-1.074-2.605-1.223-2.943c1.583-0.673 3.425-1.064 5.358-1.064s3.775 0.391 5.45 1.098l-0.092-0.035zM3.061 10.637l5.541 2.296c-0.384 0.907-0.606 1.961-0.606 3.067s0.223 2.16 0.626 3.12l-0.020-0.053-5.539 2.296c-0.672-1.585-1.063-3.429-1.063-5.363s0.391-3.778 1.097-5.456l-0.035 0.092zM10.642 28.938l0.716-1.73 1.581-3.817c0.905 0.384 1.957 0.606 3.062 0.606s2.157-0.223 3.115-0.626l-0.053 0.020 2.296 5.547c-1.583 0.673-3.425 1.064-5.358 1.064s-3.775-0.391-5.45-1.098l0.092 0.035z"></path>
</symbol>
<symbol id="icon-pen" viewBox="0 0 31 32">
<title>pen</title>
<path d="M23.2 1.733l-0.907 0.933 3.387 3.413 3.387 3.387 0.987-1.013 1.013-0.987-3.333-3.333c-1.84-1.84-3.387-3.333-3.467-3.333-0.107 0-0.56 0.427-1.067 0.933z"></path>
<path d="M15.333 5.093c-2.64 0.24-4.96 0.48-5.12 0.48-0.187 0.027-0.347 0.373-0.347 0.8s-0.293 1.947-0.667 3.387c-0.987 3.973-4.4 10.613-7.947 15.547l-1.040 1.44 1.653 1.653 4-4c3.76-3.76 4-4.053 4-5.013 0-1.92 1.067-3.093 2.827-3.12 1.333 0 2.347 0.72 2.773 1.973 0.587 1.84-0.88 3.627-2.987 3.627-0.8 0-1.333 0.453-4.96 4.080l-4.080 4.080 0.773 0.72 0.773 0.747 3.307-2.213c5.947-3.973 12.32-6.8 16.32-7.28 0.827-0.107 1.52-0.213 1.547-0.24 0 0 0.24-2.373 0.507-5.227l0.507-5.2-3.387-3.413c-1.867-1.867-3.44-3.36-3.52-3.36-0.080 0.027-2.293 0.267-4.933 0.533z"></path>
</symbol>
<symbol id="icon-phone" viewBox="0 0 32 32">
<title>phone</title>
<path fill="#ffe600" style="fill: var(--color2, #ffe600)" d="M23.449 19.194c-2.133 2.143-2.133 4.275-4.265 4.275s-4.275-2.133-6.408-4.275-4.265-4.265-4.265-6.398 2.143-2.133 4.265-4.265-4.265-8.531-6.398-8.531-6.398 6.398-6.398 6.398c0 4.265 4.387 12.917 8.531 17.071s12.806 8.531 17.071 8.531c0 0 6.398-4.265 6.398-6.398s-6.398-8.541-8.531-6.408z"></path>
</symbol>
<symbol id="icon-settings" viewBox="0 0 32 32">
<title>settings</title>
<path fill="#ffe600" style="fill: var(--color2, #ffe600)" d="M28.743 19.065c-0.499-0.871-0.794-1.915-0.794-3.028 0-2.24 1.193-4.201 2.978-5.284l0.027-0.015-3.079-5.447c-0.854 0.518-1.886 0.825-2.99 0.825-0.004 0-0.008 0-0.012 0h0.001c-3.301-0.045-5.96-2.731-5.96-6.039 0-0.029 0-0.059 0.001-0.088l-0 0.004h-6.158c0 0.014 0 0.032 0 0.049 0 1.112-0.296 2.154-0.812 3.053l0.016-0.030c-1.031 1.823-2.956 3.033-5.164 3.033-1.109 0-2.146-0.305-3.033-0.836l0.027 0.015-3.079 5.447c0.922 0.544 1.666 1.3 2.182 2.204l0.015 0.029c0.5 0.872 0.795 1.918 0.795 3.032 0 2.232-1.184 4.188-2.959 5.273l-0.027 0.015 3.079 5.447c0.85-0.514 1.876-0.818 2.974-0.818 0.002 0 0.004 0 0.006 0h-0c3.301 0.044 5.959 2.73 5.959 6.037 0 0.020-0 0.040-0 0.060l0-0.003h6.165c-0-0.014-0-0.031-0-0.047 0-1.102 0.296-2.136 0.812-3.025l-0.015 0.029c1.030-1.821 2.954-3.030 5.161-3.030 1.102 0 2.133 0.302 3.016 0.827l-0.027-0.015 3.086-5.447c-0.918-0.544-1.66-1.297-2.175-2.197l-0.015-0.029zM15.829 22.478c-0.040 0.001-0.086 0.001-0.133 0.001-3.581 0-6.483-2.903-6.483-6.483s2.903-6.483 6.483-6.483c3.579 0 6.481 2.901 6.483 6.479v0c0 0.020 0 0.045 0 0.069 0 3.521-2.835 6.379-6.347 6.417l-0.004 0z"></path>
</symbol>
<symbol id="icon-talk" viewBox="0 0 32 32">
<title>talk</title>
<path fill="#fff" style="fill: var(--color3, #fff)" d="M13.235 1.939v0c7.311 0 13.236 4.79 13.236 10.705s-5.925 10.715-13.236 10.715c-0.73-0.002-1.448-0.048-2.152-0.135l0.087 0.009c-2.841 2.832-6.128 3.336-9.406 3.413v-0.698c1.773-0.863 3.2-2.434 3.2-4.238-0-0.26-0.021-0.515-0.060-0.765l0.004 0.028c-2.871-1.737-4.789-4.797-4.907-8.313l-0-0.017c0-5.915 5.925-10.705 13.237-10.705zM27.463 25.949c0.071 1.635 1.087 3.017 2.514 3.617l0.027 0.010v0.601c-2.841-0.068-5.45-0.504-7.922-2.928-0.535 0.067-1.154 0.106-1.783 0.107h-0.001c-0.039 0-0.086 0.001-0.133 0.001-2.533 0-4.901-0.707-6.918-1.935l0.059 0.033c0.053 0.001 0.115 0.001 0.178 0.001 3.953 0 7.589-1.359 10.466-3.635l-0.035 0.027c1.378-1.103 2.509-2.451 3.341-3.985l0.034-0.069c0.806-1.49 1.28-3.261 1.28-5.143 0-0.002 0-0.004 0-0.006v0c0-0.014 0-0.030 0-0.047 0-0.284-0.014-0.565-0.042-0.841l0.003 0.035c1.928 1.492 3.175 3.784 3.239 6.37l0 0.010c-0.105 3.038-1.771 5.666-4.217 7.115l-0.040 0.022c-0.029 0.191-0.047 0.413-0.048 0.638v0.002z"></path>
</symbol>
<symbol id="icon-truck" viewBox="0 0 32 32">
<title>truck</title>
<path fill="#ffe600" style="fill: var(--color2, #ffe600)" d="M32.007 16.74l-4.238-7.858-5.724 0.021v-3.74c-0.122-1.112-1.057-1.97-2.192-1.97-0.012 0-0.024 0-0.036 0l0.002-0h-17.877c-1.066 0.027-1.921 0.898-1.921 1.968 0 0.015 0 0.031 0.001 0.046l-0-0.002-0.021 15.687 1.856 1.5 2.759 0.021c-0.383 0.698-0.631 1.519-0.689 2.393l-0.001 0.018c0 2.195 1.78 3.975 3.975 3.975s3.975-1.78 3.975-3.975v0c0.003-0.075 0.005-0.163 0.005-0.252 0-0.786-0.156-1.535-0.439-2.219l0.014 0.039 10.994 0.021c-0.371 0.7-0.604 1.524-0.64 2.399l-0 0.011c0 2.193 1.778 3.972 3.972 3.972s3.972-1.778 3.972-3.972v0c-0.017-0.88-0.228-1.707-0.591-2.445l0.015 0.034 2.83-0.021v-5.653zM22.094 15.993l-0.021-4.928 3.563-0.043 2.773 4.971h-6.315z"></path>
</symbol>
<symbol id="icon-web" viewBox="0 0 32 32">
<title>web</title>
<path d="M4.56 3.253c-0.16 0.933-0.373 2-0.453 2.4l-0.16 0.747h21.173l-0.16 0.987c-0.107 0.56-0.32 1.467-0.453 2l-0.267 1.013-10.587 0.053-10.587 0.080-0.293 1.36c-0.16 0.773-0.373 1.813-0.48 2.347l-0.187 0.96h10.693c5.867 0 10.667 0.053 10.667 0.107 0 0.613-1.44 6.187-1.627 6.32-0.133 0.080-2.080 0.72-4.32 1.413l-4.080 1.28-3.627-1.387-3.653-1.387 0.32-2.347h-5.307l-0.48 2.96c-0.267 1.627-0.427 2.987-0.373 3.040s2.773 1.12 6.080 2.373l6.027 2.293 7.040-2.32 7.067-2.347 2.32-11.333c1.253-6.24 2.32-11.547 2.32-11.813 0.027-0.427-0.773-0.453-13.147-0.453h-13.147l-0.32 1.653z"></path>
</symbol>
<symbol id="icon-google" viewBox="0 0 20 20">
<title>google</title>
<path d="M1.989 5.589c0 1.494 0.499 2.572 1.482 3.205 0.806 0.52 1.74 0.598 2.226 0.598 0.118 0 0.213-0.006 0.279-0.010 0 0-0.154 1.004 0.59 1.996h-0.034c-1.289 0-5.493 0.269-5.493 3.727 0 3.516 3.861 3.695 4.636 3.695 0.061 0 0.097-0.002 0.097-0.002 0.008 0 0.063 0.002 0.158 0.002 0.497 0 1.782-0.062 2.975-0.643 1.548-0.75 2.333-2.059 2.333-3.885 0-1.764-1.196-2.814-2.069-3.582-0.533-0.469-0.994-0.873-0.994-1.266 0-0.4 0.337-0.701 0.762-1.082 0.689-0.615 1.339-1.492 1.339-3.15 0-1.457-0.189-2.436-1.354-3.057 0.121-0.062 0.551-0.107 0.763-0.137 0.631-0.086 1.554-0.184 1.554-0.699v-0.099h-4.599c-0.046 0.002-4.651 0.172-4.651 4.389zM9.413 14.602c0.088 1.406-1.115 2.443-2.922 2.574-1.835 0.135-3.345-0.691-3.433-2.096-0.043-0.676 0.254-1.336 0.835-1.863 0.589-0.533 1.398-0.863 2.278-0.928 0.104-0.006 0.207-0.012 0.31-0.012 1.699 0.001 2.849 0.999 2.932 2.325zM8.212 4.626c0.451 1.588-0.23 3.246-1.316 3.553-0.125 0.035-0.253 0.052-0.384 0.052-0.994 0-1.979-1.006-2.345-2.393-0.204-0.776-0.187-1.458 0.047-2.112 0.229-0.645 0.643-1.078 1.163-1.225 0.125-0.035 0.254-0.053 0.385-0.053 1.2 0 1.972 0.498 2.45 2.178zM16 8v-3h-2v3h-3v2h3v3h2v-3h3v-2h-3z"></path>
</symbol>
<symbol id="icon-facebook" viewBox="0 0 32 32">
<title>facebook</title>
<path d="M19 6h5v-6h-5c-3.86 0-7 3.14-7 7v3h-4v6h4v16h6v-16h5l1-6h-6v-3c0-0.542 0.458-1 1-1z"></path>
</symbol>
<symbol id="icon-twitter" viewBox="0 0 32 32">
<title>twitter</title>
<path d="M32 7.075c-1.175 0.525-2.444 0.875-3.769 1.031 1.356-0.813 2.394-2.1 2.887-3.631-1.269 0.75-2.675 1.3-4.169 1.594-1.2-1.275-2.906-2.069-4.794-2.069-3.625 0-6.563 2.938-6.563 6.563 0 0.512 0.056 1.012 0.169 1.494-5.456-0.275-10.294-2.888-13.531-6.862-0.563 0.969-0.887 2.1-0.887 3.3 0 2.275 1.156 4.287 2.919 5.463-1.075-0.031-2.087-0.331-2.975-0.819 0 0.025 0 0.056 0 0.081 0 3.181 2.263 5.838 5.269 6.437-0.55 0.15-1.131 0.231-1.731 0.231-0.425 0-0.831-0.044-1.237-0.119 0.838 2.606 3.263 4.506 6.131 4.563-2.25 1.762-5.075 2.813-8.156 2.813-0.531 0-1.050-0.031-1.569-0.094 2.913 1.869 6.362 2.95 10.069 2.95 12.075 0 18.681-10.006 18.681-18.681 0-0.287-0.006-0.569-0.019-0.85 1.281-0.919 2.394-2.075 3.275-3.394z"></path>
</symbol>
<symbol id="icon-dribbble" viewBox="0 0 32 32">
<title>dribbble</title>
<path d="M16 32c-8.825 0-16-7.175-16-16s7.175-16 16-16c8.825 0 16 7.175 16 16s-7.175 16-16 16v0zM29.494 18.188c-0.469-0.15-4.231-1.269-8.512-0.581 1.788 4.912 2.512 8.912 2.656 9.744 3.063-2.075 5.25-5.356 5.856-9.163v0zM21.337 28.6c-0.206-1.2-0.994-5.375-2.913-10.363-0.031 0.012-0.063 0.019-0.087 0.031-7.713 2.688-10.481 8.031-10.725 8.531 2.319 1.806 5.231 2.887 8.387 2.887 1.894 0 3.7-0.387 5.338-1.087v0zM5.844 25.156c0.313-0.531 4.063-6.738 11.106-9.019 0.175-0.056 0.356-0.113 0.538-0.162-0.344-0.775-0.719-1.556-1.106-2.319-6.819 2.044-13.444 1.956-14.044 1.95-0.006 0.137-0.006 0.275-0.006 0.419 0 3.506 1.331 6.712 3.512 9.131v0zM2.625 13.219c0.612 0.006 6.244 0.031 12.637-1.662-2.262-4.025-4.706-7.412-5.069-7.906-3.825 1.806-6.688 5.331-7.569 9.569v0zM12.8 2.731c0.375 0.506 2.863 3.888 5.1 8 4.863-1.819 6.919-4.588 7.163-4.938-2.413-2.144-5.587-3.444-9.063-3.444-1.1 0.006-2.175 0.138-3.2 0.381v0zM26.581 7.381c-0.288 0.388-2.581 3.325-7.631 5.388 0.319 0.65 0.625 1.313 0.906 1.981 0.1 0.238 0.2 0.469 0.294 0.706 4.55-0.569 9.069 0.344 9.519 0.438-0.031-3.225-1.188-6.188-3.087-8.512v0z"></path>
</symbol>
</defs>
</svg>
